<svg xmlns="http://www.w3.org/2000/svg" height="512" preserveAspectRatio="none" style="display: block;" version="1.1" viewBox="0 0 2048 2048" width="512">
<rect width="2048" height="2048" fill="#F4F0E8"/>
<path d="M 876.729 849.014 C 955.029 785.374 956.893 704.134 956.906 614.557 L 956.844 483.646 C 956.67 444.498 950.429 406.077 999.405 394.876 C 1042.83 392.993 1091.01 393.481 1091.16 450.442 L 1091.1 614.458 C 1091.05 692.332 1087.12 745.519 1138.92 813.136 C 1147.83 824.77 1158.11 835.257 1166.25 847.471 L 1167.26 849.014 C 1199.32 630.938 1334.34 602.003 1492.15 766.369 C 1658.96 934.544 1730.32 1291.54 1676.96 1518.67 C 1665.2 1568.68 1652.66 1640.5 1592.93 1653.82 C 1528.89 1665.03 1480.99 1577.07 1444.72 1537.28 C 1386.81 1473.76 1300.97 1498.1 1235.07 1451.81 C 1151.89 1393.71 1164.61 1323.64 1173.84 1238.27 C 1181.62 1173.93 1193.95 1089.66 1182.64 1024.93 C 1134.37 1004.49 1060.12 950.003 1036.71 900.622 C 1032.34 894.408 1028.51 888.848 1024.51 882.403 C 975.653 952.252 946.925 986.819 867.582 1024.93 C 856.147 1078.6 869.812 1190.48 876.15 1245.39 C 882.835 1303.33 891.382 1352.51 857.697 1404.86 C 797.091 1499.04 709.395 1466.23 633.461 1512.96 C 584.067 1543.35 567.139 1587.62 530.355 1627.22 C 500.518 1659.34 448.86 1666.74 418.079 1631.53 C 347.363 1554.93 346.668 1347.05 358.463 1252.64 C 381.313 1069.76 434.237 874.258 573.78 744.891 C 620.053 701.931 685.338 660.598 750.112 659.396 C 825.857 657.989 880.182 784.821 876.729 849.014 z M 1005.34 437.874 C 994.498 444.585 999.454 504.389 999.447 519.81 L 999.439 632.876 C 999.45 741.92 979.228 831.3 881.89 900.622 C 877.789 917.931 875.31 954.62 872.627 974.48 C 923.501 949.563 969.096 895.192 994.227 845.324 C 1003.84 826.241 1011.38 807.025 1036.71 819.92 C 1046.38 829.115 1057.23 853.829 1064.7 866.658 C 1089.29 908.895 1132.08 951.746 1175.24 974.48 C 1171.99 949.227 1169.66 925.981 1167.26 900.622 C 1114.77 869.61 1070.48 793.017 1055.51 736.685 C 1045.3 698.247 1047.52 658.152 1047.52 618.634 L 1047.54 499.62 C 1047.57 440.434 1062.45 435.232 1005.34 437.874 z M 741.238 701.374 C 665.266 711.788 590.376 780.067 543.828 842.029 C 443.334 975.804 408.078 1161.79 394.736 1325.63 C 391.182 1369.28 402.874 1668.71 495.77 1601.61 C 508.567 1590.4 519.324 1574.18 528.472 1560.49 C 600.748 1452.34 650.818 1460.52 756.356 1432.03 C 848.57 1403.38 840.722 1325.71 834.082 1252.05 C 825.935 1161.69 818.72 1096.98 826.635 1005.04 C 832.688 914.473 860.154 806.545 790.899 728.745 C 778.767 715.117 760.56 699.338 741.238 701.374 z M 1305.03 701.374 C 1243.82 713.33 1213.99 796.204 1210.24 850.623 C 1204.88 928.547 1229.56 1006.16 1229.18 1084.68 C 1228.98 1127.27 1224.22 1170.14 1220.36 1212.66 C 1213.55 1287.58 1184.98 1368.57 1262.59 1417.87 C 1319.35 1453.93 1383.34 1435.77 1451.67 1485.67 C 1495.31 1517.53 1514.03 1560.65 1553.39 1597.77 C 1608.31 1640.74 1620.47 1569.61 1631.09 1527.72 C 1673.62 1356.14 1641.55 1112.87 1568.76 953.081 C 1533.99 876.737 1477.17 801.443 1411.12 750.263 C 1389.27 733.326 1332.3 699.67 1305.03 701.374 z" fill="rgb(196,147,90)" transform="translate(0,0)"></path>
<path d="M 728.006 1048.76 C 747.825 977.054 745.899 892.029 725.971 820.942 C 720.344 800.869 717.996 789.415 739.633 781.223 C 767.937 778.46 771.891 820.481 775.578 840.884 C 798.165 965.896 776.33 1068.19 729.664 1182.04 C 715.958 1215.48 780.921 1289.72 773.065 1315.88 C 767.2 1332.62 743.126 1334.89 734.019 1319.28 C 719.819 1294.94 709.713 1267.44 698.458 1241.52 C 686.142 1262.21 633.893 1341.25 612.398 1346.85 C 595.12 1351.36 580.505 1332.06 588.982 1316.71 C 599.845 1297.03 634.673 1260.81 651.218 1235.65 C 683.907 1182.68 698.099 1150.92 717.509 1092.92 C 630.163 1078.93 574.34 1139.56 514.579 1186.44 C 497.776 1199.62 449.471 1187.05 513.664 1129.92 C 577.339 1073.26 642.68 1042.32 728.006 1048.76 z" fill="rgb(196,147,90)" transform="translate(0,0)"></path>
<path d="M 1320.26 1184.86 C 1264.37 1084.89 1249.84 927.558 1275.81 817.495 C 1280.28 798.552 1281.71 785.445 1302.75 781.223 C 1338.1 780.44 1314.39 835.054 1311.45 852.341 C 1302.39 905.644 1300.82 999.441 1320.26 1048.76 C 1417.06 1045.32 1491.14 1083.38 1555.23 1152.97 C 1569.58 1168.54 1566.7 1190.58 1543.92 1193.38 C 1521.15 1195.92 1462.93 1087.77 1329.93 1092.92 C 1345.16 1144.24 1371.15 1188.93 1396.07 1235.65 C 1396.64 1236 1459.45 1315.47 1461.12 1318.48 C 1468.83 1332.44 1450.74 1349.02 1436.82 1347.19 C 1411.16 1343.82 1370.33 1267.01 1351.3 1242.82 L 1350.27 1241.52 C 1343.44 1262.04 1320.75 1315 1302.75 1326.73 C 1249.39 1333.61 1285.77 1283.79 1292.83 1268.73 C 1305.69 1241.33 1312.93 1214.11 1320.26 1184.86 z" fill="rgb(196,147,90)" transform="translate(0,0)"></path>
<metadata><recraft-signature>{"signed_by": "recraft", "signature_b64": "Omf93Mc9J6Y5SojSzXZssdIa0Uyr9NfIp8bw5uiwYX5K96nKQ8PFm3a8ifk+qTPfiEt4FASc0h3Zt2RHS7jVAw==", "signing_algo": "Ed25519", "generation_timestamp": 1776387089, "identifier": "58b982fa-2c87-46c0-8b99-1de281583b62"}</recraft-signature></metadata></svg>