<svg xmlns="http://www.w3.org/2000/svg" height="512" preserveAspectRatio="none" style="display: block;" version="1.1" viewBox="0 0 2048 2048" width="512">
<rect width="2048" height="2048" fill="#1A110E"/>
<path d="M 820.9 931.97 C 933.837 866.143 958.939 727.16 958.882 607.739 L 958.883 482.797 C 958.834 458.802 949.847 419.923 974.56 410.984 C 985.636 411.778 989.502 415.371 996.687 423.069 C 999.255 439.649 999.048 465.156 999.038 481.909 L 999.047 625.38 C 999.057 731.436 971.451 847.528 894.198 924.367 C 858.812 959.564 790.103 997.256 764.231 1032.85 C 771.25 1050.7 776.126 1071.41 780.893 1090.06 C 843.945 995.837 942.151 963.403 997.406 857.376 C 1025.17 804.109 1036.26 840.646 1055.37 867.457 C 1117 966.436 1221.77 1008.03 1266.11 1090.06 C 1270.92 1070.19 1277.12 1052.37 1283.01 1032.85 C 1271.25 1016.46 1237.57 988.344 1220.55 977.016 C 1046.74 861.341 1049.79 711.433 1047.07 523.931 C 1046.83 507.397 1034.78 388.253 1077.22 414.178 C 1091.01 422.595 1087.32 441.931 1087.25 455.635 L 1087.18 591.66 C 1087.26 721.037 1108.11 855.111 1227.2 931.97 C 1227.57 878.94 1227.6 837.367 1217.53 784.712 C 1209 729.973 1184.09 671.457 1208.97 617.157 C 1269.27 485.563 1410.03 507.147 1499.57 590.437 C 1655.72 735.686 1728.71 961.156 1744.11 1167.99 C 1754.01 1301.06 1725.32 1483.64 1635.8 1585.49 C 1591.87 1632.19 1531.83 1654.34 1474.14 1616.85 C 1376.56 1617.9 1256.8 1585.59 1205.74 1494.91 C 1148.11 1392.57 1185.89 1270.21 1188.95 1160.35 C 1189.78 1130.61 1191.22 1091.77 1199.09 1063.43 C 1125.96 997.809 1084.85 984.579 1023.75 892.475 C 964.144 980.266 924.366 999.135 850.507 1063.43 C 854.785 1115.63 858.601 1175.55 864.741 1226.45 C 877.314 1330.68 893.967 1448.92 815.169 1533.42 C 751.807 1601.36 666.087 1608.23 581.041 1616.26 C 555.883 1624.06 542.635 1637.14 513.721 1636.99 C 364.203 1636.24 306.715 1361.26 302.814 1249 C 297.103 1035.36 368.656 772.876 519.196 618.343 C 567.162 570.373 633.232 523.742 703.243 523.08 C 763.33 522.513 819.843 562.792 841.507 618.096 C 866.094 680.862 836.371 740.066 827.285 802.877 C 820.626 848.905 820.85 885.444 820.9 931.97 z M 696.525 563.387 C 626.436 570.589 560.641 627.459 517.518 680.45 C 375.728 854.689 303.364 1173.16 363.161 1394.58 C 379.625 1455.55 415.252 1538.7 465.269 1578.73 C 502.32 1608.38 545.188 1598.35 573.863 1562.32 C 611.849 1514.58 614.228 1446.71 652.14 1398.83 C 673.036 1372.43 702.317 1353.88 727.328 1331.7 C 790.729 1269.08 758.98 1177.97 742.765 1101.75 C 739.552 1086.65 734.807 1065.54 727.328 1052.45 C 675.755 1053.41 611.156 1092.31 586.1 1139.32 C 567.996 1173.28 504.945 1135.95 603.368 1058.87 C 647.991 1023.82 677.19 1021.17 727.328 1010.01 C 699.13 979.866 666.939 960.523 626.538 951.401 C 611.539 948.015 588.544 950.402 589.149 928.994 C 590.829 869.521 729.245 949.779 754.996 981.05 L 757.072 983.603 C 766.55 973.635 774.44 968.713 785.863 961.134 C 775.913 889.466 780.897 819.03 796.879 748.849 C 801.349 729.219 808.253 706.937 810.675 687.242 C 818.656 622.346 764.222 556.602 696.525 563.387 z M 1340.14 563.387 C 1273.81 570.832 1229.98 624.943 1238.65 692.385 C 1242.78 724.593 1253.85 755.372 1257.96 787.651 C 1268.51 854.45 1265.69 896.606 1263.6 961.134 C 1275.19 968.35 1281.37 974.087 1291.3 983.603 C 1320.97 943.994 1394.78 900.472 1445.97 907.263 C 1452.6 911.735 1456.67 915.323 1457.84 923.505 C 1462.93 959.277 1362.3 942.062 1325.67 1010.01 C 1389.27 1015.16 1476.94 1063.78 1497.25 1131.83 C 1501.04 1144.52 1474.04 1170.4 1456.39 1136.44 C 1430.42 1086.45 1376.1 1060.39 1322.6 1048.29 C 1288.95 1131.36 1248.57 1268.97 1330.34 1336.03 C 1364.34 1364.16 1382.59 1380.48 1406.7 1417.82 C 1442.38 1473.08 1442.47 1553.15 1505.28 1585.97 C 1566.35 1617.57 1616.87 1552.65 1642.36 1505.3 C 1768.46 1260.29 1694.34 901.39 1534.7 689.135 C 1492.63 633.214 1416.06 556.45 1340.14 563.387 z M 815.805 1111.4 C 805.88 1121.89 800.288 1132.74 794.478 1145.97 C 808.173 1210.17 815.096 1274.88 778.733 1333.98 C 754.418 1373.5 707.393 1390.3 684.051 1423.23 C 654.694 1464.65 642.076 1527.12 615.89 1574.21 C 620.309 1574.38 623.691 1574.58 628.133 1574.21 L 629.96 1573.66 C 646.631 1568.7 664.739 1567.02 681.481 1562.67 C 866.213 1514.58 836.254 1366.65 822.684 1217.72 C 819.551 1183.33 819.937 1147.35 816.998 1113.09 L 815.805 1111.4 z M 1232.58 1111.4 C 1227.11 1143.8 1229.69 1186.22 1226.1 1220.13 C 1216.72 1308.96 1194.6 1410.92 1250.74 1489.32 C 1287.41 1540.77 1363.08 1569.37 1424.76 1574.21 L 1429.25 1574.83 L 1430.54 1573.81 C 1429.5 1569.92 1417.12 1547.24 1414.33 1540.13 C 1371.84 1430.55 1375.01 1431.78 1291.49 1355.24 C 1235.31 1303.77 1234.62 1218.63 1253.37 1149.33 C 1249.01 1138.31 1241.9 1118.48 1232.58 1111.4 z" fill="rgb(196,147,90)" transform="translate(0,0)"></path>
<metadata><recraft-signature>{"signed_by": "recraft", "signature_b64": "v5de2evLE6mrb9rMKEG5/kdMdZojG7pQG6pv3Z8YCr7ffkEPvk60lqMm5pPahTa1WE8ohTjSSf1LDS1iVrvqDA==", "signing_algo": "Ed25519", "generation_timestamp": 1776387064, "identifier": "492772d0-1693-485d-ae2f-b5a3740cb795"}</recraft-signature></metadata></svg>