<svg xmlns="http://www.w3.org/2000/svg" height="512" preserveAspectRatio="none" style="display: block;" version="1.1" viewBox="0 0 2048 2048" width="512">
<rect width="2048" height="2048" fill="#1A110E"/>
<path d="M 1045.52 1771.72 C 622.222 1783.26 269.918 1449.05 259.139 1025.73 C 248.361 602.413 583.201 250.711 1006.54 240.695 C 1428.8 230.704 1779.41 564.507 1790.16 986.75 C 1800.91 1408.99 1467.74 1760.21 1045.52 1771.72 z M 1157.98 1035.39 C 1242.6 1081.12 1263.27 1074.52 1305.49 1172.54 L 1304.78 1173.68 C 1296.45 1187.24 1286.7 1222.5 1303.84 1233.09 C 1317.66 1233.56 1308.19 1204.77 1313.04 1198.4 C 1346.34 1193.35 1367.85 1311.57 1392.99 1321.06 C 1438.65 1338.31 1460.59 1292.59 1477.57 1260.48 C 1582.62 1061.76 1494.29 785.305 1321.33 652.607 C 1290.43 628.901 1235.38 592.98 1194.72 594.501 C 1178.62 595.104 1159.97 616.095 1164.17 633.652 C 1173.84 674.024 1224.41 665.504 1228.34 711.69 C 1232.44 743.13 1237.01 756.439 1219.44 784.343 C 1213.6 775.013 1168.51 694.53 1159.95 728.863 C 1156.72 741.841 1274.41 829.246 1128.26 927.279 C 1101.07 906.231 1072.58 863.675 1071.44 829.486 C 1069.24 763.149 1069.47 692.067 1070.25 625.737 L 1070.47 567.146 C 1070.62 551.3 1071.78 545.993 1070.19 529.61 C 1043.79 562.767 1003.77 563.398 979.51 529.61 C 975.296 580.739 979.582 648.747 979.594 701.34 L 978.831 699.065 L 977.377 699.014 C 977.925 710.763 980.276 721.437 979.722 733.704 C 976.243 810.708 993.602 865.401 920.602 927.279 C 885.262 902.985 854.129 880.095 846.558 835.759 C 835.973 773.778 887.277 748.16 885.924 727.947 C 871.367 702.137 833.9 773.675 827.384 784.343 C 812.873 770.573 813.699 750.783 814.205 732.276 C 815.324 691.313 825.361 684.934 858.327 666.91 C 892.952 644.38 894.642 605.841 851.818 595.691 C 828.591 590.186 796.62 609.979 777.424 620.914 C 565.29 741.76 475.522 1013.9 557.683 1241.25 C 565.523 1263.12 573.981 1285.72 587.317 1304.95 C 605.539 1332.88 660.762 1337.35 674.741 1302.91 C 689.071 1267.62 679.032 1219.07 730.223 1193.62 C 734.825 1204.63 743.899 1228.98 754.818 1234.07 C 775.994 1232.97 742.725 1174.91 747.615 1160.83 C 753.404 1144.16 789.281 1082.99 805.797 1075.64 C 826.985 1066.22 880.422 1040.47 898.931 1035.39 C 872.936 1079.71 871.634 1102.96 872.8 1155.46 C 874.122 1214.99 847.374 1200.12 835.537 1245.74 C 851.442 1234.89 859.716 1220.35 872.925 1208.75 C 877.624 1228.78 885.055 1267.63 900.865 1281.88 L 902.907 1282.44 C 907.981 1277.6 893.962 1239.46 893.05 1229.48 C 891.246 1209.74 893.054 1191.92 892.49 1172.54 C 929.94 1184.1 930.861 1221.04 946.718 1218.53 C 963.142 1203.9 900.674 1154.79 895.581 1148.27 C 893.056 1105.78 926.356 1051 941.721 1011.27 C 952.688 993.398 999.796 942.934 1013.74 939.982 C 1039.74 934.48 1089.45 985.188 1102.31 1005.18 C 1124.23 1039.28 1155.12 1105.79 1156.5 1148.27 C 1143.32 1158.14 1083.99 1199.74 1099.6 1219.9 C 1111.58 1223.79 1118.71 1178.36 1156.5 1172.54 C 1154.43 1195.91 1158.11 1212.89 1154.74 1236.83 C 1152.94 1249.55 1141.4 1274.43 1142.95 1280.49 C 1161.5 1295.94 1171.79 1209.62 1173.14 1204.64 C 1181.78 1214.19 1202.3 1239.1 1212.48 1243.62 L 1214.32 1243.21 C 1214.97 1234.86 1197.21 1217.41 1192.13 1209.3 C 1172.53 1178.03 1185.66 1094.63 1157.98 1035.39 z" fill="rgb(196,147,90)" transform="translate(0,0)"></path>
<path d="M 1263.17 748.082 C 1257.83 736.244 1244.6 694.154 1263.17 689.128 C 1292.56 686.453 1322.78 708.536 1284.4 735.257 C 1276.82 740.227 1271.16 743.907 1263.17 748.082 z" fill="rgb(196,147,90)" transform="translate(0,0)"></path>
<path d="M 772.518 741.463 C 749.679 720.928 738.691 701.152 775.662 689.128 C 801.362 687.167 787.976 732.893 784.999 748.082 C 779.265 745.656 777.811 744.919 772.518 741.463 z" fill="rgb(196,147,90)" transform="translate(0,0)"></path>
<path d="M 1232.03 864.118 C 1224.27 858.053 1243.33 794.532 1258.28 784.753 C 1278.64 771.429 1293.69 762.173 1317.2 754.389 L 1317.9 754.614 C 1319.13 822.597 1307.75 862.337 1232.03 864.118 z" fill="rgb(196,147,90)" transform="translate(0,0)"></path>
<path d="M 816.735 864.118 C 736.619 863.327 732.601 822.896 725.095 754.389 C 797.91 783.186 812.531 782.607 816.735 864.118 z" fill="rgb(196,147,90)" transform="translate(0,0)"></path>
<path d="M 1319.49 867.839 C 1332.22 858.44 1346.84 851.412 1362.81 851.351 C 1404.41 838.572 1409.01 898.037 1355.77 884.062 C 1344.46 879.396 1329.79 873.859 1319.49 867.839 z" fill="rgb(196,147,90)" transform="translate(0,0)"></path>
<path d="M 637.91 859.025 C 659.084 859.412 678.055 855.226 698.671 851.351 C 764.289 843.003 695.695 901.893 673.594 888.418 C 657.621 880.763 648.816 872.64 637.91 859.025 z" fill="rgb(196,147,90)" transform="translate(0,0)"></path>
<path d="M 1156.5 957.371 C 1181.94 922.883 1230.83 890.505 1273.74 888.418 C 1334.13 880.308 1438.46 944.553 1464.15 994.968 C 1412.6 960.136 1376.74 1010.97 1325.74 1001.24 C 1327.75 996.05 1349.69 957.694 1331.06 966.179 C 1293.12 1007.53 1319.06 1039.78 1254.49 1046.21 C 1240.79 1037.81 1155.77 971.209 1156.5 957.371 z" fill="rgb(196,147,90)" transform="translate(0,0)"></path>
<path d="M 725.095 979.609 C 721.293 977.048 702.999 959.708 699.648 962.953 C 688.283 973.96 727.625 997.261 714.297 1007.19 C 688.801 1011.63 655.881 983.86 628.195 986.209 C 618.712 987.014 586.385 990.167 583.212 979.979 C 583.506 943.071 721.572 891.784 753.743 888.418 C 798.083 886.205 886.538 915.304 892.49 966.179 C 868.936 991.501 825.185 1020.6 796.969 1042.79 C 740.241 1047.88 746.321 1022.89 725.095 979.609 z" fill="rgb(196,147,90)" transform="translate(0,0)"></path>
<path d="M 718.489 1048.76 C 683.339 1064.59 642.88 1052.79 644.313 1011.47 C 663.729 1011.18 716.945 1028.45 730.223 1039.13 C 725.974 1043.19 723.122 1045.32 718.489 1048.76 z" fill="rgb(196,147,90)" transform="translate(0,0)"></path>
<path d="M 1325.74 1046.21 C 1268.3 1028.03 1392.46 1012.59 1401.76 1011.47 L 1403.59 1011.27 C 1405.08 1014.4 1397.73 1028.03 1396.76 1032.62 C 1389.2 1068.32 1350.9 1053 1325.74 1046.21 z" fill="rgb(196,147,90)" transform="translate(0,0)"></path>
<path d="M 1157.98 1035.39 L 1156.5 1035.39 L 1157.98 1035.39 z" fill="rgb(196,147,90)" transform="translate(0,0)"></path>
<path d="M 626.417 1135.14 C 579.119 1114.79 578.433 1107.34 624.59 1101.5 C 664.485 1096.45 700.055 1078.57 739.744 1073.49 C 748.807 1072.53 759.114 1072.83 768.195 1073.49 C 741.192 1138.12 692.82 1158.41 626.417 1135.14 z" fill="rgb(196,147,90)" transform="translate(0,0)"></path>
<path d="M 1280.61 1073.49 C 1285.19 1073.6 1290.13 1073.49 1294.74 1073.49 C 1331.17 1072.84 1359 1085.88 1393.47 1096.51 C 1412.65 1102.43 1478.06 1107.75 1426.79 1135.14 C 1375.61 1156.39 1295.54 1134.74 1280.61 1073.49 z" fill="rgb(196,147,90)" transform="translate(0,0)"></path>
<path d="M 1414.9 1256.3 C 1412.13 1254.4 1406.52 1246.6 1404.29 1243.52 C 1384.68 1216.41 1337.16 1186.48 1331.06 1160.27 C 1385.48 1167.24 1409.44 1204.53 1414.9 1256.3 z" fill="rgb(196,147,90)" transform="translate(0,0)"></path>
<path d="M 632.323 1242.73 C 625.683 1231.84 635.493 1208.28 640.76 1197.64 C 656.515 1165.81 687.827 1169.6 717.015 1160.72 L 718.489 1160.27 L 719.281 1160.42 C 716.244 1171.22 651.863 1231.92 632.323 1242.73 z" fill="rgb(196,147,90)" transform="translate(0,0)"></path>
<metadata><recraft-signature>{"signed_by": "recraft", "signature_b64": "MurDKS7uKiHSMtIaIaV4c7uUMJrZzHkKhMZfSGvCleu01AZ3wTz9N/SJhntaRVgHIIy0VgVMO2ltpVdMmhGCCg==", "signing_algo": "Ed25519", "generation_timestamp": 1776387090, "identifier": "7ce8a397-31ea-48ff-838c-6534890bb645"}</recraft-signature></metadata></svg>