<svg xmlns="http://www.w3.org/2000/svg" height="512" preserveAspectRatio="none" style="display: block;" version="1.1" viewBox="0 0 2048 2048" width="512">
<rect width="2048" height="2048" fill="#1A110E"/>
<path d="M 913.873 853.083 C 966.433 803.522 956.78 734.262 956.767 668.452 L 956.787 508.249 C 956.699 480.924 947.088 445.602 973.177 434.092 C 1006.75 430.571 999.372 472.213 999.386 493.793 L 999.151 760.326 C 998.726 831.184 960.782 869.776 913.873 914.28 L 913.873 978.159 C 951.27 952.606 989.481 914.74 1002.31 869.341 C 1006.56 854.316 1017.51 829.827 1039.15 851.581 C 1041.72 854.156 1045.86 871.258 1047.71 876.289 C 1063.31 918.583 1097.39 954.223 1134.98 978.159 C 1135.42 957.529 1134.99 935.045 1134.98 914.28 C 1056.73 853.251 1049.04 802.964 1048.99 711.919 L 1049.1 462.486 C 1050.96 418.656 1088.72 433.282 1090.66 449.244 C 1093.34 471.355 1092.02 495.602 1092.01 518.292 L 1091.98 662.825 C 1091.98 743.6 1080.49 789.475 1134.98 857.308 C 1135.04 815.366 1130.33 767.114 1144.89 728.203 C 1171.99 655.812 1253.85 611.473 1327.75 643.388 C 1411.16 679.407 1480.41 756.552 1536.04 826.465 C 1664.55 987.962 1737.31 1240.51 1722.92 1442.7 C 1717.31 1521.47 1699.98 1608.47 1598.6 1610.45 C 1545.72 1610.41 1363.44 1556.87 1317 1538.84 C 1255.3 1512.99 1217.5 1480.58 1179.86 1425.76 C 1127.51 1349.52 1134.97 1280.13 1134.97 1193.36 L 1134.98 1028.52 C 1084.52 996.451 1056.15 978.511 1024.31 924.417 C 981.557 987.857 971.756 987.968 913.873 1028.52 L 913.89 1190.29 C 913.896 1236.8 917.831 1306.11 905.554 1348.69 C 883.829 1424.02 822.608 1501.24 750.506 1532.6 C 681.222 1562.74 586.353 1580.38 512.331 1598.01 C 456.64 1611.27 415.559 1621.64 369.305 1577.33 C 326.42 1536.25 323.917 1448.39 323.789 1393 C 323.239 1155.03 416.112 912.481 583.767 742.341 C 658.114 666.892 772.063 580.401 867.36 674.676 C 921.685 729.714 913.989 783.968 913.873 853.083 z M 764.713 676.438 C 696.25 683.702 602.085 781.178 560.619 832.798 C 423.613 1003.35 347.076 1244.47 370.845 1462.94 C 376.152 1505.12 391.237 1576.29 450.711 1566.06 C 517.5 1554.53 680.959 1520.81 741.166 1489.04 C 837.103 1438.42 870.649 1353.88 870.62 1252.88 L 870.557 945.134 C 821.453 980.019 737.774 1108.76 730.059 1155.85 C 720.985 1211.22 729.792 1270.66 751.978 1321.93 C 757.379 1334.41 769.42 1352.07 771.124 1364.97 C 772.759 1377.35 759.429 1390.56 746.977 1388.63 C 726.413 1385.44 717.039 1349.05 710.367 1333.26 C 701.383 1311.26 692.515 1280.75 689.467 1256.71 C 655.989 1329.71 623.517 1389.51 550.772 1431.71 C 533.207 1441.9 470.288 1487.1 458.41 1453.07 C 453.137 1437.96 459.8 1428.78 473.627 1423.95 C 599.054 1372.37 647.032 1274.22 678.328 1147.24 C 602.135 1146.25 555.998 1167.93 504.777 1228.04 C 494.602 1239.98 483.788 1264.01 465.432 1259.18 C 435.297 1251.24 456.89 1218.48 469.494 1204.52 C 501.268 1164.61 538.967 1132.72 587.239 1115.21 C 629.495 1098.89 660.829 1106.57 702.076 1104.04 C 728.914 1052.45 758.346 1004.66 793.292 958.231 C 721.905 934.268 664.128 940.055 600.967 987.113 C 565.985 1013.18 534.793 980.441 585.844 945.476 C 661.86 890.619 742.982 893.186 826.7 924.417 C 841.455 910.45 853.838 901.814 870.557 890.517 L 870.638 823.8 C 870.657 808.726 870.727 793.586 870.199 778.517 C 868.459 728.798 818.941 669.063 764.713 676.438 z M 1273.06 676.438 C 1189.86 682.467 1177.84 754.599 1178.18 821.603 L 1178.23 890.517 C 1195.67 897.434 1213.45 910.58 1226.07 924.417 C 1345.51 851.458 1565.75 974.58 1470.1 1001.62 C 1455.59 995.971 1441.53 982.056 1427.67 973.778 C 1378.94 944.679 1308.53 934.079 1255.85 958.231 C 1289.39 999.649 1321.76 1056.97 1345.53 1104.04 C 1433.02 1103.81 1498.55 1121.91 1562.7 1187.88 C 1574.27 1199.78 1598.54 1222.51 1600.09 1239.31 C 1601.4 1253.48 1578.53 1265.08 1567.67 1255.77 C 1505.79 1197.96 1468.87 1144.37 1368.08 1147.24 L 1368.38 1148.86 C 1389.61 1259.93 1447.87 1360.95 1551.87 1412.94 C 1563.71 1418.86 1588.6 1425.49 1591.25 1440.87 C 1603.67 1513.03 1475.16 1416.53 1461.36 1404.86 C 1415.14 1365.8 1381.26 1319.35 1358.62 1263.26 C 1353.2 1287.53 1345.84 1316.48 1335.55 1339.25 C 1330.19 1350.76 1314.98 1384 1303.73 1384.41 C 1253.72 1386.21 1287.87 1340.72 1292.63 1329.95 C 1318.91 1270.42 1329.17 1210.29 1313.43 1146.76 C 1300.81 1097.27 1240.28 1004.93 1208.12 966.941 C 1201.84 959.521 1186.75 951.72 1178.23 947.386 L 1178.21 1231.05 C 1178.21 1267.96 1176.94 1303.55 1187.23 1339.63 C 1232.82 1499.38 1395.61 1523 1534.76 1554.01 C 1578.15 1562.37 1613.61 1582.22 1650.36 1545.2 C 1671.04 1524.37 1673.28 1498.86 1676.79 1471.32 C 1708.98 1218.4 1605.15 941.928 1424.37 765.156 C 1387.17 728.771 1326.37 675.892 1273.06 676.438 z" fill="rgb(196,147,90)" transform="translate(0,0)"></path>
<metadata><recraft-signature>{"signed_by": "recraft", "signature_b64": "qrxL6WLw+CF3cAj6c2Emno0l+tiLFlT0sjd0pkasxAXaMHKMqtgWd/zIXzkBfpl2mJe4BjT9XfLOGw3ZA4SLBQ==", "signing_algo": "Ed25519", "generation_timestamp": 1776387065, "identifier": "fb6f869e-db2f-4315-a2a6-ec8ffee610e8"}</recraft-signature></metadata></svg>