<svg xmlns="http://www.w3.org/2000/svg" height="512" preserveAspectRatio="none" style="display: block;" version="1.1" viewBox="0 0 2048 2048" width="512">
<rect width="2048" height="2048" fill="#F4F0E8"/>
<path d="M 858.022 946.009 C 937.829 888.155 971.024 841.834 971.01 746.241 L 970.988 367.971 C 971.021 342.342 962.634 306.626 997.565 303.957 C 1097.25 304.329 1075.84 308.841 1075.83 411.824 L 1075.78 750.371 C 1075.78 764.974 1075.12 787.544 1077.68 801.301 C 1096.05 881.796 1173.04 935.883 1235.6 981.652 C 1274.81 1010.33 1329.99 956.532 1300.81 915.154 C 1278.18 883.063 1217.09 852.119 1187.98 815.764 C 1183.9 747.138 1177.9 617.977 1222.99 570.946 C 1312.07 478.037 1435.3 553.848 1508.59 624.548 C 1703.68 813.336 1800.21 1088.95 1810.3 1356.44 C 1814.17 1458.77 1812.95 1665.82 1692.66 1700.05 C 1647.47 1712.9 1575.93 1697.33 1531.25 1684.56 C 1371.4 1638.87 1207.4 1539.49 1193.3 1356.96 C 1183.8 1232.44 1219.6 1127.65 1117.3 1028.86 C 1086.96 1001.85 1045.2 967.597 1024.34 932.619 C 981.442 989.001 912.129 1034.24 884.588 1091.17 C 848.381 1164 860.646 1245.49 857.702 1323.69 C 849.716 1535.83 677.957 1638.88 491.25 1690.43 C 431.716 1706.87 356.298 1722.11 307.888 1672.27 C 199.727 1558.31 237.888 1262.02 270.745 1123.38 C 312.942 945.34 392.916 774.159 520.903 641.566 C 594.681 565.134 722.319 473.579 819.206 567.689 C 868.711 615.812 858.068 683.825 858.003 746.495 L 858.022 946.009 z" fill="rgb(196,147,90)" transform="translate(0,0)"></path>
<metadata><recraft-signature>{"signed_by": "recraft", "signature_b64": "adN2jx3fbGpg5PoUuY7TK0Heu3NXwyeybOHNFHloEgI5i8orC5DVl9rA1aS4EWIi/ItbkV701qBj0vUve1FsBg==", "signing_algo": "Ed25519", "generation_timestamp": 1776387198, "identifier": "71d9566b-2d1f-403a-9cd3-7ff84bcf486e"}</recraft-signature></metadata></svg>