<svg xmlns="http://www.w3.org/2000/svg" height="512" preserveAspectRatio="none" style="display: block;" version="1.1" viewBox="0 0 2048 2048" width="512">
<rect width="2048" height="2048" fill="#F4F0E8"/>
<path d="M 894.481 937.893 C 959.053 886.606 959.358 847.22 959.377 770.681 L 959.176 477.17 C 959.185 460.359 959.117 447.865 977.323 442.172 C 1015.48 440.497 1003.19 505.887 1003.2 534.83 L 1003.2 762.424 C 1003.16 864.35 995.903 931.553 894.481 990.442 C 893.868 1004.9 893.99 1020.05 894.481 1034.51 C 930.038 1024.62 968.443 1000.33 991.969 971.564 C 1025.49 935.404 1010.45 915.266 1055.52 970.146 C 1082.28 1002.74 1115.43 1020.24 1154.18 1034.51 C 1154.95 1021.88 1154.27 1003.37 1154.18 990.442 C 1134.58 974.507 1118.46 969.286 1099.17 948.018 C 1047.29 890.805 1045.68 839.315 1045.73 766.292 L 1045.75 684.308 C 1045.75 609.05 1044.51 530.221 1045.75 455.213 L 1046.14 454.678 C 1059.03 436.821 1084.75 437.444 1088.39 461.464 C 1089.75 470.407 1088.99 481.846 1088.91 491.163 L 1088.8 733.329 C 1088.76 813.399 1077.86 885.699 1154.18 937.893 C 1154.85 925.507 1154.26 909.234 1154.24 896.506 L 1154.13 818.114 C 1154.07 738.453 1164.21 678.814 1236.08 630.99 C 1369.31 542.341 1536.06 724.479 1600.02 824.835 C 1711.15 1002.55 1717.34 1157.53 1717.62 1354.99 L 1717.71 1424.34 C 1717.74 1447.11 1719.27 1471.24 1713.92 1493.25 C 1696.35 1565.49 1627.16 1613.35 1553.51 1601.16 C 1503.04 1592.81 1456.65 1579.14 1407.99 1567.21 C 1342.92 1550.37 1291.19 1529.56 1241.28 1481.87 C 1157.99 1402.27 1154.14 1313.87 1154.17 1210.09 L 1154.18 1079.74 C 1110.4 1072.25 1054.05 1032.73 1024.2 1000.16 C 994.022 1034.85 939.784 1071.29 894.481 1079.74 L 894.467 1209.59 C 894.487 1310.07 894.036 1389.26 817.281 1470.22 C 762.109 1528.41 710.026 1546.28 636.008 1565.42 L 569.801 1582.67 C 540.138 1590.17 504.699 1602.2 474.616 1602.67 C 392.218 1603.96 329.327 1537.3 330.683 1455.62 C 331.474 1408 329.951 1358.64 330.658 1310.87 C 322.843 1095.61 376.41 876.297 530.097 717.838 C 610.67 634.763 740.338 556.752 843.075 657.235 C 897.971 710.926 894.515 764.974 894.52 835.7 L 894.481 937.893 z M 724.914 653.373 C 664.527 655.36 591.225 714.806 551.296 758.131 C 450.097 867.939 394.577 1013.87 378.611 1161.11 C 368.796 1251.63 372.719 1364.71 373.947 1457.71 C 374.322 1486.09 384.117 1513.32 405.018 1532.71 C 452.395 1576.67 503.193 1555.74 557.508 1541.03 C 693.587 1504.17 811.779 1485.36 847.039 1318.77 C 853.011 1290.55 852.03 1255.47 852.025 1226.35 L 852.011 974.094 C 852.019 949.833 852.704 921.937 851.982 898.014 C 767.312 921.849 716.53 999.878 693.07 1079.74 C 686.196 1099.98 680.178 1121.45 673.907 1141.96 L 652.501 1210.6 C 661.313 1244.62 676.03 1283.34 692.849 1314.32 C 698.764 1325.21 714.27 1335.12 719.763 1346.57 C 728.127 1367.54 700.107 1383.3 683.171 1367.97 C 651.864 1339.63 647.034 1314.52 630.078 1280.06 C 599.523 1337.88 574.917 1377.82 508.666 1397.61 C 482.265 1405.5 456.925 1403.58 468.479 1368.63 C 471.838 1358.96 497.723 1357.94 505.52 1353.96 C 569.095 1329.92 598.94 1252.53 614.296 1190.81 C 593.13 1199.92 518.169 1224.83 505.161 1193.22 C 483.276 1140.05 624.97 1196.72 645.648 1089.92 C 592.244 1073.68 555.943 1026.46 566.978 969.924 C 570.612 951.306 596.998 948.262 609.023 969.637 C 608.827 1007.75 612.49 1036.42 656.112 1046.81 C 692.566 959.777 752.723 871.51 851.982 852.449 C 852.077 795.408 859.719 732.992 815.277 689.373 C 792.401 666.921 757.85 647.864 724.914 653.373 z M 1303.73 653.373 C 1194.86 666.951 1197.68 769.885 1197.44 852.449 C 1299.06 871.608 1353.9 958.496 1388.99 1046.81 C 1463.58 1024.75 1420.28 969.378 1449.89 958.126 C 1499.3 939.357 1491.37 1053.64 1418.41 1082.56 C 1413.07 1084.68 1406.98 1087.28 1401.63 1089.92 C 1436.06 1199.29 1527.76 1141.63 1541.03 1177.99 C 1558.27 1225.27 1454.8 1201.16 1437.09 1195.55 C 1452.94 1250.88 1483.51 1338.88 1547.82 1354.54 C 1562.56 1358.13 1580.49 1352 1586.52 1371.84 C 1590.55 1383.62 1579.96 1397.77 1569.1 1398.82 C 1495.78 1405.96 1450.01 1336.34 1420.41 1280.06 C 1362.95 1424.69 1317.09 1361.13 1329.63 1343.72 C 1339.65 1329.79 1350.53 1326.33 1360.58 1309.28 C 1378.76 1278.41 1385.51 1241.36 1401.63 1210.6 C 1376.25 1167.83 1360.75 1098.89 1344.45 1051.76 C 1320.39 986.303 1269.87 914.262 1197.44 898.014 L 1197.42 1229.66 C 1197.33 1362.09 1237.24 1473.21 1380.57 1514.7 C 1435.12 1530.64 1498.95 1547.18 1554.02 1557.71 C 1639.98 1574.16 1673.56 1506.76 1674.3 1434.4 C 1673.66 1214.9 1687.76 1050.7 1565.51 848.476 C 1520.9 774.795 1399.79 639.093 1303.73 653.373 z" fill="rgb(196,147,90)" transform="translate(0,0)"></path>
<metadata><recraft-signature>{"signed_by": "recraft", "signature_b64": "sjk9gOdlr7gQ3tZIDMn9Ohgck3PJe4LQRygOVyFrTXdqZ4Pc/KbO2+BeBB7GXWGGUbX2je+EwAJfyl2PQeZcDw==", "signing_algo": "Ed25519", "generation_timestamp": 1776387090, "identifier": "19f5e286-0abe-49fd-87df-c189f8f79bab"}</recraft-signature></metadata></svg>