<svg xmlns="http://www.w3.org/2000/svg" height="1024" preserveAspectRatio="none" style="display: block;" version="1.1" viewBox="0 0 2048 2048" width="1024">
<path d="M 0 0 L 2048 0 L 2048 2048 L 0 2048 L 0 0 z" fill="rgb(15,22,25)" transform="translate(0,0)"></path>
<path d="M 1136.82 629.664 C 1150.15 651.121 1161.51 663.546 1180.8 680.537 C 1191.34 689.82 1202.87 697.219 1213.3 705.981 C 1235.17 724.376 1250.14 749.663 1255.74 777.687 C 1262.02 809.645 1258 854.751 1227.16 873.527 C 1214.17 881.436 1195.25 883.762 1180.58 879.927 C 1166.86 876.255 1155.22 867.184 1148.31 854.783 C 1124.46 812.853 1118.1 708.143 1113.53 658.908 C 1109.57 616.249 1110.48 554.643 1120.41 513.51 C 1136.09 448.504 1207.21 422.894 1267.97 444.108 C 1412.04 494.413 1508.68 646.057 1581.65 771.742 C 1689.03 969.069 1756.87 1217.06 1759.26 1442.03 C 1759.14 1499.54 1754.49 1559.23 1738.49 1614.6 C 1729.27 1646.51 1707.85 1689.18 1676.36 1703.93 C 1574.24 1751.75 1478.48 1650.66 1393.08 1611.37 C 1334.39 1584.37 1264.83 1581.02 1209.98 1543.64 C 1078.52 1454.78 1067.89 1264.69 1111.29 1125.89 C 1130.65 1063.98 1168.71 1011.88 1132.13 949.314 C 1161.86 956.497 1200.08 990.314 1215.49 1016.49 C 1232.73 1045.75 1241.57 1084.68 1233.53 1118.23 C 1226.61 1147.11 1201.39 1167.83 1184.21 1191.03 C 1171.37 1208.38 1165.09 1219.98 1157.74 1239.86 C 1181.33 1204.03 1203.22 1181.78 1243.89 1165.68 C 1242.95 1274.62 1165.39 1276.28 1148.55 1346.52 L 1150.39 1347.18 C 1159.72 1323 1180.77 1305.6 1201.56 1291.63 C 1200.21 1309.35 1199.26 1327.1 1198.72 1344.87 C 1199.02 1348.62 1199.15 1350.33 1199.91 1354.09 C 1210.6 1313.4 1217.44 1286.6 1248.62 1256.76 C 1260 1282.78 1269.41 1310.61 1266.62 1339.43 C 1262.57 1381.11 1236.18 1417.53 1205.47 1444.38 L 1207.39 1445.44 C 1243.69 1420.33 1252.78 1406.13 1280.43 1375.21 C 1282.69 1413.95 1284.95 1452.33 1267.76 1488.86 L 1269.04 1490.79 C 1270.05 1489.39 1271.02 1487.95 1271.95 1486.5 C 1317.67 1415.07 1286.73 1298.12 1269.21 1219.57 C 1272.47 1221.13 1275.67 1222.82 1278.81 1224.61 C 1310.99 1242.84 1337.62 1273.87 1347.49 1309.85 L 1349.61 1310.19 C 1335.89 1217.56 1250.43 1217.67 1283.59 1096.36 C 1335.89 1129.67 1395.26 1184.44 1408.4 1246.89 C 1414.2 1274.43 1412.35 1307.98 1395.84 1331.29 C 1372.29 1364.53 1342.21 1365.27 1325.61 1407.65 C 1342.28 1384.92 1356.57 1376.95 1383.4 1367.69 C 1380.6 1402.51 1370.31 1441.74 1352.57 1471.75 L 1354.32 1472.35 C 1370.37 1450.66 1380.91 1432.13 1391.23 1407.1 C 1408.16 1366.05 1412.36 1341.08 1445.85 1308.52 C 1469.7 1375.02 1474.16 1442.47 1430.96 1502.17 C 1420.39 1516.78 1422.24 1552.76 1428.42 1568.97 L 1430.43 1565.06 C 1427.13 1537.7 1434.57 1513.92 1456.55 1496.75 L 1456.92 1497.68 C 1460.43 1506.25 1462.28 1514.93 1464.5 1523.92 C 1467.49 1519.26 1465.11 1514.76 1466.87 1506.77 C 1467.91 1488.48 1468.38 1475.02 1481.46 1460.55 C 1529.79 1499.06 1532.8 1553.99 1505.45 1606.57 C 1529.16 1580.86 1533.91 1558.34 1538.33 1524.24 C 1579.53 1560.22 1600.79 1587.89 1594.61 1644.7 L 1596.56 1645.34 C 1607.1 1598.37 1599.47 1579.5 1578.09 1538.38 C 1610.56 1553.08 1633.78 1556.9 1665.55 1567.46 L 1667.82 1565.83 C 1642.64 1555.61 1617.18 1543.43 1593.55 1530.87 C 1537.71 1501.16 1503.01 1458.35 1496.16 1394.42 C 1494.17 1375.81 1494.78 1357.53 1492.39 1338.86 C 1488.71 1310.14 1479.82 1284.52 1471.8 1256.97 C 1533.41 1282.43 1575.65 1324.52 1590.43 1391.13 C 1598.28 1426.48 1591.96 1429.57 1609.76 1464.41 L 1611.57 1463.27 C 1606.17 1440.96 1606.91 1409.72 1608.96 1386.38 C 1643.62 1412.94 1677.53 1434.94 1688.09 1478.72 L 1691.2 1479.12 C 1687.35 1432.91 1651.72 1407.19 1623.76 1373.07 C 1648.99 1373.02 1669.01 1371.96 1694.17 1367.63 C 1691.59 1366.04 1691.63 1366.03 1688.64 1365.12 C 1618.98 1364.55 1604.87 1333.99 1567.98 1285.16 C 1553.77 1266.35 1520.88 1243.33 1500.18 1231.12 C 1509.39 1231.03 1528.73 1229.69 1537.72 1227.86 C 1563.29 1222.65 1576.72 1218.21 1602.97 1226.2 C 1639.12 1237.2 1662.29 1251.67 1680.79 1284.34 L 1682.55 1283.67 L 1682.01 1281.76 C 1671.29 1243.54 1644.62 1227.61 1611.35 1208.98 C 1638.18 1197.11 1638.56 1191.88 1670.68 1185.4 C 1674.15 1184.16 1674.18 1184.26 1677.14 1182.04 C 1630.67 1173.8 1614.72 1194.13 1568 1198.13 C 1528.07 1202.32 1481.1 1198.67 1446.38 1176.62 C 1415.76 1157.17 1394.34 1123.49 1370.75 1096.36 C 1346.63 1068.61 1320.33 1046.08 1291.88 1023.02 C 1308.69 1022.67 1325.5 1023.33 1342.23 1024.99 C 1386.85 1029.45 1438.61 1046.71 1463.82 1085.65 C 1482.17 1113.99 1495.51 1135.93 1517.09 1162.22 C 1507.85 1142.4 1499.36 1122.23 1491.63 1101.77 C 1512.57 1113.18 1534.23 1123.2 1556.47 1131.79 L 1558.16 1129.21 C 1553.11 1123.94 1535.44 1112.76 1528.97 1108.15 C 1503.72 1090.15 1478.08 1070.28 1459.74 1045.08 C 1465.99 1044.81 1472.24 1044.67 1478.49 1044.67 C 1538.6 1044.76 1585.59 1061.6 1628.4 1104.51 C 1609.61 1075.49 1590.39 1062.3 1562.91 1042.76 C 1584.75 1039.49 1609.78 1029.95 1629.21 1019.81 C 1563.31 1035.46 1462.74 1018.99 1400.15 994.056 C 1426.88 968.507 1469.84 949.353 1506.98 956.025 C 1537.62 961.527 1550.1 968.495 1581.84 962.518 C 1578.45 960.552 1578.72 961.344 1574.49 960.428 L 1573.43 960.193 C 1553.12 957.585 1542.5 953.263 1524.96 943.19 C 1554.84 925.258 1566.68 911.575 1581.47 880.538 C 1576.87 886.922 1571.81 892.959 1566.32 898.6 C 1533.08 932.202 1487.81 935.782 1442.75 936.073 C 1451.88 911.781 1456.52 899.383 1459.88 873.56 L 1457.73 871.242 L 1458.22 869.839 C 1459.1 869.701 1459.93 869.631 1460.82 869.541 C 1468.03 870.748 1476.18 872.297 1483.35 873.104 L 1485.85 870.1 C 1463.8 864.891 1443.9 854.848 1430.35 836.141 C 1472.13 819.039 1508.59 802.121 1535.99 764.951 C 1515.23 781.754 1485.02 796.572 1458.14 799.421 C 1468.1 768.17 1472.36 743.13 1467.3 710.044 C 1463.56 738.437 1460.3 771.002 1438.98 791.95 C 1410.26 820.169 1355.39 826.289 1317.33 826.16 C 1340.67 722.959 1402.89 718.935 1445.22 640.218 C 1425.67 660.961 1407.56 674.046 1383.08 688.107 C 1383.6 678.825 1383.95 669.534 1384.13 660.24 C 1383.31 648.376 1385.42 628.356 1382.99 618.549 C 1378.2 640.07 1373.65 663.516 1365.29 683.865 C 1356.11 706.245 1344.27 713.146 1323.23 721.686 C 1322.91 693.176 1319.27 676.71 1315.39 648.942 C 1310.18 611.6 1319.01 572.463 1337.29 539.494 L 1335 538.423 C 1318.67 550.346 1304.23 589.491 1300.01 609.18 L 1267.95 547.516 C 1262.85 537.606 1256.12 523.134 1250.63 514.167 L 1248.33 514.888 C 1250.3 528.076 1254.03 539.462 1256.1 551.82 C 1228.02 539.21 1210.84 531.92 1181.57 521.861 C 1196.43 531.265 1214.19 541.467 1227.89 551.953 C 1257.37 574.639 1278.11 606.821 1286.57 643.045 C 1293.69 674.363 1293.96 717.186 1281.64 747.315 C 1259.09 719.655 1245.93 708.446 1238.58 672.598 C 1232.31 642.045 1215.99 617.401 1190.23 599.292 C 1209.72 622.63 1228 652.517 1220.49 684.079 C 1187.62 674.882 1160.84 653.03 1136.82 629.664 z" fill="rgb(198,153,86)" transform="translate(0,0)"></path>
<path d="M 1382.99 618.549 C 1382.99 618.507 1382.68 614.343 1383.98 614.326 C 1384.12 614.392 1384.27 614.459 1384.42 614.525 C 1385.47 623.526 1385.24 652.849 1384.13 660.24 C 1383.31 648.376 1385.42 628.356 1382.99 618.549 z" fill="rgb(72,55,31)" transform="translate(0,0)"></path>
<path d="M 1466.87 1506.77 C 1467.08 1514.58 1466.82 1522.13 1467.36 1529.94 L 1466.2 1531.56 C 1465.49 1529.03 1464.99 1526.49 1464.5 1523.92 C 1467.49 1519.26 1465.11 1514.76 1466.87 1506.77 z" fill="rgb(40,30,19)" transform="translate(0,0)"></path>
<path d="M 1677.14 1182.04 C 1680.11 1182.72 1683.11 1183.1 1686.06 1183.86 L 1685.56 1185.24 C 1680.07 1184.81 1676.16 1185 1670.68 1185.4 C 1674.15 1184.16 1674.18 1184.26 1677.14 1182.04 z" fill="rgb(21,18,11)" transform="translate(0,0)"></path>
<path d="M 1688.09 1478.72 L 1691.2 1479.12 C 1691.02 1484.24 1691.04 1489.7 1690.91 1494.92 C 1690.66 1493.46 1690.43 1491.94 1690.18 1490.5 L 1688.09 1478.72 z" fill="rgb(21,18,11)" transform="translate(0,0)"></path>
<path d="M 1700.88 1364.72 C 1702.5 1364.08 1712.2 1362.95 1713.41 1363.46 C 1713.45 1363.6 1713.48 1363.73 1713.52 1363.87 C 1712.25 1365.11 1702.12 1366.48 1700.02 1366.81 L 1700.88 1364.72 z" fill="rgb(106,81,45)" transform="translate(0,0)"></path>
<path d="M 1688.64 1365.12 C 1692.88 1365.06 1696.64 1364.98 1700.88 1364.72 L 1700.02 1366.81 C 1697.91 1367.16 1696.29 1367.49 1694.17 1367.63 C 1691.59 1366.04 1691.63 1366.03 1688.64 1365.12 z" fill="rgb(21,18,11)" transform="translate(0,0)"></path>
<path d="M 1573.43 960.193 C 1578.25 960.068 1582.82 960.021 1587.65 959.783 L 1588.34 961.237 C 1586.17 961.682 1583.98 962.035 1581.84 962.518 C 1578.45 960.552 1578.72 961.344 1574.49 960.428 L 1573.43 960.193 z" fill="rgb(40,30,19)" transform="translate(0,0)"></path>
<path d="M 1485.85 870.1 C 1487.94 870.535 1490 870.892 1492.11 871.263 L 1492.18 873.158 C 1489.04 873.059 1486.5 873.051 1483.35 873.104 L 1485.85 870.1 z" fill="rgb(21,18,11)" transform="translate(0,0)"></path>
<path d="M 1198.72 1344.87 C 1199.02 1348.62 1199.15 1350.33 1199.91 1354.09 C 1199.95 1356.29 1199.99 1356.09 1199.37 1358.27 L 1198.65 1358.67 L 1198.65 1359.44 C 1197.44 1356.63 1198.37 1347.96 1198.72 1344.87 z" fill="rgb(106,81,45)" transform="translate(0,0)"></path>
<path d="M 1496.02 871.333 C 1497.12 871.346 1497.03 871.314 1497.97 871.831 C 1499.36 872.009 1501.9 872.229 1503.15 872.499 C 1502.11 872.849 1493.43 873.138 1492.18 873.158 L 1492.11 871.263 C 1493.41 871.274 1494.72 871.297 1496.02 871.333 z" fill="rgb(72,55,31)" transform="translate(0,0)"></path>
<path d="M 1496.02 871.333 C 1497.12 871.346 1497.03 871.314 1497.97 871.831 C 1496.94 871.764 1496.86 871.866 1496.02 871.333 z" fill="rgb(132,100,56)" transform="translate(0,0)"></path>
<path d="M 1430.43 1565.06 C 1430.85 1567.94 1431.1 1570.65 1431.38 1573.54 L 1429.8 1574.52 C 1429.31 1572.63 1428.96 1570.8 1428.42 1568.97 L 1430.43 1565.06 z" fill="rgb(40,30,19)" transform="translate(0,0)"></path>
<path d="M 1596.56 1645.34 C 1596.04 1646.73 1594.26 1652.7 1593.49 1653.22 L 1593.38 1653.19 C 1592.47 1651.01 1593.83 1646.71 1594.61 1644.7 L 1596.56 1645.34 z" fill="rgb(72,55,31)" transform="translate(0,0)"></path>
<path d="M 1556.47 1131.79 L 1558.16 1129.21 C 1559.45 1130.12 1562.74 1132 1563.38 1133.38 C 1563.09 1134.97 1557.19 1132.07 1556.47 1131.79 z" fill="rgb(21,18,11)" transform="translate(0,0)"></path>
<path d="M 1611.57 1463.27 C 1612 1464.22 1614.12 1468.18 1613.34 1469.23 C 1611.97 1468.95 1610.36 1465.41 1609.76 1464.41 L 1611.57 1463.27 z" fill="rgb(72,55,31)" transform="translate(0,0)"></path>
<path d="M 1335 538.423 C 1336 537.387 1339.04 533.866 1340.44 533.76 C 1341.33 534.426 1337.77 538.8 1337.29 539.494 L 1335 538.423 z" fill="rgb(21,18,11)" transform="translate(0,0)"></path>
<path d="M 1667.82 1565.83 C 1669.17 1566.37 1671.54 1567.2 1672.22 1568.48 C 1671.8 1569.74 1666.34 1567.68 1665.55 1567.46 L 1667.82 1565.83 z" fill="rgb(72,55,31)" transform="translate(0,0)"></path>
<path d="M 1248.04 508.451 C 1248.87 510.371 1249.73 512.276 1250.63 514.167 L 1248.33 514.888 C 1247.76 513.259 1247.29 511.941 1246.63 510.349 L 1248.04 508.451 z" fill="rgb(21,18,11)" transform="translate(0,0)"></path>
<path d="M 1205.47 1444.38 L 1207.39 1445.44 C 1201.91 1449.53 1198.25 1449.86 1205.47 1444.38 z" fill="rgb(72,55,31)" transform="translate(0,0)"></path>
<path d="M 1267.76 1488.86 L 1269.04 1490.79 C 1268.5 1491.58 1266.92 1494.43 1265.62 1494.42 C 1264.75 1493.23 1267.19 1489.84 1267.76 1488.86 z" fill="rgb(40,30,19)" transform="translate(0,0)"></path>
<path d="M 1682.55 1283.67 C 1683.31 1285.85 1683.67 1286.85 1684.23 1289.05 L 1682.96 1289.39 C 1682.17 1287.27 1681.81 1286.37 1680.79 1284.34 L 1682.55 1283.67 z" fill="rgb(40,30,19)" transform="translate(0,0)"></path>
<path d="M 1686.06 1183.86 C 1693.06 1183.98 1692.17 1186.81 1685.56 1185.24 L 1686.06 1183.86 z" fill="rgb(132,100,56)" transform="translate(0,0)"></path>
<path d="M 1347.49 1309.85 L 1349.61 1310.19 C 1349.74 1311.05 1350.54 1314.6 1349.46 1315.19 C 1348.01 1314.65 1347.7 1310.99 1347.49 1309.85 z" fill="rgb(72,55,31)" transform="translate(0,0)"></path>
<path d="M 1246.63 510.349 C 1246.35 509.411 1244.73 505.409 1245.67 504.533 C 1245.89 504.604 1246.1 504.676 1246.32 504.75 C 1247.36 505.95 1247.63 506.967 1248.04 508.451 L 1246.63 510.349 z" fill="rgb(132,100,56)" transform="translate(0,0)"></path>
<path d="M 1587.65 959.783 C 1588.73 959.281 1591.5 958.151 1592.49 959.336 C 1592.41 960.168 1588.83 961.073 1588.34 961.237 L 1587.65 959.783 z" fill="rgb(132,100,56)" transform="translate(0,0)"></path>
<path d="M 1431.38 1573.54 C 1432.85 1577.25 1431.78 1580.29 1429.8 1574.52 L 1431.38 1573.54 z" fill="rgb(132,100,56)" transform="translate(0,0)"></path>
<path d="M 1148.55 1346.52 L 1150.39 1347.18 C 1150 1347.93 1148.69 1351.13 1147.89 1351.38 C 1146.91 1350.65 1148.27 1347.41 1148.55 1346.52 z" fill="rgb(72,55,31)" transform="translate(0,0)"></path>
<path d="M 1458.22 869.839 C 1459.1 869.701 1459.93 869.631 1460.82 869.541 L 1459.88 873.56 L 1457.73 871.242 L 1458.22 869.839 z" fill="rgb(21,18,11)" transform="translate(0,0)"></path>
<path d="M 1467.36 1529.94 C 1468.6 1533.36 1466.73 1535.32 1466.2 1531.56 L 1467.36 1529.94 z" fill="rgb(132,100,56)" transform="translate(0,0)"></path>
<path d="M 1684.23 1289.05 C 1684.34 1289.37 1685.57 1292.18 1684.38 1292.34 C 1683.37 1291.68 1683.24 1290.53 1682.96 1289.39 L 1684.23 1289.05 z" fill="rgb(132,100,56)" transform="translate(0,0)"></path>
<path d="M 1354.32 1472.35 C 1353.74 1472.99 1352.41 1475.12 1351.23 1474.74 C 1350.51 1473.85 1352.17 1472.27 1352.57 1471.75 L 1354.32 1472.35 z" fill="rgb(72,55,31)" transform="translate(0,0)"></path>
<path d="M 915.889 948.573 C 908.818 963.206 902.485 977.267 900.869 993.655 C 896.812 1034.78 935.53 1110.47 945.882 1156.78 C 968.77 1259.18 966.783 1380.91 908.664 1471.8 C 889.432 1501.88 863.187 1528.59 832.586 1547.13 C 796.752 1568.84 755.911 1579.76 715.887 1590.78 C 696.988 1595.98 677.605 1600.82 659.667 1608.87 C 640.781 1617.34 623.681 1628.8 606.199 1639.75 C 561.091 1668.01 511.586 1701.27 458.956 1712.52 C 426.412 1719.48 389.71 1717.82 361.172 1699.09 C 324.633 1675.11 310.436 1629.57 301.871 1588.87 C 259.933 1389.61 321.647 1109 396.068 923.084 C 428.176 842.87 468.711 763.641 515.995 691.287 C 578.423 595.758 682.886 463.101 800.857 438.961 C 830.809 432.832 863.907 438.89 889.468 456.03 C 915.268 473.329 927.244 498.618 933.187 528.416 C 937.852 551.809 938.931 576.604 938.649 600.441 C 938.056 650.614 923.485 820.28 897.717 857.465 C 889.244 869.872 876.177 878.392 861.406 881.139 C 823.121 887.88 797.879 862.643 792.502 826.652 C 784.693 784.84 798.995 733.626 833.728 706.69 C 863.274 683.776 880.084 672.303 903.218 640.437 L 901.167 639.515 C 878.535 660.491 855.814 675.802 826.546 686.113 C 820.445 651.381 838.307 623.854 858.868 597.743 C 836.37 613.138 815.206 643.957 809.781 670.391 C 802.423 706.242 789.518 719.072 766.514 746.618 C 750.171 702.834 754.037 648.372 774.941 606.662 C 792.313 572.001 824.801 544.842 857.987 525.738 L 856.065 524.038 C 850.462 526.904 836.627 532.031 830.17 534.75 C 816.717 540.414 804.78 546.015 791.629 552.402 C 794.707 541.462 796.804 529.083 798.974 517.837 L 796.029 515.787 C 780.223 547.415 763.807 578.735 746.79 609.729 C 741.516 577.451 728.34 547.828 701.173 528.371 L 700.034 527.565 C 749.33 581.687 725.07 657.189 720.281 721.868 C 676.111 710.52 675.613 661.705 666.767 625 C 663.732 629.23 665.988 629.649 664.756 632.23 C 664.372 632.224 663.988 632.218 663.605 632.212 C 662.746 650.096 662.971 669.026 663.34 686.971 C 643.233 674.89 616.764 653.327 601.452 635.11 C 615.518 671.585 647.552 698.008 674.613 724.887 C 704.133 754.208 722.193 786.286 730.855 826.892 C 649.02 825.65 588.103 809.484 581.765 716.163 L 580.364 716.405 C 577.596 749.447 580.341 768 590.555 799.81 C 555.749 794.251 540.452 784.488 511.801 766.622 C 541.87 803.261 575.429 818.147 618.068 837.515 C 599.288 856.647 581.558 867.376 554.396 871.381 C 554.609 874.046 561.793 873.05 564.415 873.184 C 574.188 872.997 580.941 871.502 590.231 868.731 C 590.824 868.408 591.421 868.092 592.022 867.784 C 593.048 870.111 593.424 870.629 593.768 873.079 C 592.01 876.355 592.345 878.301 591.858 882.077 C 592.734 899.041 599.799 920.436 605.083 936.745 C 555.096 934.505 512.5 932.52 476.539 893.291 C 475.307 891.944 474.087 890.585 472.881 889.215 L 470.633 890.391 C 483.297 915.183 498.223 929.268 522.502 942.952 C 506.752 952.683 495.564 957.625 476.81 959.754 C 478.638 959.996 480.453 960.196 482.289 960.363 L 482.355 960.548 C 481.266 962.005 470.079 959.383 464.823 962.647 C 508.733 971.256 536.838 947.761 578.449 956.906 C 602.105 962.104 630.112 977.388 647.762 993.87 C 585.898 1017.73 491.567 1034.66 425.841 1021.46 L 424.697 1023.29 C 446.928 1033.46 461.18 1038.12 485.49 1042.67 C 457.439 1062.27 439.763 1072.33 419.995 1103.03 C 469.726 1056.27 522.03 1042.43 588.666 1044.3 C 557.879 1082.5 521.454 1107.73 480.759 1134.76 C 505.275 1126.03 533.438 1113.67 557.024 1102.29 C 552.798 1113.05 548.36 1123.74 543.713 1134.33 C 542.109 1138.01 536.986 1149 536.215 1151.87 L 537.546 1154.3 C 557.991 1130.52 568.546 1108.26 585.738 1082.92 C 623.375 1027.46 697.989 1021.3 758.335 1021.96 C 729.67 1045.43 706.183 1063.83 681.248 1090.96 C 640.157 1135.68 618.864 1183.49 554.382 1195.04 C 527.114 1199.93 510.558 1200.36 482.156 1198.05 C 433.935 1194.13 414.017 1173.03 364.938 1183.4 L 366.908 1186.02 C 396.736 1187.38 410.47 1194.65 437.372 1207.09 C 404.168 1225.45 374.431 1243.61 365.368 1283.22 L 367.306 1284.48 C 380.945 1257.03 406.79 1239.28 435.091 1229.19 C 477.426 1214.09 500.75 1229.24 543.43 1231.2 C 498.263 1256.84 474.015 1281.21 445.497 1323.94 C 426.271 1352.75 387.265 1363.41 353.687 1364.25 C 351.738 1366.32 350.363 1365.03 347.246 1366.62 C 373.104 1371.39 397.218 1374.08 423.645 1370.79 C 393.462 1404.15 363.639 1429.33 356.778 1474.35 L 360.271 1474.53 C 367.662 1437.97 411.916 1402.66 441.881 1382.91 C 444.022 1410.51 443.013 1437.25 436.344 1464.18 L 438.387 1465.6 C 455.803 1435.45 454.824 1415.46 462.381 1383.04 C 473.54 1335.18 499.498 1296.69 542.415 1271.93 C 552.399 1266.17 564.754 1259.45 575.902 1256.02 C 568.07 1283.51 559.492 1310.77 555.34 1339.15 C 552.815 1356.41 554.367 1374.55 552.28 1391.67 C 544.471 1455.74 511.532 1500.09 454.989 1530.22 C 432.03 1542.45 410.792 1552.83 386.712 1563.34 L 387.529 1565.6 C 415.465 1557.3 442.405 1550.92 469.92 1539.96 C 448.018 1575.73 440.374 1599.97 450.273 1641.19 C 450.613 1642.6 450.964 1644.01 451.326 1645.42 L 453.208 1643.2 C 447.431 1590 469.807 1555.64 510.786 1523.97 C 511.978 1555.73 522.185 1584.47 542.812 1608.63 C 531.298 1589.01 525.515 1566.56 526.121 1543.82 C 526.837 1507 540.469 1484.48 566.285 1459.82 C 580.935 1477.43 579.703 1488.29 581.044 1510.34 C 583.551 1513.34 579.295 1513.83 583.695 1519.3 C 585.994 1512.08 588.198 1504.84 590.305 1497.57 C 605.256 1508.39 614.48 1523.3 617.524 1541.55 C 619.146 1551.69 618.768 1562.06 616.411 1572.06 L 618.478 1572.51 C 635.634 1527.52 622.55 1513.55 601.52 1476.87 C 573.806 1428.54 586.397 1359.26 602.097 1307.82 C 631.925 1337.44 643.124 1367.52 655.627 1406.62 C 664.67 1434.9 673.819 1451.79 693.575 1473.76 L 694.613 1471.17 C 670.084 1441.07 668.418 1405.25 664.893 1368.57 C 686.599 1375.77 697.694 1380.43 714.148 1396.24 L 716.822 1394.36 C 710.788 1386.2 704.936 1378.51 697.238 1371.81 C 680.55 1357.28 660.97 1346.79 648.772 1327.63 C 634.027 1304.46 633.151 1276.36 638.739 1250.2 C 652.289 1186.81 710.891 1130.27 764.22 1096.31 C 796.702 1219.94 713.546 1219.11 697.219 1302.01 L 699.781 1303.12 C 712.026 1267.72 742.799 1237.17 776.034 1221.16 C 777.214 1220.59 778.402 1220.03 779.597 1219.49 C 763.957 1285.39 744.954 1362.05 754.531 1430.48 C 757.113 1448.93 768.476 1476.3 779.215 1491.57 L 780.171 1489.89 C 762.468 1453.26 764.506 1413.64 768.323 1374.26 C 788.302 1400.99 806.039 1421.08 833.573 1440.42 L 834.767 1438.14 C 781.788 1383.75 763.958 1328.66 799.997 1258.01 C 828.81 1284.36 836.026 1311.44 846.295 1347.21 C 848.581 1343.64 847.941 1342.73 848.821 1338.52 C 849.046 1325.37 846.975 1304.29 845.884 1290.6 C 861.157 1300.77 878.305 1314.55 887.501 1330.46 C 891.426 1337.26 894.228 1343.74 898.345 1350.53 C 887.705 1307.62 872.354 1299.47 843.228 1268.58 C 816.395 1240.12 802.648 1205.16 804.549 1165.81 C 835.907 1176.33 865.209 1203.35 883.4 1230.3 L 885.347 1227.99 C 876.595 1197.83 837.444 1165.19 822.608 1138.7 C 808.136 1112.87 808.856 1079.21 817.737 1051.59 C 835.099 997.598 868.514 973.775 915.889 948.573 z" fill="rgb(198,153,86)" transform="translate(0,0)"></path>
<path d="M 356.778 1474.35 L 360.271 1474.53 C 358.263 1482 357.784 1488.93 356.978 1496.59 C 356.07 1487.5 356.356 1483.31 356.778 1474.35 z" fill="rgb(72,55,31)" transform="translate(0,0)"></path>
<path d="M 581.044 1510.34 C 583.551 1513.34 579.295 1513.83 583.695 1519.3 C 583.067 1524.16 580.408 1531.17 578.542 1535.75 C 579.989 1526.34 580.075 1519.32 581.044 1510.34 z" fill="rgb(72,55,31)" transform="translate(0,0)"></path>
<path d="M 564.415 873.184 C 561.294 873.702 543.617 875.167 542.184 872.855 C 542.296 872.746 542.408 872.637 542.521 872.527 L 542.778 872.831 C 544.081 871.722 552.048 871.525 554.396 871.381 C 554.609 874.046 561.793 873.05 564.415 873.184 z" fill="rgb(72,55,31)" transform="translate(0,0)"></path>
<path d="M 460.936 959.57 C 466.33 960.188 471.388 960.141 476.81 959.754 C 478.638 959.996 480.453 960.196 482.289 960.363 L 482.355 960.548 C 481.266 962.005 470.079 959.383 464.823 962.647 C 461.348 962.364 459.013 961.63 455.732 960.62 C 457.501 960.24 459.149 959.885 460.936 959.57 z" fill="rgb(21,18,11)" transform="translate(0,0)"></path>
<path d="M 666.205 615.065 C 666.18 618.63 666.822 621.634 666.767 625 C 663.732 629.23 665.988 629.649 664.756 632.23 C 664.372 632.224 663.988 632.218 663.605 632.212 C 663.732 627.805 664.134 623.369 663.758 619.005 C 664.588 617.701 665.403 616.387 666.205 615.065 z" fill="rgb(21,18,11)" transform="translate(0,0)"></path>
<path d="M 590.231 868.731 C 590.824 868.408 591.421 868.092 592.022 867.784 C 593.048 870.111 593.424 870.629 593.768 873.079 C 592.01 876.355 592.345 878.301 591.858 882.077 C 590.942 877.332 590.965 873.559 590.231 868.731 z" fill="rgb(21,18,11)" transform="translate(0,0)"></path>
<path d="M 340.532 1363.81 C 344.787 1364.01 349.592 1363.93 353.687 1364.25 C 351.738 1366.32 350.363 1365.03 347.246 1366.62 C 345.468 1366.43 343.693 1366.22 341.92 1365.98 L 340.532 1363.81 z" fill="rgb(21,18,11)" transform="translate(0,0)"></path>
<path d="M 846.295 1347.21 C 848.581 1343.64 847.941 1342.73 848.821 1338.52 C 849.039 1344.04 848.953 1349.45 849.178 1354.91 L 847.676 1355.05 C 847.204 1352.59 846.605 1349.65 846.295 1347.21 z" fill="rgb(21,18,11)" transform="translate(0,0)"></path>
<path d="M 796.029 515.787 C 796.599 514.488 797.189 513.197 797.798 511.916 C 799.684 507.855 801.027 504.387 803.075 500.249 C 802.295 503.549 801.493 506.661 800.763 509.981 L 798.974 517.837 L 796.029 515.787 z" fill="rgb(40,30,19)" transform="translate(0,0)"></path>
<path d="M 714.148 1396.24 L 716.822 1394.36 C 718.67 1398.46 720.863 1402.65 722.798 1406.79 C 719.766 1402.92 717.413 1399.99 714.148 1396.24 z" fill="rgb(21,18,11)" transform="translate(0,0)"></path>
<path d="M 453.208 1643.2 C 454.5 1647.9 455.28 1652.67 456.221 1657.45 L 453.985 1652.52 C 453.079 1650.52 452.206 1647.64 451.326 1645.42 L 453.208 1643.2 z" fill="rgb(72,55,31)" transform="translate(0,0)"></path>
<path d="M 834.767 1438.14 C 837.235 1440.14 839.394 1441.98 841.779 1444.07 L 838.118 1443.67 C 837.418 1443.21 837.381 1443.27 836.898 1442.65 L 833.573 1440.42 L 834.767 1438.14 z" fill="rgb(21,18,11)" transform="translate(0,0)"></path>
<path d="M 856.065 524.038 C 857.219 523.473 862.994 520.189 864.308 521.351 C 864.443 522.65 859.122 525.186 857.987 525.738 L 856.065 524.038 z" fill="rgb(106,81,45)" transform="translate(0,0)"></path>
<path d="M 883.4 1230.3 L 885.347 1227.99 C 887.149 1232.11 888.405 1236.26 889.896 1240.5 L 884.452 1231.88 C 884.101 1231.35 883.751 1230.83 883.4 1230.3 z" fill="rgb(21,18,11)" transform="translate(0,0)"></path>
<path d="M 470.633 890.391 C 470.246 889.679 466.485 883.418 467.599 882.802 C 468.139 883.025 468.423 883.363 468.788 883.826 C 470.195 885.59 471.56 887.386 472.881 889.215 L 470.633 890.391 z" fill="rgb(21,18,11)" transform="translate(0,0)"></path>
<path d="M 366.908 1186.02 C 365.616 1186.03 359.532 1186.43 358.834 1185.34 C 359.381 1183.91 363.612 1183.64 364.938 1183.4 L 366.908 1186.02 z" fill="rgb(72,55,31)" transform="translate(0,0)"></path>
<path d="M 901.167 639.515 C 902.225 638.311 905.79 633.939 907.315 633.711 L 907.472 633.811 C 907.633 634.55 907.25 635.068 906.815 635.721 C 905.709 637.362 904.508 638.937 903.218 640.437 L 901.167 639.515 z" fill="rgb(21,18,11)" transform="translate(0,0)"></path>
<path d="M 341.92 1365.98 C 333.414 1364.47 330.997 1362.16 340.532 1363.81 L 341.92 1365.98 z" fill="rgb(106,81,45)" transform="translate(0,0)"></path>
<path d="M 537.546 1154.3 C 536.714 1155.33 534.932 1157.95 533.637 1158.32 C 532.306 1157.22 535.619 1152.83 536.215 1151.87 L 537.546 1154.3 z" fill="rgb(21,18,11)" transform="translate(0,0)"></path>
<path d="M 698.818 1307.1 C 698.534 1308.49 697.559 1314.51 696.471 1315.32 C 695.806 1314.38 696.108 1310.4 696.314 1309.15 L 696.491 1308.14 L 698.818 1307.1 z" fill="rgb(106,81,45)" transform="translate(0,0)"></path>
<path d="M 384.643 1566.39 C 383.438 1566.72 377.444 1568.83 376.617 1568.12 C 376.525 1567.77 376.518 1567.94 376.636 1567.6 C 378.377 1566.19 379.453 1565.96 381.528 1565.14 L 384.643 1566.39 z" fill="rgb(106,81,45)" transform="translate(0,0)"></path>
<path d="M 780.171 1489.89 L 781.131 1491.36 C 781.764 1492.31 784.505 1495.62 783.297 1496.77 C 783.271 1496.52 783.245 1496.26 783.219 1496 L 782.027 1495.94 C 781.034 1494.5 780.074 1493.09 779.215 1491.57 L 780.171 1489.89 z" fill="rgb(72,55,31)" transform="translate(0,0)"></path>
<path d="M 841.779 1444.07 C 843.477 1445.13 844.47 1445.69 845.656 1447.28 C 844.651 1448.95 839.22 1444.42 838.118 1443.67 L 841.779 1444.07 z" fill="rgb(106,81,45)" transform="translate(0,0)"></path>
<path d="M 697.219 1302.01 L 699.781 1303.12 C 699.415 1304.47 699.129 1305.74 698.818 1307.1 L 696.491 1308.14 C 696.791 1306.1 697.034 1304.06 697.219 1302.01 z" fill="rgb(21,18,11)" transform="translate(0,0)"></path>
<path d="M 849.178 1354.91 C 851.246 1362.08 848.016 1362.56 847.783 1357.03 L 847.676 1355.05 L 849.178 1354.91 z" fill="rgb(132,100,56)" transform="translate(0,0)"></path>
<path d="M 436.344 1464.18 L 438.387 1465.6 C 437.601 1466.68 435.886 1469.83 434.642 1470.27 L 434.49 1470.18 C 434.075 1468.79 435.806 1465.54 436.344 1464.18 z" fill="rgb(40,30,19)" transform="translate(0,0)"></path>
<path d="M 694.613 1471.17 C 698.093 1474.63 699.507 1477.85 693.575 1473.76 L 694.613 1471.17 z" fill="rgb(72,55,31)" transform="translate(0,0)"></path>
<path d="M 455.732 960.62 C 455.018 960.306 453.254 959.945 453.401 959.202 C 455.042 958.442 459.229 959.235 460.936 959.57 C 459.149 959.885 457.501 960.24 455.732 960.62 z" fill="rgb(72,55,31)" transform="translate(0,0)"></path>
<path d="M 365.368 1283.22 L 367.306 1284.48 C 366.932 1285.27 365.679 1288.94 364.617 1289.16 C 363.93 1288.16 364.97 1284.49 365.368 1283.22 z" fill="rgb(40,30,19)" transform="translate(0,0)"></path>
<path d="M 616.411 1572.06 L 618.478 1572.51 C 618.25 1573.37 617.282 1576.93 616.384 1577.22 C 615.454 1576.42 616.272 1572.92 616.411 1572.06 z" fill="rgb(72,55,31)" transform="translate(0,0)"></path>
<path d="M 424.697 1023.29 C 423.897 1022.82 420.826 1021.48 420.705 1020.48 C 421.611 1019.69 425 1021.13 425.841 1021.46 L 424.697 1023.29 z" fill="rgb(72,55,31)" transform="translate(0,0)"></path>
<path d="M 663.758 619.005 L 663.836 617.723 C 663.857 617.336 663.697 612.354 664.983 612.554 C 665.81 613.281 665.87 613.981 666.205 615.065 C 665.403 616.387 664.588 617.701 663.758 619.005 z" fill="rgb(106,81,45)" transform="translate(0,0)"></path>
<path d="M 386.712 1563.34 L 387.529 1565.6 C 386.497 1565.84 385.656 1566.09 384.643 1566.39 L 381.528 1565.14 C 383.279 1564.55 384.976 1563.98 386.712 1563.34 z" fill="rgb(21,18,11)" transform="translate(0,0)"></path>
<path d="M 580.364 716.405 C 580.394 715.481 580.2 714.242 580.977 713.555 L 581.18 713.575 C 581.583 713.921 581.634 714.417 581.664 714.917 L 581.765 716.163 L 580.364 716.405 z" fill="rgb(106,81,45)" transform="translate(0,0)"></path>
<path d="M 1254.65 950.301 C 1295 886.355 1358.83 821.605 1439 860.828 C 1444.24 863.389 1454.57 865.607 1458.22 869.839 L 1457.73 871.242 C 1454.48 876.779 1449.58 889.093 1446.91 895.626 C 1413.04 978.349 1329.48 979.415 1254.65 950.301 z" fill="rgb(198,153,86)" transform="translate(0,0)"></path>
<path d="M 592.022 867.784 C 602.868 865.32 617.637 858.245 628.881 854.182 C 656.437 844.225 686.079 848.634 711.019 863.639 C 737.37 880.678 777.654 922.882 793.242 949.888 C 743.211 972.444 669.36 978.855 626.504 936.58 C 609.819 920.121 602.581 894.161 593.768 873.079 C 593.424 870.629 593.048 870.111 592.022 867.784 z" fill="rgb(198,153,86)" transform="translate(0,0)"></path>
<path d="M 1069.77 819.931 L 1070.9 820.064 C 1073.52 822.4 1075.62 828.876 1077.07 832.445 C 1063.69 845.08 1026.22 869.031 1009.76 880.019 C 988.97 880.723 975.162 877.358 956.847 867.402 C 951.103 863.176 949.782 861.911 945.001 856.672 C 951.702 848.692 958.275 840.606 964.718 832.417 C 967.206 833.603 969.748 834.671 972.337 835.617 C 1005.91 848.127 1039.03 833.848 1069.77 819.931 z" fill="rgb(198,153,86)" transform="translate(0,0)"></path>
<path d="M 1015.59 332.397 C 1029.21 330.675 1055.06 333.341 1065.56 342.855 C 1069.87 346.763 1067.96 366.658 1067.8 372.97 C 1056.34 371.925 1054.29 371.725 1043 372.87 C 1037.08 373.497 1031.22 374.607 1025.48 376.189 C 1010.71 380.419 999.447 385.71 985.415 391.448 C 985.101 383.986 983.214 347.474 987.022 342.534 C 992.873 334.943 1006.59 333.356 1015.59 332.397 z" fill="rgb(198,153,86)" transform="translate(0,0)"></path>
<path d="M 1059.13 788.036 C 1061.4 789.363 1066.19 805.441 1067.87 809.628 C 1040.79 822.624 1010.32 835.855 979.707 828.027 C 975.826 826.735 973.728 825.884 970.024 824.052 C 976.178 811.746 978.001 807.454 982.603 794.44 C 999.675 798.343 1015.14 799.885 1032.56 796.372 C 1041.71 794.63 1050.62 791.833 1059.13 788.036 z" fill="rgb(198,153,86)" transform="translate(0,0)"></path>
<path d="M 1047.95 384.412 C 1053.35 383.529 1061.6 383.64 1067.14 383.736 C 1067.11 392.683 1066.87 401.628 1066.44 410.564 C 1042 409.977 1022.56 415.447 999.819 423.971 L 986.494 430.215 C 986.111 419.985 985.915 409.748 985.903 399.511 C 1007.46 390.862 1025.16 386.912 1047.95 384.412 z" fill="rgb(198,153,86)" transform="translate(0,0)"></path>
<path d="M 1052.54 461.422 C 1056.19 461.063 1060.41 461.113 1064.13 461.053 C 1063.69 471.146 1063.12 479.871 1062.95 490.052 C 1038.5 489.858 1020.59 492.983 997.258 500.551 C 994.396 501.44 991.524 502.311 988.697 503.307 C 988.163 492.891 988.055 483.033 987.978 472.625 C 988.554 472.456 989.129 472.287 989.705 472.119 C 993.105 471.048 996.544 470.106 1000.02 469.296 L 1004.51 468.248 L 1006.49 467.816 C 1021.64 464.377 1037.09 462.791 1052.54 461.422 z" fill="rgb(198,153,86)" transform="translate(0,0)"></path>
<path d="M 1055.8 420.41 C 1059.41 419.9 1062.79 419.919 1066.43 419.801 C 1065.91 429.951 1065.14 439.706 1064.89 449.857 C 1038.09 447.902 1021.98 453.264 997.37 460.502 C 993.961 461.777 990.613 462.877 987.198 464.081 C 987.007 456.064 987.022 448.123 986.88 440.118 C 1009.2 429.621 1031.39 423.296 1055.8 420.41 z" fill="rgb(198,153,86)" transform="translate(0,0)"></path>
<path d="M 1055.74 714.235 C 1057.55 716.424 1056.45 739.179 1056.41 744.074 C 1030.83 750.582 1013.84 752.564 988.086 746.302 C 987.956 737.204 988.868 725.66 989.01 715.957 C 1012.79 724.589 1031.32 720.615 1054.9 714.447 L 1055.74 714.235 z" fill="rgb(198,153,86)" transform="translate(0,0)"></path>
<path d="M 1046.66 535.445 C 1052.15 535.084 1055.78 535.544 1061.16 536.052 C 1061.19 545.803 1060.98 555.554 1060.53 565.295 C 1037.36 564.192 1026.43 562.317 1002.63 565.728 C 998.181 566.638 993.919 567.683 989.515 568.712 C 989.472 560.582 989.537 552.651 989.392 544.5 C 1008.87 539.949 1026.73 536.945 1046.66 535.445 z" fill="rgb(198,153,86)" transform="translate(0,0)"></path>
<path d="M 1055.86 675.058 C 1058.29 676.853 1057.02 699.212 1057.01 703.728 C 1029.19 709.757 1017.95 710.942 990.202 704.185 C 988.251 701.135 989.217 681.987 989.297 677.144 C 1013.7 684.714 1032.16 683.48 1055.86 675.058 z" fill="rgb(198,153,86)" transform="translate(0,0)"></path>
<path d="M 1057.03 640.469 C 1059.02 641.848 1057.86 663.005 1057.84 666.27 C 1032.8 671.739 1017.78 672.527 993.205 666.088 C 990.773 665.182 989.337 664.378 989.331 661.568 C 989.25 654.54 989.268 647.511 989.386 640.484 C 1016.2 643.946 1030.12 643.932 1057.03 640.469 z" fill="rgb(198,153,86)" transform="translate(0,0)"></path>
<path d="M 1055.05 753.17 C 1057.51 754.558 1057.64 769.237 1058.69 774.036 L 1059.39 777.169 C 1032.34 784.52 1015.54 789.011 987.116 784.708 C 987.104 784.702 985.515 784.028 985.553 783.786 C 986.747 776.172 987.83 765.883 988.253 758.362 C 1014.23 763.335 1029.9 760.122 1055.05 753.17 z" fill="rgb(198,153,86)" transform="translate(0,0)"></path>
<path d="M 1046.59 501.402 C 1050.2 500.806 1058.78 500.899 1062.83 500.832 C 1062.76 510.03 1062.33 517.866 1061.93 527.036 C 1041.11 524.246 1025.01 527.04 1004.91 531.898 C 1000.31 533.25 993.914 534.827 989.224 535.951 C 989.113 527.816 989.195 519.767 989.055 511.611 C 1009.62 507.862 1025.17 503.855 1046.59 501.402 z" fill="rgb(198,153,86)" transform="translate(0,0)"></path>
<path d="M 939.503 862.018 C 941.488 863.934 941.744 864.706 943.406 866.599 C 956.241 881.217 973.246 888.337 991.952 890.41 L 964.435 908.672 C 960.172 911.23 956.692 913.445 952.215 915.87 C 936.785 906.989 929.188 897.059 919.055 882.653 C 926.506 875.639 932.432 869.345 939.503 862.018 z" fill="rgb(198,153,86)" transform="translate(0,0)"></path>
<path d="M 1009.12 574.415 C 1023.85 572.518 1045.19 574.423 1060.09 575.216 C 1060.05 582.835 1059.8 590.452 1059.35 598.057 C 1053.27 598.415 1047.95 598.771 1041.86 598.912 C 1024.4 599.106 1006.93 599.078 989.473 598.829 C 989.418 591.394 989.454 583.959 989.582 576.525 C 996.486 575.525 1002.25 575.047 1009.12 574.415 z" fill="rgb(198,153,86)" transform="translate(0,0)"></path>
<path d="M 1054.34 607.469 C 1054.68 607.422 1058.4 606.819 1058.53 607.601 C 1059.64 614.301 1058.99 623.116 1058.88 629.998 C 1035.08 633.788 1019.5 634.173 995.79 632.851 C 994.87 632.717 990.511 632.037 990.288 631.344 C 988.929 627.12 989.551 611.841 989.579 607.449 C 1011.27 608.23 1032.64 609.207 1054.34 607.469 z" fill="rgb(198,153,86)" transform="translate(0,0)"></path>
<path d="M 1080.7 839.795 C 1084.49 843.459 1091.18 852.329 1094.34 856.814 C 1093.76 857.961 1093.16 859.094 1092.53 860.213 C 1085.68 872.46 1077.23 882.348 1065.52 890.11 C 1059.57 894.055 1059.36 896.658 1054.33 891.945 C 1048.41 885.874 1039.58 877.454 1034.43 871.1 L 1080.7 839.795 z" fill="rgb(198,153,86)" transform="translate(0,0)"></path>
<path d="M 1103.32 866.718 C 1109.21 872.676 1114.04 877.112 1120.38 882.549 C 1115.53 896.952 1110.75 905.473 1098.67 915.407 C 1092.75 920.279 1094.62 921.22 1088.68 917.242 C 1081.16 911.65 1073.83 906.67 1066.11 901.39 C 1084.95 889.786 1090.7 884.213 1103.32 866.718 z" fill="rgb(198,153,86)" transform="translate(0,0)"></path>
<path d="M 914.78 888.024 C 916.143 889.437 919.635 899.009 922.569 903.41 C 928.777 912.718 932.435 915.441 939.89 923.241 C 933.53 928.148 927.792 931.895 921.087 936.271 C 916.333 935.714 907.987 925.644 904.594 921.681 C 887.726 901.978 901.634 898.719 914.78 888.024 z" fill="rgb(198,153,86)" transform="translate(0,0)"></path>
<path d="M 1128.89 889.568 C 1133.52 892.703 1141.72 898.494 1144.81 902.995 L 1146.69 905.779 C 1140.6 920.548 1134.22 927.083 1120.42 935.708 C 1113.87 931.82 1108.48 928.292 1101.61 924.789 C 1117.45 912.872 1122.36 908.845 1128.89 889.568 z" fill="rgb(198,153,86)" transform="translate(0,0)"></path>
<metadata><recraft-signature>{"signed_by": "recraft", "signature_b64": "Zb+e+pdP0DTwkQJ58N/J4g0BVV5WCY81J0QBCw3oj3dETlf5o8EZ0OIF+aFB/KtgMPtMcEGRgMk9SsRj6zYSAw==", "signing_algo": "Ed25519", "generation_timestamp": 1776386562, "identifier": "c2d62ef9-2a0c-4c33-823a-bd946eeb050f"}</recraft-signature></metadata></svg>