<svg xmlns="http://www.w3.org/2000/svg" height="1024" preserveAspectRatio="none" style="display: block;" version="1.1" viewBox="0 0 2048 2048" width="1024">
<defs>
	<linearGradient gradientUnits="userSpaceOnUse" id="Gradient1" x1="1430.43" x2="669.275" y1="1491.61" y2="785.728">
		<stop class="stop0" offset="0" stop-color="rgb(185,114,50)" stop-opacity="1"></stop>
		<stop class="stop1" offset="1" stop-color="rgb(226,187,132)" stop-opacity="1"></stop>
	</linearGradient>
	<linearGradient gradientUnits="userSpaceOnUse" id="Gradient2" x1="1700.84" x2="349.115" y1="1503.54" y2="544.562">
		<stop class="stop0" offset="0" stop-color="rgb(168,100,45)" stop-opacity="1"></stop>
		<stop class="stop1" offset="1" stop-color="rgb(221,181,125)" stop-opacity="1"></stop>
	</linearGradient>
</defs>
<path d="M 0 0 L 2048 0 L 2048 2048 L 0 2048 L 0 0 z" fill="rgb(254,254,254)" transform="translate(0,0)"></path>
<path d="M 1015.5 207.898 C 1054.04 194.439 1075.94 190.734 1111.45 214.011 C 1149.45 203.278 1172.13 203.876 1205.97 227.357 C 1229.32 223.261 1240.94 223.159 1263.09 231.197 C 1273.53 236.352 1285.19 244.004 1292.78 252.89 C 1329.43 247.16 1351.52 260.187 1377.12 284.81 C 1417.14 290.295 1427.73 298.622 1453.5 328.233 C 1484.18 334.069 1501.34 341.897 1519.2 368.168 C 1521.47 371.519 1523.72 374.89 1525.93 378.279 C 1551.28 386.505 1573.18 399.174 1585.81 423.757 C 1587.78 427.648 1589.49 431.661 1590.94 435.772 C 1609.85 443.557 1634.25 459.863 1641.7 479.179 C 1650.45 501.856 1646.94 497.866 1666.78 510.546 C 1683.59 521.282 1697.24 544.161 1699.52 564.563 C 1724.55 583.12 1746.64 606.78 1747.12 640.088 C 1769.54 657.636 1780.23 670.209 1783.9 699.491 C 1784.56 704.41 1784.99 709.358 1785.18 714.318 C 1809.49 743.471 1818.11 764.904 1809.24 802.475 C 1829.9 825.94 1841.44 857.276 1829.47 887.579 C 1849.71 922.434 1852.04 936.6 1840.18 975.43 C 1854.63 1006.73 1855.98 1030.94 1840.19 1062.27 C 1847.1 1088.39 1852.67 1111.51 1838.07 1136.85 C 1836.12 1140.26 1833.98 1143.56 1831.67 1146.72 C 1840.03 1184.69 1838.37 1199.96 1815.86 1231.63 C 1820.05 1266.99 1814.19 1289.94 1789.03 1315.44 C 1792.24 1351.38 1780.91 1371.98 1754.5 1394.41 C 1751.61 1434.86 1742.39 1451.29 1709.67 1474.92 L 1709.33 1475.84 C 1706.92 1482.56 1705.53 1489.13 1703.05 1496.02 C 1694.11 1520.85 1678.3 1534.9 1655.31 1547.08 C 1650.68 1569.08 1637.39 1588.28 1618.43 1600.35 C 1610.14 1605.67 1605.12 1607.21 1596.16 1610.75 C 1579.2 1645.68 1563.25 1658.8 1525.35 1668.91 C 1501.23 1706.41 1488.26 1716.62 1444.15 1724.12 C 1429.05 1756.1 1396.76 1766.76 1363.84 1768.17 C 1356.97 1773.08 1350.34 1779.85 1343.53 1785.3 C 1321.74 1802.76 1298.22 1804.2 1271.22 1802.84 C 1248.4 1822.3 1227.07 1832.11 1196.36 1829.52 C 1190.1 1828.94 1183.9 1827.86 1177.81 1826.29 C 1138.86 1848.32 1125.16 1852.65 1080.45 1836.91 C 1046.29 1854.77 1018.84 1856.06 984.216 1838.28 C 948.889 1850.83 920.749 1849.16 889.237 1827.88 C 853.544 1838.13 823.912 1832.34 795.99 1807.73 C 753.444 1810.63 743.196 1806.2 709.4 1778.97 C 675.332 1776.53 645.858 1768.73 626.834 1737.29 C 588.093 1734.13 569.175 1721.7 550.907 1687.58 C 514.866 1682.52 498.565 1664.54 482.953 1633.64 C 447.543 1620.74 433.715 1608.77 421.587 1572.68 C 389.462 1559.33 375.41 1542.68 367.927 1508.66 C 360.263 1504.99 348.623 1498.73 342.942 1492.23 C 325.465 1481.51 318.034 1453.19 317.583 1434.08 C 286.873 1408.89 277.164 1395.44 277.752 1355.17 C 250.646 1334.31 240.94 1306.39 247.093 1273.05 C 223.418 1243.02 213.903 1229.75 224.45 1189.66 C 202.568 1155.32 197.032 1140.54 212.058 1101.25 C 190.688 1074.22 193.231 1043.36 206.968 1013.79 C 195.492 976.276 193.689 961.666 212.045 926.469 C 199.507 891.761 206.18 869.645 227.292 841.58 C 225.075 814.939 223.711 793.642 239.392 770.731 C 243.384 764.898 247.645 760.39 251.397 754.734 L 251.989 753.827 C 251.384 718.624 256.22 698.671 284.43 676.454 C 288.552 642.644 293.508 619.341 324.776 600.848 C 327.89 592.981 329.383 584.322 332.047 576.484 C 341.028 550.052 353.722 539.884 376.485 526.727 C 389.349 488.205 395.381 477.969 433.012 461.813 C 435.285 456.803 437.603 451.814 439.967 446.847 C 453.987 417.66 465.567 410.358 494.71 400.168 C 512.287 368.319 532.857 349.564 569.846 344.35 C 586.43 316.157 612.098 298.943 645.34 298.689 C 671.107 267.468 692.552 260.443 732.332 262.13 C 757.98 233.86 787.747 226.205 824.556 233.496 C 849.935 208.421 883.689 202.464 916.456 215.49 C 953.423 195.471 975.446 191.393 1015.5 207.898 z" fill="url(#Gradient2)" transform="translate(0,0)"></path>
<path d="M 1070.07 282.736 C 1098.9 302.206 1122.47 303.835 1155.17 292.493 C 1182.61 314.348 1203.41 317.748 1237.36 311.108 C 1250.9 324.356 1259.71 332.001 1278.05 337.617 C 1288.89 341.73 1304.29 341.956 1315.86 341.966 C 1335.25 366.73 1353.26 375.906 1384.68 379.776 L 1389.18 380.311 C 1408.66 406.346 1424.37 416.637 1456.48 422.682 C 1467.64 449.481 1489.97 465.786 1517.91 472.393 C 1525.62 497.089 1537.43 513.4 1560.92 525.597 C 1565.04 527.698 1569.23 529.677 1573.47 531.531 C 1585.19 567.503 1592.81 572.384 1621.46 593.496 C 1628.1 625.126 1638.08 638.583 1664.8 656.204 C 1666.42 686.595 1673.17 700.652 1695.71 720.894 L 1700.66 725.297 C 1701.45 756.29 1706.63 773.044 1729.42 794.926 C 1725.92 826.191 1729.63 843.597 1749.58 869.389 C 1742.61 902.806 1744.64 918.32 1760.54 948.356 C 1747.82 978.551 1749.89 998.005 1764.05 1027.33 C 1750.54 1054.44 1746.42 1074.81 1756.22 1104.24 C 1756.84 1106.11 1757.48 1107.98 1758.12 1109.84 C 1744.17 1127.2 1739.52 1148.19 1742.03 1170.15 C 1742.72 1176.19 1743.95 1182.17 1745.7 1188 C 1730.04 1204.59 1721.55 1226.67 1722.05 1249.47 C 1722.16 1253.88 1722.62 1259.05 1723.09 1263.46 C 1697.46 1288.28 1693.48 1303.57 1692.14 1338.92 C 1667.38 1355.47 1657.78 1382.2 1655.69 1410.65 C 1633.83 1424.21 1618.98 1441.97 1613.1 1467.31 C 1612.32 1470.63 1611.65 1473.97 1611.11 1477.33 C 1583.37 1488.92 1566.83 1508.76 1559.09 1537.74 C 1525.94 1549.56 1514.2 1560.73 1498.09 1591.72 C 1457.42 1603.72 1450.22 1613.47 1427.09 1645.22 C 1388.36 1650.79 1375.06 1658.88 1350.85 1687.83 C 1316.27 1687.7 1295.58 1695.2 1271.54 1721.75 C 1228.56 1716.18 1220.2 1728.91 1187.43 1746.05 C 1157.74 1739.2 1137.7 1739.54 1111.22 1756.12 C 1108.38 1757.87 1105.63 1759.75 1102.98 1761.76 C 1079.11 1752.97 1056.18 1749.81 1032.16 1760.8 C 1027.96 1762.74 1023.81 1764.8 1019.73 1766.98 C 992.674 1750.17 961.248 1746.36 932.749 1762.32 C 907.151 1740.68 880.743 1735.71 848.793 1747.27 C 834.403 1733.29 822.171 1723.39 801.708 1720.17 C 789.706 1718.28 779.504 1720.67 767.66 1721.39 C 742.807 1695.21 731.185 1690.58 694.898 1690.93 C 672.061 1658.81 658.946 1655.24 621.556 1649.66 C 604.04 1615.73 591.812 1609.76 556.445 1600.14 C 543.41 1570.49 529.342 1556.96 497.899 1548.2 C 483.813 1508.54 481.001 1506.93 445.026 1487.22 C 442.981 1477.84 437.392 1452.62 429.654 1446.87 C 424.66 1444.7 412.401 1435.92 407.133 1432.74 C 403.612 1430.62 401.468 1425.25 397.176 1422.91 C 396.83 1415.59 393.507 1408.38 394.547 1400.76 C 388.859 1378.43 376.788 1366.53 360.103 1352.24 C 359.402 1322.81 351.802 1297.62 327.236 1279.41 C 329.024 1270.7 329.813 1259.23 329.334 1250.35 C 328.286 1231.46 319.847 1213.75 305.842 1201.03 C 306.836 1197.7 307.776 1194.35 308.661 1190.99 C 315.888 1162.89 306.441 1143.51 292.736 1120.28 C 303.231 1094.08 301.656 1065.07 287.011 1040.67 C 298.291 1017.93 301.205 986.974 288.386 964.323 C 306.673 930.977 307.34 917.805 299.965 882.107 L 301.329 880.165 C 317.361 857.23 323.153 836.638 318.13 808.223 C 342.578 780.765 345.48 770.055 348.334 733.202 C 351.996 728.817 357.607 723.791 361.672 719.014 C 378.083 699.731 380.656 685.316 383.829 661.539 C 388.51 657.255 393.404 653.944 398.294 649.171 C 415.584 632.291 421.72 613.529 428.605 591.329 C 454.189 578.137 470.273 557.074 476.644 529.094 L 479.538 527.895 C 508.621 515.707 519.753 501.975 531.655 472.778 C 536.133 471.332 540.595 469.837 545.041 468.294 C 568.52 459.982 582.756 445.172 593.392 423.037 L 595.582 422.652 C 630.598 416.419 642.369 407.72 662.2 379.236 C 692.005 379.433 717.433 364.691 735.499 341.742 C 771.282 343.002 786.163 337.801 812.88 313.377 C 851.97 319.187 869.072 313.096 900.956 292.219 C 902.714 292.822 904.482 293.398 906.258 293.948 C 937.101 303.617 958.706 298.839 986.75 284.148 C 990.103 285.764 993.537 287.206 997.039 288.468 C 1022.73 297.855 1046.04 293.807 1070.07 282.736 z" fill="rgb(254,254,254)" transform="translate(0,0)"></path>
<path d="M 394.547 1400.76 C 396.6 1407.12 397.873 1415.05 398.473 1421.72 C 411.282 1429.14 421.33 1434.09 429.654 1446.87 C 424.66 1444.7 412.401 1435.92 407.133 1432.74 C 403.612 1430.62 401.468 1425.25 397.176 1422.91 C 396.83 1415.59 393.507 1408.38 394.547 1400.76 z" fill="rgb(196,147,90)" transform="translate(0,0)"></path>
<path d="M 405.594 1299.35 C 404.847 1298.14 403.928 1296.71 403.358 1295.4 C 324.136 1113.89 330.399 899.546 418.262 722.559 C 486.221 587.731 596.262 478.72 731.721 412.031 C 844.668 356.158 971.26 333.817 1096.51 347.654 C 1113.32 349.589 1148.69 354.403 1164.57 359.71 C 1200.04 365.705 1247.86 382.231 1280.99 396.105 C 1381.42 437.523 1470.18 502.91 1539.5 586.549 C 1668.83 741.597 1725.7 935.311 1691.4 1135.44 C 1661.52 1316.14 1559.8 1477.05 1409.39 1581.56 C 1262.75 1684.86 1080.98 1725.46 904.328 1694.36 C 869.887 1688.38 830.087 1676.73 797.213 1664.69 C 663.267 1615.65 547.807 1526.31 466.718 1408.96 C 448.791 1383.46 433.505 1357.01 419.904 1329 C 415.227 1319.37 409.528 1309.25 405.594 1299.35 z" fill="rgb(196,147,90)" transform="translate(0,0)"></path>
<path d="M 424.501 1287.96 C 325.062 1061.48 361.632 798.308 519.053 607.52 C 676.474 416.732 927.915 330.85 1169.16 385.47 C 1470.26 453.642 1682.93 722.738 1679.67 1031.44 C 1676.42 1340.14 1458.13 1604.7 1155.67 1666.52 C 853.199 1728.33 548.613 1570.64 424.501 1287.96 z" fill="rgb(254,254,254)" transform="translate(0,0)"></path>
<path d="M 938.216 817.062 C 972.61 785.358 985.325 758.096 986.064 712.316 C 987.352 632.439 976.34 555.516 958.912 477.956 C 953.64 454.491 1019.63 454.05 1032.17 456 C 1080.4 462.397 1082.81 463.582 1073.2 507.776 C 1056.47 584.741 1052.05 669.583 1061.34 747.644 C 1064.3 772.572 1086.17 800.398 1103.89 817.547 C 1107.21 797.924 1108.83 775.945 1111.13 755.975 C 1114.68 725.834 1119.08 695.8 1124.33 665.909 C 1127.06 651.089 1130.62 630.725 1136.81 617.613 C 1149.93 589.934 1181.56 572.774 1211.93 580.303 C 1285.9 598.639 1347.57 664.935 1389.61 725.276 C 1462.24 829.518 1508.04 952.049 1530.62 1076.52 C 1545.13 1153.33 1548.98 1236.33 1534.71 1313.53 C 1524.83 1367.01 1489.92 1481.48 1417.07 1462.69 C 1345.23 1444.16 1282.78 1388.44 1218.13 1354.61 C 1205.39 1347.83 1192.32 1341.69 1178.97 1336.22 C 1159.34 1328.28 1141.18 1322.59 1123.05 1311.27 C 1111.32 1303.85 1101.32 1294 1093.73 1282.39 C 1084.47 1268.09 1078.51 1251.92 1076.29 1235.03 C 1072.47 1206.32 1076.03 1170.52 1077.28 1140.85 L 1086.16 964.322 C 1087.13 942.364 1089.36 911.842 1089.06 890.313 C 1064.69 871.164 1045.06 850.94 1022.86 829.458 C 1004.44 848.216 977.478 874.114 957.5 890.834 C 957.146 914.082 959.996 947.23 961.343 971.062 L 971.212 1131.35 C 973.367 1166.25 979.24 1211.7 971.979 1244.69 C 960.303 1297.75 920.385 1319.64 873.093 1335.42 C 829.534 1349.95 788.515 1378.63 751.13 1404.56 C 729.586 1419.93 706.417 1431.69 683.215 1443.28 C 642.937 1463.41 600.205 1474.42 566.441 1436.11 C 515.529 1378.34 509.143 1275.02 510.76 1201.85 C 512.464 1132.31 522.119 1063.2 539.537 995.864 C 562.176 904.698 604.429 810.762 654.924 731.69 C 690.108 676.594 798.258 550.816 870.91 583.732 L 872.266 584.153 C 881.251 587.455 889.37 592.75 896.013 599.642 C 928.796 635.963 928.866 739.117 935.279 787.492 C 936.533 796.95 936.518 807.366 938.216 817.062 z" fill="url(#Gradient1)" transform="translate(0,0)"></path>
<path d="M 539.537 995.864 C 562.176 904.698 604.429 810.762 654.924 731.69 C 690.108 676.594 798.258 550.816 870.91 583.732 L 868.981 585.642 C 869.771 593.316 879.079 590.92 869.243 597.513 C 867.705 600.948 868.551 604.127 869.017 607.943 L 871.326 608.871 C 871.681 613.088 869.013 615.7 868.251 620.037 L 868.868 621.298 C 869.967 623.589 871.936 626.615 871.105 629.209 C 868.126 638.501 846.501 684.704 838.767 687.004 C 837.591 687.353 835.936 687.399 834.749 687.523 C 831.942 691.358 830.607 698.153 828.283 699.254 L 826.647 698.134 C 824.03 701.333 824.584 703.355 825.153 707.47 C 812.442 715.754 787.795 712.081 773.018 712.549 C 772.275 712.573 771.448 715.948 771.326 716.533 L 770.921 718.534 C 767.086 718.701 761.891 717.523 760.123 718.392 C 759.604 723.308 761.555 720.706 762.051 727.429 C 750.182 717.84 743.969 714.582 729.321 709.954 C 745.518 720.417 755.669 726.966 768.741 741.864 C 758.645 740.855 752.568 732.114 742.418 737.274 C 735.851 740.614 734.197 744.424 733.671 751.782 C 732.703 765.324 724.111 762.658 718.792 769.118 L 718.791 770.636 C 718.777 772.744 718.813 771.897 718.631 773.907 C 716.575 773.842 717.627 774.122 715.582 772.74 C 698.485 786.875 694.186 784.92 683.651 804.48 C 685.835 819.811 685.506 828.096 678.738 842.624 C 675.186 850.247 669.507 853.231 665.372 860.283 C 662.256 865.598 661.567 867.995 660.007 873.44 C 657.029 875.824 651.191 876.551 649.172 879.864 C 641.162 893.006 631.258 904.986 621.914 917.195 C 619.57 920.258 611.458 925.073 608.048 927.944 C 601.813 933.194 595.749 940.222 591.503 947.254 C 588.507 952.216 582.429 954.778 578.397 958.849 C 574.71 962.936 569.227 975.153 565.557 978.633 C 560.738 983.202 550.273 987.818 546.595 994.011 C 545.294 996.201 544.322 996.592 542.023 997.363 L 539.537 995.864 z" fill="rgb(196,147,90)" transform="translate(0,0)"></path>
<path d="M 729.321 709.954 C 743.969 714.582 750.182 717.84 762.051 727.429 C 774.258 738.605 789.728 754.154 798.611 767.803 C 837.114 826.965 852.858 857.583 928.847 838.043 C 913.765 856.309 899.478 867.183 883.522 883.616 C 851.233 916.872 819.444 948.931 788.785 983.707 C 759.814 1016.57 731.514 1039.97 710.441 1080.24 C 717.207 1053.12 751.245 993.365 767.307 969.065 C 732.318 972.043 704.824 980.733 676.795 1002.56 C 667.411 1009.87 658.715 1017.93 649.315 1025.08 C 691.607 963.434 732.869 959.636 795.302 942.245 C 806.988 938.99 866.091 876.3 875.428 862.899 C 859.256 858.25 838.14 853.349 821.549 851.311 C 793.293 847.84 774.778 849.093 747.489 839.075 C 773.461 839.206 805.087 839.61 830.798 838.348 C 824.077 826.73 816.248 815.838 809.25 804.335 C 796.955 784.128 784.674 759.294 768.741 741.864 C 755.669 726.966 745.518 720.417 729.321 709.954 z" fill="rgb(254,254,254)" transform="translate(0,0)"></path>
<path d="M 872.266 584.153 C 881.251 587.455 889.37 592.75 896.013 599.642 C 875.517 596.966 884.149 598.29 872.266 584.153 z" fill="rgb(196,147,90)" transform="translate(0,0)"></path>
<path d="M 1155.99 934.43 C 1164.21 936.329 1172.81 951.369 1177.9 958.197 C 1230.14 1028.27 1247.56 1138.29 1333.33 1177.14 C 1340.42 1180.36 1352.45 1185.28 1357.59 1190.12 L 1357.38 1191.47 C 1338.63 1195.7 1311.94 1177.44 1297.36 1170.94 L 1296.39 1170.51 C 1310.69 1187.2 1323.34 1200.97 1340.75 1214.67 C 1343.47 1216.81 1350.32 1222.16 1350.66 1225.28 L 1349.18 1226.35 C 1335.7 1226.06 1304.48 1196.8 1295.75 1186.52 C 1276.78 1164.18 1259.18 1140.89 1242.74 1116.68 C 1245.84 1157.18 1253.33 1199.05 1273.09 1234.78 C 1287.46 1259.94 1310.47 1281.13 1329.43 1302.87 C 1328.7 1302.61 1327.98 1302.35 1327.26 1302.07 C 1315.23 1297.39 1306.07 1290.51 1296.31 1282.34 C 1266.42 1257.33 1253.38 1232.49 1238.18 1197.99 C 1237.12 1214.92 1234.19 1262.9 1222.37 1274.22 L 1220.77 1274.06 C 1218.83 1268.77 1225.74 1237.33 1226.22 1225.03 C 1226.84 1209.4 1225.9 1121.24 1221.52 1111.51 C 1218.78 1113.69 1217.5 1119.07 1215.12 1122.84 C 1204.73 1139.27 1190.36 1156.34 1172.22 1164.27 L 1170.79 1164.88 C 1180.37 1149.03 1193.24 1135.53 1202.07 1119.03 C 1207.61 1108.67 1214.59 1092.65 1214.42 1080.8 C 1214.18 1064.86 1177.29 988.869 1168.85 969.283 C 1164.16 958.416 1159.82 947.038 1156.37 935.712 L 1155.99 934.43 z" fill="rgb(254,254,254)" transform="translate(0,0)"></path>
<path d="M 890.749 934.865 C 890.641 938.679 874.865 967.179 872.153 973.668 C 858.562 1006.01 840.68 1037.27 831.018 1071.1 C 819.061 1112.97 851.045 1134.43 868.449 1164.91 C 844.579 1154.55 832.921 1132.76 819.007 1111.75 C 818.527 1155.91 815.047 1200.91 817.758 1244.86 C 818.113 1250.62 821.789 1268.7 820.427 1273.03 L 818.888 1272.63 C 807.971 1259.87 803.72 1221.99 801.937 1204.85 C 781.678 1252.61 765.452 1275.15 717.153 1299.16 C 744.522 1271.83 760.249 1257.52 778.809 1221.41 C 793.663 1192.5 796.901 1151.62 800.418 1119.12 C 773.331 1159.21 735.423 1210.73 690.942 1231.12 C 711.227 1207.38 720.833 1205.77 739.729 1173.44 C 719.468 1186.46 700.74 1193.15 676.717 1194.4 C 682.907 1190.34 692.578 1186.88 699.601 1183.8 C 716.427 1176.44 733.641 1167.62 747.309 1155.13 C 807.585 1100.02 824.871 983.272 890.749 934.865 z" fill="rgb(254,254,254)" transform="translate(0,0)"></path>
<path d="M 1297.1 710.756 L 1299.07 711.234 C 1298.37 714.602 1285.41 724.541 1281.79 727.817 C 1275.99 733.01 1270.61 738.648 1265.7 744.679 C 1251.82 761.863 1239.21 787.82 1228.11 807.217 C 1221.38 818.999 1215.1 828.978 1207.75 840.478 C 1218.17 839.975 1267.76 836.381 1274.73 841.84 L 1274.71 843.481 C 1272.64 845.362 1270.7 845.744 1267.95 846.126 C 1235.35 850.663 1199.42 854.065 1167.76 863.375 L 1166.34 863.801 C 1170.19 870.095 1190.96 890.81 1197.01 897 C 1218.42 918.961 1235.35 941.839 1267.2 947.895 C 1304.66 955.016 1339.57 971.462 1366.82 998.346 C 1371.15 1002.62 1378.26 1008.06 1380.59 1013.82 L 1379.3 1014.64 C 1373.78 1012.15 1362.84 1004.08 1357.71 1000.19 C 1336.57 984.192 1325.2 978.039 1299.95 970.657 C 1288.51 968.231 1281.37 968.05 1269.7 968.033 C 1290.63 1002.25 1302.8 1030.77 1318.33 1067.76 C 1313.91 1063.41 1309.92 1058.53 1306.14 1053.61 C 1285.91 1027.22 1265.05 999.07 1243.06 974.216 C 1215.75 943.905 1187.97 914.019 1159.74 884.567 C 1146.78 871.149 1128.04 853.824 1116.55 839.996 C 1227.47 872.206 1211.2 753.981 1297.1 710.756 z" fill="rgb(254,254,254)" transform="translate(0,0)"></path>
<path d="M 792.683 249.335 C 818.642 248.297 859.318 268.773 880.328 282.98 C 867.318 292.442 855.606 296.213 839.832 297.645 C 816.852 295.961 802.077 287.283 780.977 279.21 C 770.872 275.344 760.448 271.748 750.203 268.243 C 761.168 256.898 777.379 251.349 792.683 249.335 z" fill="rgb(254,254,254)" transform="translate(0,0)"></path>
<path d="M 879.971 226.371 C 903.291 223.108 951.944 256.872 970.613 271.641 C 958.405 277.418 950.404 280.299 936.916 281.17 C 906.045 280.274 875.882 255.459 843.994 243.127 C 854.706 232.498 865.356 228.309 879.971 226.371 z" fill="rgb(254,254,254)" transform="translate(0,0)"></path>
<path d="M 1417.56 1666.33 C 1430.77 1665.13 1448.9 1667.29 1462.51 1668.39 C 1475.9 1669.5 1489.31 1670.23 1502.73 1670.58 C 1490.86 1689.81 1478.68 1695.98 1457.62 1701.92 C 1427.08 1707.86 1399.97 1699.53 1370.49 1694.28 C 1385.17 1678.08 1395.39 1669.28 1417.56 1666.33 z" fill="rgb(254,254,254)" transform="translate(0,0)"></path>
<path d="M 966.25 216.344 C 970.556 215.842 976.336 216.147 980.613 216.666 C 1004.13 219.521 1019.75 234.95 1035.9 250.832 C 1042.25 257.083 1048.74 262.824 1054.19 270.005 C 1041.76 274.538 1038.22 274.849 1024.75 275.369 C 998.759 274.925 986.075 260.785 966.262 246.554 C 956.646 239.648 946.812 233.118 936.884 226.67 C 947.448 219.88 954.266 218.189 966.25 216.344 z" fill="rgb(254,254,254)" transform="translate(0,0)"></path>
<path d="M 1242.21 1740.18 C 1262.46 1737.51 1320.13 1757.58 1343.03 1763.78 C 1331.23 1773.49 1322.49 1778.38 1307.95 1782.94 C 1274.51 1791.48 1237.82 1767.09 1208.87 1756.43 L 1207.85 1756.07 C 1220.61 1747.74 1227.5 1743.5 1242.21 1740.18 z" fill="rgb(254,254,254)" transform="translate(0,0)"></path>
<path d="M 1734.08 1402.94 C 1735.32 1403.28 1734.59 1402.95 1735.91 1404.46 C 1733.97 1458.19 1671.89 1465.62 1631.94 1472.67 L 1630.47 1471.97 C 1630.58 1468.09 1632.57 1463.99 1634.09 1460.37 C 1649.87 1422.64 1697.3 1417.02 1734.08 1402.94 z" fill="rgb(254,254,254)" transform="translate(0,0)"></path>
<path d="M 1334.45 1708.43 C 1351.9 1709.03 1367.76 1713.14 1384.89 1716.31 C 1397.88 1718.71 1410.25 1720.21 1423.38 1721.75 C 1412.06 1737.87 1397.77 1746.56 1378.3 1749.59 C 1348.37 1748.36 1318.05 1739.12 1289.96 1728.92 C 1302.53 1716.16 1316.66 1709.53 1334.45 1708.43 z" fill="rgb(254,254,254)" transform="translate(0,0)"></path>
<path d="M 1575.03 1612.66 L 1575.43 1613.16 C 1574.24 1616.87 1568.73 1623.11 1566.03 1626.21 C 1537 1659.51 1491.57 1651.81 1452.24 1648.15 L 1449.6 1647.64 L 1449.12 1646.14 C 1450.91 1641.94 1456.12 1636.67 1459.23 1633.16 C 1480.83 1608.77 1509.64 1613.43 1539.01 1613.41 C 1551.02 1613.34 1563.03 1613.09 1575.03 1612.66 z" fill="rgb(254,254,254)" transform="translate(0,0)"></path>
<path d="M 961.142 1771.25 C 1007.42 1767.01 1026.42 1802.95 1064.48 1825.68 C 1057.63 1828.77 1054.55 1829.67 1047.29 1831.68 C 1008.72 1839.1 991.317 1820.31 965.233 1795.29 C 958.67 1788.99 951.489 1782.74 946.073 1775.42 C 952.322 1773.12 954.723 1772.56 961.142 1771.25 z" fill="rgb(254,254,254)" transform="translate(0,0)"></path>
<path d="M 274.717 974.866 C 280.781 981.759 280.034 1009.11 275.928 1017.9 C 273.809 1022.44 269.931 1031.96 266.589 1035.51 C 258.553 1044.06 230.915 1078.51 222.526 1082.55 L 220.165 1081.57 C 220.369 1078.36 220.995 1079.08 219.488 1076.28 C 195.555 1031.83 248.05 1000.14 274.717 974.866 z" fill="rgb(254,254,254)" transform="translate(0,0)"></path>
<path d="M 444.802 534.419 C 448.05 534.006 453.661 533.894 457.109 533.71 C 443.243 568.504 427.033 573.971 392.724 581.821 L 358.778 589.684 L 345.698 592.124 C 355.967 540.989 400.669 538.402 444.802 534.419 z" fill="rgb(254,254,254)" transform="translate(0,0)"></path>
<path d="M 1148.83 1761.22 C 1174.44 1758.57 1227.86 1784.12 1252.32 1796.44 C 1242.64 1803.33 1235.66 1805.72 1224.44 1809.16 C 1184.81 1817.48 1154.43 1790.99 1122.11 1772.51 C 1132.6 1766.63 1137.27 1763.75 1148.83 1761.22 z" fill="rgb(254,254,254)" transform="translate(0,0)"></path>
<path d="M 1058.2 1773.19 C 1097.72 1769.06 1124.23 1799.16 1160.42 1816.67 C 1152.05 1821.22 1145.82 1823.42 1136.81 1826.32 C 1134.55 1826.82 1132.27 1827.25 1129.99 1827.62 C 1095.89 1832.82 1061.65 1800.74 1034.47 1780.43 C 1042.18 1777.41 1050.12 1774.99 1058.2 1773.19 z" fill="rgb(254,254,254)" transform="translate(0,0)"></path>
<path d="M 273.866 1056.77 C 277.78 1060.23 279.55 1070.54 280.515 1075.69 C 285.998 1104.89 268.04 1123.24 252.131 1144.82 C 245.685 1153.56 240.675 1162.2 234.594 1170.58 L 232.949 1170.36 C 225.722 1161.45 222.667 1149.2 222.162 1137.92 C 220.879 1109.26 254.65 1076.41 273.866 1056.77 z" fill="rgb(254,254,254)" transform="translate(0,0)"></path>
<path d="M 1769.39 1323.91 L 1770.89 1324.99 C 1771.81 1333.23 1767.44 1346.54 1763.85 1354.05 C 1749.06 1385.04 1706.77 1392.52 1676.43 1402.8 L 1675.52 1402.7 C 1673.97 1399.11 1677.2 1389.79 1678.75 1385.92 C 1689.88 1358.11 1707.86 1350.47 1733.19 1339.65 C 1745.33 1334.58 1757.4 1329.33 1769.39 1323.91 z" fill="rgb(254,254,254)" transform="translate(0,0)"></path>
<path d="M 1687.48 1480.05 L 1689.19 1480.37 C 1689.92 1487.29 1673.13 1512.09 1667.72 1516.94 C 1647.83 1534.79 1607.21 1536.19 1581.83 1536.76 L 1579.56 1536.15 C 1579.36 1533.18 1583.06 1525.15 1584.55 1522.38 C 1599.8 1494.21 1628.19 1492.5 1656.21 1487.61 C 1667.97 1485.55 1676.26 1483.46 1687.48 1480.05 z" fill="rgb(254,254,254)" transform="translate(0,0)"></path>
<path d="M 1061.06 215.407 C 1097.17 214.575 1122.92 251.791 1142.27 278.351 C 1132.21 280.522 1124.37 281.078 1114.17 281.078 C 1088.08 278.619 1074.55 257.991 1055.82 242.228 C 1047.87 235.547 1039.25 228.672 1031.98 221.345 C 1043.22 217.174 1049.03 216.452 1061.06 215.407 z" fill="rgb(254,254,254)" transform="translate(0,0)"></path>
<path d="M 709.583 280.37 C 732.347 277.196 773.375 296.19 794.556 305.139 C 782.741 315.091 769.455 322.097 753.877 323.512 C 725.341 322.432 694.074 310.011 665.555 301.931 C 677.73 288.878 692.178 282.577 709.583 280.37 z" fill="rgb(254,254,254)" transform="translate(0,0)"></path>
<path d="M 401.652 599.354 C 402.786 599.162 404.15 599.328 405.362 599.384 L 405.943 600.959 C 393.087 639.696 374.775 644.271 338.226 655.35 C 328.195 658.39 317.301 662.042 307.239 665.281 C 306.207 665.631 305.048 665.627 303.901 665.731 L 303.337 664.573 C 311.769 611.221 356.723 607.051 401.652 599.354 z" fill="rgb(254,254,254)" transform="translate(0,0)"></path>
<path d="M 283.601 894.815 L 284.608 895.672 C 290.958 912.393 283.993 940.365 271.388 952.533 C 254.615 968.722 236.337 982.347 219.276 999.149 C 216.768 994 216.154 972.933 216.804 966.566 C 220.165 933.66 258.771 914.309 283.601 894.815 z" fill="rgb(254,254,254)" transform="translate(0,0)"></path>
<path d="M 1380.97 303.906 C 1439.45 305.864 1441.77 360.249 1451.67 403.524 C 1447.59 402.721 1443.57 401.623 1439.65 400.237 C 1395.7 384.915 1398.97 341.991 1380.97 303.906 z" fill="rgb(254,254,254)" transform="translate(0,0)"></path>
<path d="M 567.565 363.273 C 581.526 362.114 627.36 371.311 641.393 376.123 C 628.613 395.224 614.738 400.737 592.513 401.457 C 569.254 401.25 540.58 399.775 517.343 397.929 C 518.297 396.556 519.26 395.188 520.231 393.827 C 532.652 376.45 546.289 366.773 567.565 363.273 z" fill="rgb(254,254,254)" transform="translate(0,0)"></path>
<path d="M 327.983 740.2 C 329.857 743.02 328.995 746.804 328.526 750.056 C 323.887 782.204 305.24 792.546 279.114 806.868 C 267.174 813.413 255.894 820.847 244.678 828.876 C 241.5 819.651 243.493 804.455 246.65 795.267 C 255.415 769.751 276.941 762.625 299.387 753.153 C 309.045 749.119 318.581 744.799 327.983 740.2 z" fill="rgb(254,254,254)" transform="translate(0,0)"></path>
<path d="M 1302.43 270.321 C 1362.89 272.336 1366.78 312.565 1381.33 361.643 C 1336.63 353.368 1326.49 329.617 1311.96 289.906 C 1309.65 283.6 1303.99 277.153 1302.43 270.321 z" fill="rgb(254,254,254)" transform="translate(0,0)"></path>
<path d="M 630.605 319.212 C 660.137 317.209 688.846 328.049 717.536 336.157 C 704.812 348.315 693.872 355.037 676.796 358.823 C 660.586 360.556 610.109 349.005 590.05 345.946 C 602.588 330.713 610.449 323.182 630.605 319.212 z" fill="rgb(254,254,254)" transform="translate(0,0)"></path>
<path d="M 776.861 1738.97 C 787.412 1738.52 796.46 1737.74 806.747 1741.27 C 829.383 1749.04 842.564 1772.23 857.337 1789.69 C 861.173 1794.22 873.244 1808 875.433 1812.37 C 863.554 1815.1 851.184 1814.83 839.431 1811.61 C 822.903 1806.98 812.534 1798.58 803.465 1784.15 C 794.108 1769.26 785.492 1754.31 776.861 1738.97 z" fill="rgb(254,254,254)" transform="translate(0,0)"></path>
<path d="M 361.469 669.06 C 362.554 669.28 361.889 669.03 363.098 670.433 C 358.983 717.565 306.956 727.108 271.586 745.76 L 270.427 745.341 C 268.015 737.375 272.859 719.814 276.464 712.365 C 289.637 685.151 333.528 677.825 361.469 669.06 z" fill="rgb(254,254,254)" transform="translate(0,0)"></path>
<path d="M 1215.53 245.143 C 1236.26 239.981 1246.79 243.673 1265.32 252.489 C 1283.05 268.053 1296.28 299.27 1304.71 321.222 C 1305.22 322.536 1304.44 322.83 1303.6 323.74 L 1302.28 324.023 C 1269.29 318.206 1257 309.996 1239.66 281.522 C 1233.15 270.836 1222.73 255.355 1215.53 245.143 z" fill="rgb(254,254,254)" transform="translate(0,0)"></path>
<path d="M 1631.69 1552.4 C 1633.81 1551.93 1632.68 1551.94 1635.06 1552.6 C 1635.23 1559.1 1622.92 1573.64 1618.08 1578.05 C 1593.95 1600 1553.62 1595.26 1523.75 1594.17 C 1520.79 1593.97 1520.1 1594.51 1518.55 1592.93 C 1520.05 1588.61 1522.95 1584.45 1525.69 1580.78 C 1550.64 1547.25 1593.41 1558.03 1631.69 1552.4 z" fill="rgb(254,254,254)" transform="translate(0,0)"></path>
<path d="M 297.295 1218.57 C 297.76 1218.86 298.224 1219.15 298.689 1219.44 C 323.284 1248.73 305.966 1287.13 291.721 1316.59 C 287.994 1324.29 285.876 1331.15 282.49 1335.45 L 280.148 1334.99 C 263.422 1314.38 258.486 1294.82 268.954 1269.43 C 276.614 1250.85 285.993 1235.04 297.295 1218.57 z" fill="rgb(254,254,254)" transform="translate(0,0)"></path>
<path d="M 1528.82 399.569 C 1587.03 414.419 1572.47 466.258 1572.88 509.808 L 1572.08 510.733 C 1569.15 510.752 1568.01 509.286 1565.54 507.67 C 1523.51 480.084 1536.57 443.023 1528.82 399.569 z" fill="rgb(254,254,254)" transform="translate(0,0)"></path>
<path d="M 1819.76 903.765 C 1831.66 916.557 1831.5 951.237 1822.1 965.217 C 1810.55 982.396 1794.1 995.823 1778.58 1009.29 C 1777.45 1009.61 1778.2 1009.52 1776.38 1008.8 C 1773.23 1001.89 1770.88 997.016 1770.26 989.175 C 1767.69 956.705 1799.82 927.474 1819.76 903.765 z" fill="rgb(254,254,254)" transform="translate(0,0)"></path>
<path d="M 298.697 818.908 L 300.205 819.443 C 301.696 823.422 301.19 829.713 300.984 834.014 C 299.33 868.624 254.854 889.946 228.346 912.411 C 226.197 907.589 225.6 904.396 224.996 899.247 C 219.591 853.164 265.555 836.16 298.697 818.908 z" fill="rgb(254,254,254)" transform="translate(0,0)"></path>
<path d="M 1827.57 989.998 C 1832.64 998.024 1833.93 1017.38 1832.92 1027.06 C 1830.02 1054.54 1795.68 1076.43 1774.09 1093.21 L 1772.59 1092.12 C 1755.18 1046.24 1800.96 1017.14 1827.57 989.998 z" fill="rgb(254,254,254)" transform="translate(0,0)"></path>
<path d="M 1137.1 226.217 C 1149.69 225.477 1157.55 225.398 1169.71 229.671 C 1191.4 237.301 1202.39 256.814 1213.53 275.462 C 1217.35 281.841 1221.58 288.311 1224.77 295.052 C 1222.7 296.949 1221.98 296.404 1218.54 296.84 C 1172.77 298.335 1162.67 270.39 1135.81 239.823 C 1133.73 237.45 1128.67 231.924 1128.52 229.183 C 1131.05 226.977 1133.73 226.88 1137.1 226.217 z" fill="rgb(254,254,254)" transform="translate(0,0)"></path>
<path d="M 1798.19 1241.99 L 1799.24 1243.5 C 1802.87 1298.63 1755.13 1311.83 1713.23 1327.33 L 1712.38 1326.57 C 1711.39 1323.78 1711.85 1320.53 1712.4 1317.62 C 1721.09 1271.77 1762.97 1267.18 1798.19 1241.99 z" fill="rgb(254,254,254)" transform="translate(0,0)"></path>
<path d="M 281.666 1138.47 L 283.071 1139.12 C 292.16 1151.67 293.926 1183.93 286.038 1196.26 C 281.092 1204 258.078 1250.3 253.621 1253.73 L 252.123 1252.39 C 220.74 1206.42 253.788 1174.05 281.666 1138.47 z" fill="rgb(254,254,254)" transform="translate(0,0)"></path>
<path d="M 1824.75 1077.69 L 1826.27 1078.3 C 1829.74 1086.61 1829.82 1102.16 1827.93 1110.85 C 1821.95 1138.42 1785.1 1159.65 1762.56 1174.36 L 1761.77 1174.47 C 1758.82 1170.7 1758.68 1156.45 1759.32 1151.61 C 1763.67 1118.86 1800.31 1096.69 1824.75 1077.69 z" fill="rgb(254,254,254)" transform="translate(0,0)"></path>
<path d="M 489.598 474.583 C 496.041 473.931 504.932 473.809 511.578 473.531 C 492.49 517.971 455.124 512.379 414.14 519.693 L 396.759 522.326 C 415.932 472.5 443.434 477.52 489.598 474.583 z" fill="rgb(254,254,254)" transform="translate(0,0)"></path>
<path d="M 510.372 417.393 C 523.387 415.737 560.546 419.122 573.9 420.246 C 561.107 443.202 545.529 451.853 519.249 453.902 C 498.055 454.582 476.667 455.218 455.56 457.125 C 467.236 430.735 481.666 420.431 510.372 417.393 z" fill="rgb(254,254,254)" transform="translate(0,0)"></path>
<path d="M 1458.18 347.269 C 1515.67 359.408 1511.95 406.543 1513.95 453.374 C 1463.62 430.356 1470.29 393.857 1458.18 347.269 z" fill="rgb(254,254,254)" transform="translate(0,0)"></path>
<path d="M 363.157 1485.69 C 320.49 1453.38 341.016 1412.01 353.913 1370.22 C 365.614 1379.18 369.131 1387.3 375.675 1400.32 C 377.253 1409.04 377.663 1414.64 377.59 1423.41 C 377.507 1433.33 370.703 1479.1 366.611 1485.38 L 363.157 1485.69 z" fill="rgb(254,254,254)" transform="translate(0,0)"></path>
<path d="M 871.107 1761.21 C 872.506 1761.11 873.906 1761.02 875.307 1760.95 C 908.011 1759.18 922.464 1778.98 943.127 1800.41 C 951.281 1808.86 960.22 1816.88 968.988 1824.71 C 965.151 1825.53 960.854 1826.2 956.956 1826.91 C 954.299 1827.03 951.641 1827.13 948.982 1827.2 C 899.833 1828.36 888.316 1792.51 858.586 1764.21 L 871.107 1761.21 z" fill="rgb(254,254,254)" transform="translate(0,0)"></path>
<path d="M 1815.89 1159.95 L 1816.49 1160.55 C 1818.38 1165.55 1817.88 1168.68 1818.02 1173.74 C 1819.18 1217.89 1775.17 1235.07 1741.47 1252.12 L 1740.07 1251.09 C 1738.74 1247.49 1739.46 1246.88 1739.64 1243.26 C 1741.85 1198.48 1783.97 1186.13 1815.89 1159.95 z" fill="rgb(254,254,254)" transform="translate(0,0)"></path>
<path d="M 627.198 1669.73 C 680.018 1672.02 681.92 1721.53 701.167 1759.13 C 642.882 1759.25 640.231 1713.5 627.198 1669.73 z" fill="rgb(254,254,254)" transform="translate(0,0)"></path>
<path d="M 1779.64 730.578 C 1784.73 734.204 1792.59 756.067 1793.98 763.065 C 1799.2 789.467 1791.96 799.039 1778.87 819.373 L 1760.94 847.112 C 1759.7 848.506 1760.48 848.107 1758.58 848.263 C 1738.58 821.567 1748.85 791.102 1763.45 765.57 C 1769.41 755.16 1774.98 741.741 1779.64 730.578 z" fill="rgb(254,254,254)" transform="translate(0,0)"></path>
<path d="M 1801.73 818.629 C 1809.16 826.574 1815.12 844.639 1815.91 855.589 C 1817.91 883.264 1793.67 905.864 1776.49 924.929 C 1774.17 927.281 1774.16 928.211 1771.71 928.349 C 1769.48 924.161 1767.75 919.731 1766.53 915.146 C 1755.73 875.778 1784.17 849.957 1800.78 820.337 L 1801.73 818.629 z" fill="rgb(254,254,254)" transform="translate(0,0)"></path>
<path d="M 1649.54 520.56 C 1657.18 525.529 1665.24 533.824 1670.27 541.372 C 1692.28 574.4 1675.29 596.344 1668.54 629.878 L 1668.21 631.535 L 1667.54 634.457 L 1666.1 634.72 C 1660.32 631.396 1655.1 625.81 1651.34 620.334 C 1636.2 598.269 1639.78 578.918 1643.83 554.304 C 1645.67 543.045 1647.57 531.797 1649.54 520.56 z" fill="rgb(254,254,254)" transform="translate(0,0)"></path>
<path d="M 320.309 1297.72 C 351.353 1323.17 339.623 1360.8 327.243 1391.88 C 324.759 1398.12 322.536 1406.64 318.831 1412.01 C 311.262 1406.41 305.144 1399.09 300.986 1390.65 C 287.17 1362.14 310.545 1326.28 320.309 1297.72 z" fill="rgb(254,254,254)" transform="translate(0,0)"></path>
<path d="M 701.054 1708.62 C 743.85 1712.14 748.778 1725.77 767.488 1760.96 C 772.803 1771.12 778.42 1781.11 784.331 1790.93 C 726.166 1792.55 718.719 1754.29 701.054 1708.62 z" fill="rgb(254,254,254)" transform="translate(0,0)"></path>
<path d="M 560.519 1620.32 C 599.85 1631.48 603.941 1651.51 612.516 1686.99 C 615.073 1697.92 617.974 1708.76 621.215 1719.5 C 564.94 1710.56 566.379 1666.18 560.519 1620.32 z" fill="rgb(254,254,254)" transform="translate(0,0)"></path>
<path d="M 1593.04 456.361 C 1604.25 460.969 1613.8 468.878 1620.4 479.038 C 1637.03 504.564 1628.34 537.21 1622.55 565.752 L 1621.48 569.13 L 1620.04 569.677 C 1581.31 542.324 1592.59 498.378 1593.04 456.361 z" fill="rgb(254,254,254)" transform="translate(0,0)"></path>
<path d="M 1698.92 586.724 C 1707.66 592.779 1714.82 602.606 1719.66 612.026 C 1735.59 643.049 1717.38 668.254 1707.07 698.857 C 1706.21 701.596 1706.48 702.478 1704.64 703.883 C 1701.04 701.232 1698.14 697.136 1695.6 693.436 C 1673.18 660.821 1692.4 622.137 1698.92 586.724 z" fill="rgb(254,254,254)" transform="translate(0,0)"></path>
<path d="M 498.96 1567.26 C 548.046 1582.09 540.658 1629.77 549.195 1669.21 C 494.764 1657.22 500.319 1611.99 498.96 1567.26 z" fill="rgb(254,254,254)" transform="translate(0,0)"></path>
<path d="M 443.259 1506.31 C 478.811 1523.48 481.694 1554.04 481.096 1589.56 C 480.959 1597.68 482.462 1605.73 481.602 1614.09 C 428.677 1596.91 442.469 1548.42 443.259 1506.31 z" fill="rgb(254,254,254)" transform="translate(0,0)"></path>
<path d="M 1742.28 661.319 C 1748.55 664.599 1756.82 676.204 1759.81 682.757 C 1774.17 714.283 1751.14 740.686 1738.98 771.571 C 1738.54 773.128 1738.26 773.115 1737.2 774.521 L 1735.16 773.927 C 1730.84 769.365 1728.01 762.76 1725.45 757.044 C 1712.08 727.258 1730.84 690.221 1742.28 661.319 z" fill="rgb(254,254,254)" transform="translate(0,0)"></path>
<path d="M 395.446 1441.31 C 429.607 1459.22 426.826 1499.47 423.184 1531.54 C 422.619 1536.51 422.981 1548.49 419.235 1551.16 C 399.448 1543.62 387.798 1524.09 387.114 1503.32 C 386.431 1482.59 392.665 1461.88 395.446 1441.31 z" fill="rgb(254,254,254)" transform="translate(0,0)"></path>
<metadata><recraft-signature>{"signed_by": "recraft", "signature_b64": "efIACnz4kEQBpLrtf009LfxBmEfMtrAAOl4L8UwnmoENgru+j9RkpbTwcl5IFrYhhhC3v2aZnlwqkcsgna/MCg==", "signing_algo": "Ed25519", "generation_timestamp": 1776385937, "identifier": "c6cea06d-d47a-47cb-9320-ebbad689c659"}</recraft-signature></metadata></svg>