<svg xmlns="http://www.w3.org/2000/svg" height="1024" preserveAspectRatio="none" style="display: block;" version="1.1" viewBox="0 0 2048 2048" width="1024">
<path d="M 0 0 L 2048 0 L 2048 2048 L 0 2048 L 0 0 z" fill="rgb(19,21,26)" transform="translate(0,0)"></path>
<path d="M 993.917 502.668 C 1282.11 485.923 1529.31 705.982 1546.04 994.175 C 1562.77 1282.37 1342.7 1529.55 1054.5 1546.27 C 766.33 1562.99 519.164 1342.93 502.435 1054.76 C 485.705 766.588 705.745 519.412 993.917 502.668 z" fill="rgb(205,150,85)" transform="translate(0,0)"></path>
<path d="M 1002.18 522.887 C 1278.79 510.681 1513.06 724.721 1525.82 1001.31 C 1538.59 1277.89 1325.02 1512.6 1048.46 1525.91 C 771.111 1539.27 535.594 1324.96 522.796 1047.59 C 509.999 770.213 724.781 535.127 1002.18 522.887 z" fill="rgb(19,21,26)" transform="translate(0,0)"></path>
<path d="M 1018.57 621.375 C 1028.59 620.236 1055.98 623.153 1054.02 636.179 C 1046.55 685.922 1051.27 737.228 1050.07 787.529 C 1049.45 813.565 1050.84 840.532 1051.13 866.605 C 1051.35 886.629 1070.26 926.671 1090.79 900.02 C 1101.88 885.714 1090.03 863.648 1086.7 848.193 C 1079.9 814.574 1073.73 770.523 1092 739.46 C 1115.79 699.007 1158.25 703.667 1193.11 726.053 C 1216.95 741.369 1232.05 757.513 1250.38 778.054 C 1315.12 850.619 1356.15 942.05 1378.56 1036.04 C 1397.32 1115.22 1395.8 1195.05 1372.23 1273.06 C 1360.13 1313.1 1348.32 1353.79 1301.38 1364.22 C 1287.94 1367.28 1273.91 1366.54 1260.87 1362.06 C 1243.59 1356.26 1237.05 1348.19 1222.88 1338.04 C 1217.28 1334.03 1203.95 1326.97 1197.67 1323.98 C 1186.92 1318.91 1175.83 1314.6 1164.48 1311.06 C 1145.98 1305.36 1125.77 1301.26 1109.57 1290.67 C 1048.53 1250.79 1057.58 1175.78 1070.7 1114.08 C 1076.52 1086.67 1086.87 1060.07 1079.96 1032.48 C 1073.9 1008.27 1057.99 974.137 1036.24 960.534 L 1035.18 959.882 C 1013.49 952.624 1000.18 966.923 988.415 983.151 C 974.076 1002.93 966.787 1029.68 967.176 1053.94 C 967.446 1070.72 973.192 1087.99 976.203 1104.5 C 985.087 1153.16 997.066 1210.53 971.859 1256.15 C 943.577 1307.35 890.412 1304.24 843.753 1327.55 C 820.976 1338.93 808.553 1356.37 783.979 1363.2 C 763.379 1368.78 741.405 1365.9 722.935 1355.21 C 690.58 1336.87 681.658 1299.19 672.31 1264.57 C 638.765 1140.35 669.842 978.603 733.288 868.397 C 764.088 814.898 823.406 729.321 886.048 711.792 C 902.041 707.317 923.691 708.721 937.236 718.354 C 969.74 741.471 968.041 773.57 964.853 806.888 C 963.592 821.572 961.78 836.202 959.418 850.749 C 957.3 864.024 949.308 899.546 965.023 907.139 C 968.416 908.747 972.292 909.014 975.874 907.886 C 1003.57 899.222 998.117 840.483 998.109 817.058 L 998.121 748.818 C 998.18 721.995 998.523 695.123 998.597 668.15 C 998.623 658.558 991.828 635.972 996.085 628.347 C 998.731 623.606 1012.99 622.081 1018.57 621.375 z" fill="rgb(205,150,85)" transform="translate(0,0)"></path>
<path d="M 1149.7 801.077 L 1150.91 795.573 C 1171.51 849.863 1182.17 875.097 1207.4 803.243 L 1209.51 807.523 C 1206.47 830.686 1197.7 851.475 1180.19 867.263 C 1181.05 873.96 1181.44 879.427 1181.84 886.168 C 1208.99 881.806 1235.27 873.1 1259.66 860.386 L 1261.1 861.938 C 1233.79 881.645 1212.51 895.159 1179.45 905.209 C 1175.65 923.801 1164.18 939.753 1154 955.705 C 1169.23 963.163 1190.38 971.651 1207.92 966.428 C 1213.52 964.762 1219.32 959.096 1224.15 955.829 C 1240.8 944.827 1263.84 936.298 1282.6 930.794 L 1282.98 932.123 C 1272.82 936.37 1221.02 958.726 1230.44 973.756 C 1237.91 985.685 1269.11 998.263 1282.63 1001.9 L 1280.28 1003.54 C 1269.83 1001.17 1260.25 998.737 1250.1 995.712 C 1242.07 993.319 1225.09 985.615 1217.65 985.62 C 1193.18 985.635 1173.51 987.216 1148.71 984.58 C 1169.95 1017.55 1205.73 1055.16 1245.65 1064.11 C 1261.74 1067.72 1270.11 1061.9 1284.9 1057.44 C 1295.94 1054.11 1308.86 1051.22 1320.41 1049.51 L 1321.26 1051.56 C 1311.88 1053.33 1279.89 1066.17 1276.85 1074.29 C 1279.21 1079.25 1288.73 1081.82 1293.87 1085.05 C 1315.03 1098.34 1323.4 1122.69 1326.61 1146.05 L 1324.34 1146.54 C 1316.47 1123.1 1307.3 1104.75 1284.57 1092.89 C 1266.44 1083.44 1250.53 1084.11 1233.24 1078.52 C 1252.54 1111.72 1270.14 1155.41 1273.54 1193.66 C 1304.11 1210.02 1312.14 1242.92 1316.06 1274.67 L 1314.88 1275.03 C 1307.77 1248.22 1299.03 1223.45 1274.96 1207.54 C 1275.55 1228.77 1275.47 1249.41 1273.77 1270.59 C 1273.41 1275.09 1272.99 1280.53 1273.01 1285.03 C 1272.37 1282.02 1271.89 1280.36 1270.94 1277.47 C 1270.52 1261.13 1262.13 1216.38 1257.03 1200.59 C 1245.85 1218.9 1232.17 1251.37 1228.64 1273.01 C 1228.27 1271.1 1227.95 1269.37 1227.47 1267.47 C 1233.92 1232.99 1234.82 1215.83 1253.42 1184.21 C 1246.1 1135.46 1228.3 1090.95 1184.98 1064.55 C 1190.91 1088.09 1195.13 1112.39 1191.32 1136.53 C 1191.31 1141.93 1185.17 1157.28 1186.07 1161.96 C 1191.91 1192.53 1191.16 1213.77 1184.48 1244.88 C 1184.08 1246.71 1183.86 1248.28 1183.42 1250.14 L 1181.8 1250.32 C 1182.04 1244.62 1182.06 1239.14 1182.18 1233.44 C 1180.71 1213.28 1180.18 1198.22 1171.8 1179.72 C 1154.68 1190.42 1145.74 1208.35 1138.4 1226.42 L 1134.97 1224.83 C 1138.01 1211.41 1141.66 1197.94 1149.57 1186.53 C 1158.69 1173.37 1168.6 1165.98 1173.45 1149.84 C 1179.49 1129.7 1178.24 1112.33 1168.9 1093.74 C 1164.13 1097.31 1156.91 1104.49 1152.12 1108.69 C 1144.09 1115.72 1138.1 1120.2 1129.47 1126.3 L 1128.49 1124.12 C 1143.69 1107.49 1161.17 1084.41 1159.7 1060.92 C 1156.88 1015.57 1118.88 968.481 1087.95 938.741 C 1117.67 943.12 1141.57 935.618 1157.93 909.197 C 1180.08 873.414 1158.44 837.584 1149.7 801.077 z" fill="rgb(19,21,26)" transform="translate(0,0)"></path>
<path d="M 1182.18 1233.44 C 1183.11 1237.89 1182.28 1241.29 1184.48 1244.88 C 1184.08 1246.71 1183.86 1248.28 1183.42 1250.14 L 1181.8 1250.32 C 1182.04 1244.62 1182.06 1239.14 1182.18 1233.44 z" fill="rgb(46,33,22)" transform="translate(0,0)"></path>
<path d="M 837.461 799.639 L 839.353 796.189 C 842.538 807.937 855.635 850.698 871.545 847.791 C 880.639 841.421 893.349 808.944 896.897 797.323 L 898.607 799.756 C 890.13 835.55 870.474 876.75 892.211 911.391 C 900.987 925.489 915.088 935.441 931.312 938.987 C 940.893 941.17 948.683 941.109 958.328 939.921 C 930.461 965.709 892.894 1022.27 890.596 1060.92 C 888.952 1088.56 908.956 1109.14 926.779 1128.32 C 929.117 1130.85 931.479 1133.36 933.866 1135.84 C 910.97 1121.17 900.292 1112.48 879.9 1094.27 C 871.141 1113.37 869.726 1131.92 876.855 1152.06 C 881.414 1164.94 889.283 1172.27 897.3 1183.04 C 906.888 1195.93 911.668 1210.42 914.967 1225.98 L 911.677 1227.34 C 907.337 1217.01 891.082 1180.22 877.299 1182.57 C 870.441 1187.89 869.171 1201.55 868.162 1210.01 C 867.502 1215.57 867.069 1221.15 866.864 1226.74 C 867.085 1234.88 866.856 1242.83 867.223 1251 L 865.856 1251.2 C 865.293 1249.13 865.026 1247.98 864.636 1245.88 C 856.85 1217.23 856.047 1191.69 864.038 1162.99 C 850.327 1118.47 858.741 1105.37 863.885 1064.53 C 822.111 1091.82 802.152 1133.96 794.476 1182.07 C 814.562 1212.76 816.615 1229.19 822.543 1265.13 L 820.439 1266.48 C 815.825 1243.7 804.36 1220.64 791.764 1201.26 C 788.323 1221.32 779.073 1264.66 780.173 1284.06 L 777.838 1283.29 C 778.072 1279.27 777.519 1272.99 777.302 1268.83 C 776.24 1248.42 775.679 1228.63 776.711 1208.17 C 756.561 1219.71 744.723 1238.56 738.322 1260.54 L 734.823 1260.31 C 735.67 1255.15 736.808 1250.03 738.232 1244.99 C 745.097 1220.71 756.806 1205.28 778.459 1193.1 C 783.918 1143.55 793.081 1119.64 818.456 1078.22 C 771.125 1087.26 742.615 1091.46 726.309 1142.06 L 722.85 1143.17 C 727.512 1106.45 741.119 1090.54 773.211 1074.61 C 762.44 1064.07 748.748 1058.66 734.868 1053.61 L 738.445 1051.39 C 760.033 1053.16 781.362 1067.76 797.894 1065.18 C 842.153 1058.25 876.504 1017.05 902.113 984.673 C 875.26 990.489 858.923 983.724 832.927 985.232 C 825.194 985.681 807.457 992.847 799.267 995.477 C 789.075 998.749 782.409 1000.47 771.636 1002.55 L 768.238 1000.52 C 780.713 997.734 809.862 984.655 817.964 975.769 C 831.404 961.029 778.535 938.133 768.876 933.215 L 769.453 931.582 C 796.188 940.415 817.115 948.386 839.188 966.342 C 860.771 969.16 877.123 966.126 895.69 954.795 C 884.792 936.645 876.349 924.413 868.375 904.503 C 838.401 896.722 805.653 876.535 781.716 856.97 C 810.554 869.882 833.313 881.149 865.421 885.81 C 865.9 879.857 866.779 873.76 867.537 867.822 C 848.297 849.602 842.358 824.368 837.461 799.639 z" fill="rgb(19,21,26)" transform="translate(0,0)"></path>
<path d="M 866.864 1226.74 C 867.085 1234.88 866.856 1242.83 867.223 1251 L 865.856 1251.2 C 865.293 1249.13 865.026 1247.98 864.636 1245.88 C 867.535 1240.81 865.292 1234.96 866.864 1226.74 z" fill="rgb(46,33,22)" transform="translate(0,0)"></path>
<path d="M 734.823 1260.31 L 738.322 1260.54 C 736.124 1266.52 734.589 1274.22 732.709 1280.67 C 733.149 1273.62 734.258 1267.16 734.823 1260.31 z" fill="rgb(46,33,22)" transform="translate(0,0)"></path>
<path d="M 1134.97 1224.83 L 1138.4 1226.42 C 1136.96 1230.09 1135.84 1233.16 1134.83 1237.01 L 1132.53 1237.31 C 1133.53 1233.06 1134.22 1229.11 1134.97 1224.83 z" fill="rgb(21,17,10)" transform="translate(0,0)"></path>
<path d="M 914.967 1225.98 L 915.733 1229.52 C 916.367 1232.57 916.868 1235.08 917.594 1238.14 L 915.71 1239.42 C 914.66 1234.84 913.373 1231.74 911.677 1227.34 L 914.967 1225.98 z" fill="rgb(21,17,10)" transform="translate(0,0)"></path>
<path d="M 722.85 1143.17 L 726.309 1142.06 C 724.905 1146.18 723.963 1150.17 722.731 1154.31 L 721.745 1153.13 C 722.054 1149.8 722.635 1146.5 722.85 1143.17 z" fill="rgb(21,17,10)" transform="translate(0,0)"></path>
<path d="M 757.005 1004.41 L 758.288 1003.96 C 761.581 1002.81 764.984 1001.71 768.238 1000.52 L 771.636 1002.55 C 766.308 1003.47 762.35 1003.94 757.005 1004.41 z" fill="rgb(46,33,22)" transform="translate(0,0)"></path>
<path d="M 1124.81 1127.15 L 1127.17 1128.14 C 1127.17 1128.14 1117.99 1136.05 1118.55 1133.24 C 1118.8 1131.97 1123.51 1128.21 1124.81 1127.15 z" fill="rgb(88,64,39)" transform="translate(0,0)"></path>
<path d="M 822.543 1265.13 C 823.183 1266.83 823.873 1271.64 824.119 1273.54 L 823.11 1274.61 L 823.648 1275.07 L 823.567 1275.18 C 822.489 1274.49 820.809 1267.99 820.439 1266.48 L 822.543 1265.13 z" fill="rgb(88,64,39)" transform="translate(0,0)"></path>
<path d="M 729.005 1049.44 C 732.25 1050.04 735.228 1050.7 738.445 1051.39 L 734.868 1053.61 C 732.269 1052.59 730.377 1051.97 727.735 1051.14 L 729.005 1049.44 z" fill="rgb(21,17,10)" transform="translate(0,0)"></path>
<path d="M 1208.28 798.27 L 1210.5 800.17 C 1210.12 802.66 1209.9 805.039 1209.51 807.523 L 1207.4 803.243 C 1207.88 801.308 1208.01 800.283 1208.28 798.27 z" fill="rgb(21,17,10)" transform="translate(0,0)"></path>
<path d="M 1320.41 1049.51 C 1322.14 1048.98 1325.3 1048.11 1327.07 1047.98 L 1327.99 1048.84 L 1328.93 1048.13 L 1328.08 1048.06 C 1328.43 1048.18 1328.79 1048.3 1329.14 1048.42 C 1328.35 1049.18 1322.6 1051.05 1321.26 1051.56 L 1320.41 1049.51 z" fill="rgb(88,64,39)" transform="translate(0,0)"></path>
<path d="M 727.735 1051.14 C 726.731 1050.78 720.379 1049.21 720.764 1047.83 C 721.83 1047.19 727.604 1048.91 729.005 1049.44 L 727.735 1051.14 z" fill="rgb(117,84,49)" transform="translate(0,0)"></path>
<path d="M 896.897 797.323 C 897.219 796.172 898.098 791.358 899.339 790.978 C 900.097 792.011 898.814 798.457 898.607 799.756 L 896.897 797.323 z" fill="rgb(117,84,49)" transform="translate(0,0)"></path>
<path d="M 1326.61 1146.05 C 1327.11 1148.17 1327.14 1149.59 1327.31 1151.74 L 1325.7 1152.56 C 1325.21 1150.56 1324.76 1148.56 1324.34 1146.54 L 1326.61 1146.05 z" fill="rgb(46,33,22)" transform="translate(0,0)"></path>
<path d="M 1259.66 860.386 C 1260.4 859.866 1265.69 856.326 1266.23 857.583 C 1265.75 858.803 1262.34 861.003 1261.1 861.938 L 1259.66 860.386 z" fill="rgb(88,64,39)" transform="translate(0,0)"></path>
<path d="M 1270.94 1277.47 C 1271.89 1280.36 1272.37 1282.02 1273.01 1285.03 C 1273.02 1285.66 1273.26 1288.85 1272.54 1289.3 C 1271.45 1288.29 1270.97 1279.27 1270.94 1277.47 z" fill="rgb(117,84,49)" transform="translate(0,0)"></path>
<path d="M 768.876 933.215 C 767.934 932.773 762.659 930.901 762.807 929.596 C 764.328 928.668 768.009 930.892 769.453 931.582 L 768.876 933.215 z" fill="rgb(88,64,39)" transform="translate(0,0)"></path>
<path d="M 1208.28 798.27 C 1208.68 796.348 1209.02 794.624 1209.68 792.755 L 1210.69 792.38 L 1210.29 791.757 L 1210.47 791.633 C 1211.65 792.767 1210.72 798.732 1210.5 800.17 L 1208.28 798.27 z" fill="rgb(117,84,49)" transform="translate(0,0)"></path>
<path d="M 1227.47 1267.47 C 1227.95 1269.37 1228.27 1271.1 1228.64 1273.01 C 1228.51 1274.37 1228.43 1275.29 1227.54 1276.36 L 1227.4 1276.3 C 1226.3 1274.5 1227.1 1269.41 1227.47 1267.47 z" fill="rgb(117,84,49)" transform="translate(0,0)"></path>
<path d="M 1282.63 1001.9 C 1283.98 1002.16 1287.07 1002.62 1288.18 1003.57 C 1287.92 1004.83 1281.25 1003.69 1280.28 1003.54 L 1282.63 1001.9 z" fill="rgb(88,64,39)" transform="translate(0,0)"></path>
<path d="M 1134.83 1237.01 C 1134.53 1238.31 1133.86 1242.49 1132.59 1243.33 C 1131.41 1242.94 1132.43 1238.03 1132.53 1237.31 L 1134.83 1237.01 z" fill="rgb(117,84,49)" transform="translate(0,0)"></path>
<path d="M 1149.7 801.077 C 1149.19 798.225 1148.89 795.357 1148.34 792.514 L 1149.08 792.189 L 1148.55 791.721 L 1148.56 791.603 L 1148.67 791.604 C 1149.64 792.291 1150.29 794.452 1150.91 795.573 L 1149.7 801.077 z" fill="rgb(46,33,22)" transform="translate(0,0)"></path>
<path d="M 837.461 799.639 C 837.28 798.407 836.342 792.69 837.316 791.764 L 837.43 791.8 C 837.926 792.515 838.191 793.28 838.46 794.099 L 839.353 796.189 L 837.461 799.639 z" fill="rgb(46,33,22)" transform="translate(0,0)"></path>
<path d="M 777.838 1283.29 L 780.173 1284.06 C 780.133 1284.9 780.324 1288.6 779.354 1289.19 L 779.109 1289.11 C 778.447 1288.37 778.223 1287.28 778.128 1286.3 L 777.838 1283.29 z" fill="rgb(117,84,49)" transform="translate(0,0)"></path>
<path d="M 1181.8 1250.32 L 1183.42 1250.14 C 1183.28 1251.22 1183.1 1255.06 1181.52 1255.39 C 1180.31 1254.47 1181.43 1251.42 1181.8 1250.32 z" fill="rgb(117,84,49)" transform="translate(0,0)"></path>
<path d="M 867.223 1251 C 869.024 1256.2 866.952 1257.76 865.856 1251.2 L 867.223 1251 z" fill="rgb(117,84,49)" transform="translate(0,0)"></path>
<path d="M 1128.49 1124.12 L 1129.47 1126.3 C 1128.7 1126.91 1127.93 1127.52 1127.17 1128.14 L 1124.81 1127.15 C 1126.1 1126.12 1127.24 1125.2 1128.49 1124.12 z" fill="rgb(21,17,10)" transform="translate(0,0)"></path>
<path d="M 1327.31 1151.74 C 1328.93 1155.72 1327.02 1158.28 1325.7 1152.56 L 1327.31 1151.74 z" fill="rgb(117,84,49)" transform="translate(0,0)"></path>
<path d="M 1282.6 930.794 C 1283.56 930.387 1286.45 928.787 1287.46 929.621 C 1287.37 930.839 1283.67 931.849 1282.98 932.123 L 1282.6 930.794 z" fill="rgb(117,84,49)" transform="translate(0,0)"></path>
<path d="M 1314.88 1275.03 L 1316.06 1274.67 C 1318.03 1280.78 1314.85 1280.02 1314.89 1276.53 L 1314.88 1275.03 z" fill="rgb(152,108,59)" transform="translate(0,0)"></path>
<path d="M 917.594 1238.14 C 917.905 1239.54 918.367 1240.85 917.864 1242.22 L 917.66 1242.34 C 917.065 1242.14 916.794 1241.47 916.56 1240.94 C 916.286 1240.43 916.002 1239.92 915.71 1239.42 L 917.594 1238.14 z" fill="rgb(117,84,49)" transform="translate(0,0)"></path>
<path d="M 721.745 1153.13 L 722.731 1154.31 C 722.684 1154.93 722.855 1156.41 721.926 1156.63 C 720.782 1155.81 721.432 1154.24 721.745 1153.13 z" fill="rgb(117,84,49)" transform="translate(0,0)"></path>
<metadata><recraft-signature>{"signed_by": "recraft", "signature_b64": "sUBv7CjPHp5oqCz8VMFofHV3e+mX9Lh/293TetKgRD9jEh1K58LrdyNeOIT/KBCiIlngqznJTF4VM5XQTSezDA==", "signing_algo": "Ed25519", "generation_timestamp": 1776386604, "identifier": "e9f7a4bf-a05b-4ecb-9af6-53d580bec4eb"}</recraft-signature></metadata></svg>