<svg xmlns="http://www.w3.org/2000/svg" height="1024" preserveAspectRatio="none" style="display: block;" version="1.1" viewBox="0 0 2048 2048" width="1024">
<defs>
	<linearGradient gradientUnits="userSpaceOnUse" id="Gradient1" x1="1485.15" x2="539.335" y1="1901.34" y2="439.035">
		<stop class="stop0" offset="0" stop-color="rgb(155,93,43)" stop-opacity="1"></stop>
		<stop class="stop1" offset="1" stop-color="rgb(236,192,131)" stop-opacity="1"></stop>
	</linearGradient>
</defs>
<path d="M 0 0 L 2048 0 L 2048 2048 L 0 2048 L 0 0 z" fill="rgb(254,254,254)" transform="translate(0,0)"></path>
<path d="M 953.468 243.231 C 949.408 240.071 939.759 233.774 941.502 228.282 C 946.865 214.443 962.79 226.539 972.1 229.892 C 1009.08 243.234 1050.47 242.959 1086.09 225.799 C 1092.66 222.636 1099.85 217.051 1105.33 226.176 C 1111.06 235.741 1101 237.586 1095.97 240.789 C 1087.1 258.4 1085.26 315.065 1084.32 335.723 C 1082.8 367.063 1081.68 398.421 1080.97 429.79 C 1078.47 551.749 1070.96 694.243 1125.19 808.371 C 1128.34 815.006 1132.75 821.847 1137 827.867 C 1152.49 823.909 1200.87 804.991 1195.94 782.851 C 1191.57 765.49 1182.41 749.947 1177.06 732.687 C 1152.55 653.634 1123.59 513.499 1176.76 443.241 C 1269.05 321.274 1488.33 420.6 1584.36 491.39 C 1634.7 529.912 1684.08 577.182 1719.03 630.462 C 1817.79 781.04 1880.85 972.191 1907.52 1149.14 C 1921.95 1244.88 1923.2 1391.45 1861.97 1470.26 C 1824.6 1525.92 1764.11 1555.63 1697.46 1547.45 C 1675.4 1544.75 1658.23 1539.43 1639 1528.14 C 1620.59 1518.59 1611.1 1509.11 1597.1 1494.18 C 1592.2 1493.32 1582.48 1491.96 1578.12 1490.01 C 1487.75 1449.69 1461.85 1341.85 1439.44 1254.76 C 1433.96 1233.46 1429.97 1211.32 1422.82 1191.46 C 1423.67 1209.83 1425.46 1228.12 1425.73 1246.51 C 1427.45 1364.35 1430.73 1526.09 1524.7 1611.98 C 1533.69 1620.11 1543.32 1627.5 1553.5 1634.08 C 1550.53 1636.64 1543.11 1642.17 1541.1 1644.3 C 1456.33 1590.12 1431.87 1488.34 1418.88 1394.93 C 1415.5 1414.29 1414.3 1440.49 1413.54 1460.66 C 1410.43 1543.12 1407.03 1647.39 1453.33 1719.57 C 1485.87 1770.3 1563.65 1804.63 1622.52 1790.02 C 1626.92 1788.93 1636.11 1785.87 1639.83 1785.43 C 1642.26 1785.34 1644.69 1785.23 1647.12 1785.09 C 1637.8 1790.06 1637.25 1799.9 1634.26 1801.18 C 1629.11 1803.38 1623.29 1806.97 1618 1810.48 L 1614.66 1808.98 C 1612.34 1811.29 1610.2 1812.41 1610.16 1814.8 C 1612.01 1815.02 1613.87 1815.21 1615.73 1815.38 L 1615.64 1817.04 C 1608.29 1822.2 1584.98 1821.68 1575.4 1821.78 C 1572.72 1819.86 1572.39 1819.34 1570.22 1816.95 C 1565.32 1817.07 1567.8 1819.45 1562.54 1819.93 C 1561.82 1814.75 1564.36 1816.19 1561.96 1813.17 L 1559.15 1813.37 L 1558.15 1814.8 L 1559.91 1818.82 C 1557.62 1820.19 1537.43 1816.26 1531.92 1815.96 C 1471.06 1797.35 1435.35 1756.29 1403.6 1704.36 C 1354.2 1623.54 1349.36 1540.77 1353.74 1449.13 C 1343.17 1472.47 1333.32 1500.34 1328.34 1525.53 C 1322.51 1555.07 1323.98 1590.8 1336.35 1618.63 C 1340.12 1627.14 1348.36 1638.71 1353.81 1646.65 C 1357.19 1649.97 1358.53 1650.86 1360.51 1655.02 C 1360.43 1659.37 1361.09 1657.48 1358.58 1660.91 C 1349.25 1665.26 1343.88 1658.86 1339.08 1651.44 C 1316.03 1625.1 1308.71 1580.01 1311.27 1546.19 C 1313.03 1522.83 1317.4 1508.37 1324.33 1486.22 C 1306.05 1498.36 1294.23 1506.53 1272.34 1508.72 C 1200.67 1515.91 1158.51 1466.16 1175.23 1396.36 C 1184.54 1357.47 1206.42 1337.4 1248.52 1345.05 C 1272.94 1350.46 1289.17 1376.62 1283.47 1401.07 C 1281.15 1410.67 1269.51 1426.52 1259.57 1415.12 C 1257.52 1406.78 1267.99 1401.52 1266.75 1391.44 C 1262.82 1359.4 1213.79 1352.81 1199.53 1381.67 C 1182.15 1416.84 1186.37 1462.94 1224.62 1481.93 C 1267.13 1502.23 1318.49 1472.32 1336.68 1431.79 C 1360.72 1378.23 1351.29 1310.35 1348.47 1253.23 C 1347.21 1227.71 1344.46 1195.35 1336.25 1171.57 C 1334.59 1189.85 1332.83 1205.58 1325.37 1222.72 C 1301.26 1278.08 1237.25 1306.86 1179.19 1303.3 C 1172.05 1302.86 1167.55 1301.85 1166.67 1294.07 C 1167.55 1292.24 1168.3 1289.92 1170.73 1289.53 C 1180.13 1288 1189.76 1288.87 1199.37 1288.12 C 1285.38 1281.47 1341.35 1207.89 1318.2 1123.22 C 1301.34 1061.59 1256.69 1018.52 1211.4 976.563 C 1198.97 965.219 1178.25 944.206 1163.68 936.576 C 1183.47 984.064 1191.58 1035.61 1187.32 1086.88 C 1184.18 1125.3 1173.11 1159.22 1163.37 1196.65 C 1134.83 1305.7 1095.24 1424.81 1152 1532.05 C 1177.19 1579.63 1216.3 1606.45 1264.44 1627.35 C 1299.06 1642.38 1345.11 1665.61 1365.64 1698.87 L 1363.84 1699.63 C 1366.12 1701.73 1365.49 1700.44 1366.3 1703.23 C 1363.36 1704.76 1356.83 1707 1353.42 1707.13 C 1351.66 1707.19 1350.88 1706.52 1348.73 1707.04 C 1312.93 1683.98 1312.73 1689.75 1275.17 1679.44 C 1253.21 1673.64 1231.89 1665.62 1211.55 1655.5 C 1067.18 1581.96 1059.81 1422.07 1090.38 1282.02 C 1094.89 1261.19 1099.88 1240.47 1105.37 1219.87 C 1122.32 1157.61 1140.61 1102.13 1136.31 1036.52 C 1132.23 974.116 1113.14 936.599 1085.64 882.354 C 1072.1 855.776 1059.06 828.947 1046.53 801.881 C 1038.11 783.329 1029.5 757.139 1023.16 737.628 C 1018.57 759.839 1005.28 791.408 995.398 812.409 C 986.955 830.693 978.14 848.803 968.959 866.727 C 938.214 925.715 913.036 968.153 908.724 1036.91 C 905.063 1095.26 917.936 1135.14 932.794 1189.78 C 959.459 1287.83 985.523 1389.71 961.815 1491.11 C 943.22 1577.27 875.269 1645.09 792.752 1672.34 C 749.203 1686.72 704.618 1688.55 677.835 1732.02 C 673.068 1739.76 666.24 1759.94 659.878 1763.82 C 640.176 1766.93 657.737 1737.84 661.173 1731.29 C 679.588 1696.3 708.211 1667.72 743.244 1649.38 C 762.613 1639.02 783.321 1630.42 802.545 1619.71 C 841.42 1598.03 873.832 1568.12 895.849 1529.18 C 934.768 1460.36 925.213 1383.02 911.842 1309.28 C 892.448 1202.34 836.799 1100.19 868.102 989.635 C 873.214 971.581 877.276 955.03 885.291 938.002 C 870.534 946.479 857.338 960.173 844.021 971.003 C 788.357 1016.27 725.95 1075.54 721.06 1151.68 C 719.449 1183.59 734.29 1224.66 755.703 1247.59 C 786.553 1280.62 829.451 1292.77 873.228 1286.91 C 876.789 1286.44 879.617 1288.12 881.966 1290.7 C 883.129 1295.8 881.342 1299.96 875.98 1301.06 C 839.41 1308.59 803.628 1299.62 772.534 1280.87 C 729.749 1255.07 716.663 1220.46 705.46 1174.92 C 692.285 1250.32 682.933 1366.27 715.659 1437.68 C 740.433 1491.73 835.653 1513.67 855.252 1440.56 C 860.551 1421.2 857.803 1400.53 847.632 1383.23 C 830.594 1354.71 799.511 1353.23 780.883 1384.36 C 775.869 1392.75 790.139 1405.49 787.973 1414.75 C 777.622 1425.9 767.444 1411.99 764.618 1402.13 C 761.735 1390.82 763.404 1376.58 769.369 1366.64 C 782.114 1344.92 822.93 1335.82 842.863 1350.5 C 896.254 1389.81 880.305 1495.81 809.658 1505.86 C 774.77 1510.82 753.531 1506.68 724.744 1487.15 C 733.907 1512.73 739.362 1530.98 738.915 1558.85 C 738.539 1589.86 729.863 1620.19 713.791 1646.71 C 710.794 1651.62 693.108 1679.6 692.038 1655.44 C 691.852 1651.25 705.474 1632.21 708.479 1625.75 C 732.685 1573.71 726.305 1517.14 698.703 1467.96 C 701.07 1563.93 681.233 1647.67 626.973 1728.54 C 570.308 1813 463.585 1854.94 374.11 1794.47 C 331.697 1765.8 286.293 1692.54 323.313 1643.45 C 334.032 1629 350.217 1619.59 368.076 1617.43 C 384.304 1615.35 425.643 1621 427.544 1641.15 C 426.821 1642.66 426.741 1643.68 425.372 1644.21 C 414.313 1647.19 401.748 1634.91 390.035 1632.68 C 369.748 1628.81 356.383 1631.91 342.007 1647.01 C 335.68 1653.44 328.483 1663.55 327.174 1672.57 C 318.915 1727.88 375.419 1780.71 426.443 1789.89 C 519.377 1806.62 599.834 1744.89 618.109 1654.87 C 622.698 1632.52 626.086 1609.94 628.255 1587.22 C 630.233 1564.26 635.713 1389.1 630.627 1381.43 C 629.847 1385.67 629.383 1390.53 629.073 1394.8 C 621.563 1498.62 574.932 1605.86 481.429 1659.25 C 473.69 1663.67 451.172 1673.53 442.568 1670.82 C 440.14 1668.53 440.107 1668.77 439.353 1665.57 C 440.89 1657.26 453.635 1654.42 461.312 1651.56 C 494.663 1639.1 523.657 1611.55 545.378 1584.15 C 610.586 1501.88 614.108 1397.02 617.451 1296.7 C 618.298 1271.28 620.342 1226.29 617.227 1203.26 C 602.996 1294.73 562.761 1472.85 452.841 1490.5 C 435.079 1513.96 410.77 1532.76 381.867 1539.39 C 213.989 1577.9 140.525 1440.02 134.354 1296.22 C 127.766 1142.67 164.655 1006.6 213.992 863.811 C 275.85 684.791 374.261 513.035 555.52 434.946 C 634.465 399.919 750.775 362.029 832.035 406.707 C 933.126 462.288 898.577 633.322 873.63 724.496 C 867.935 745.312 854.998 766.943 844.181 785.296 C 865.525 810.461 881.977 819.187 912.105 828.551 C 935.624 786.484 946.918 753.829 955.653 706.289 C 961.118 676.606 964.696 646.607 966.366 616.471 C 968.582 574.401 966.37 529.954 966.101 487.826 C 965.74 431.291 966.222 374.423 961.976 318.038 C 960.318 296.022 958.778 264.643 953.468 243.231 z" fill="url(#Gradient1)" transform="translate(0,0)"></path>
<path d="M 1580.54 1064.31 C 1607.9 1074.08 1656.46 1099.12 1680.87 1115.19 C 1739.1 1153.5 1795.66 1210.17 1825.48 1273.59 C 1845.54 1317.15 1861.37 1365.05 1844.51 1411.91 C 1836.9 1432.51 1825.23 1451.37 1810.18 1467.37 C 1807.52 1470.2 1796.77 1479.76 1795.78 1481.19 C 1773.12 1497.78 1764.98 1503.26 1737.97 1511.56 C 1652.98 1529.86 1585.2 1474.62 1602.95 1386.37 C 1616.09 1321.01 1681.01 1287.38 1721.5 1354.59 L 1722.06 1353.5 C 1726.26 1359.63 1726.73 1365.84 1727.11 1373.31 C 1727.57 1382.45 1723.05 1391.29 1717 1398.14 C 1714.96 1400.44 1709.46 1399.5 1706.6 1403.37 C 1710.7 1403.68 1708.87 1403 1712.21 1405.75 L 1713.93 1410.15 C 1725.56 1409.78 1739.28 1383.13 1739.19 1372.21 C 1739.14 1366.28 1736.6 1360.47 1738.65 1354.7 C 1737.06 1346.69 1734.37 1340.29 1730.96 1332.89 C 1761.54 1325.24 1769.44 1306.58 1759.78 1277.57 C 1732.23 1194.74 1650.24 1113.23 1580.54 1064.31 z" fill="rgb(254,254,254)" transform="translate(0,0)"></path>
<path d="M 1721.5 1354.59 L 1722.06 1353.5 C 1726.26 1359.63 1726.73 1365.84 1727.11 1373.31 C 1727.57 1382.45 1723.05 1391.29 1717 1398.14 C 1714.96 1400.44 1709.46 1399.5 1706.6 1403.37 C 1710.7 1403.68 1708.87 1403 1712.21 1405.75 L 1713.93 1410.15 C 1725.56 1409.78 1739.28 1383.13 1739.19 1372.21 C 1739.14 1366.28 1736.6 1360.47 1738.65 1354.7 C 1749.05 1393.45 1709.55 1428.58 1697 1411.75 C 1695.65 1395.31 1737.13 1406.52 1721.5 1354.59 z" fill="rgb(152,91,49)" transform="translate(0,0)"></path>
<path d="M 1795.78 1481.19 C 1794.62 1484.2 1794.61 1483.82 1792.71 1486.5 C 1790.14 1487.31 1790.17 1487.38 1787.9 1488.89 L 1787.57 1490.64 L 1788.48 1491.2 C 1795.11 1489.28 1808.13 1496.96 1817.4 1497.24 C 1823.51 1497.42 1822.02 1495.02 1825.81 1495.46 C 1825.45 1499.05 1824.73 1503.45 1825.36 1506.9 C 1838.22 1502.05 1855.42 1471.68 1861.97 1470.26 C 1824.6 1525.92 1764.11 1555.63 1697.46 1547.45 C 1675.4 1544.75 1658.23 1539.43 1639 1528.14 C 1648.44 1526.44 1661.31 1542.33 1670.89 1536.95 C 1674.67 1526.28 1680.34 1528.48 1688.71 1526.39 C 1707.01 1521.82 1713.59 1533.57 1729.5 1536.25 C 1735.1 1537.2 1747.72 1521.31 1751.4 1517.68 C 1754.9 1514.22 1760.03 1510.2 1764.05 1506.56 L 1763.58 1505.72 C 1756.17 1506.86 1744.02 1513.42 1737.97 1511.56 C 1764.98 1503.26 1773.12 1497.78 1795.78 1481.19 z" fill="rgb(152,91,49)" transform="translate(0,0)"></path>
<path d="M 1353.81 1646.65 C 1357.19 1649.97 1358.53 1650.86 1360.51 1655.02 C 1360.43 1659.37 1361.09 1657.48 1358.58 1660.91 C 1349.25 1665.26 1343.88 1658.86 1339.08 1651.44 C 1342.72 1651.5 1345.07 1655.92 1347.21 1658.75 L 1350.49 1658.81 C 1350.91 1654.59 1353.86 1655.24 1356.71 1652.32 C 1354.55 1650.53 1354.4 1650.43 1352.7 1648.22 L 1353.81 1646.65 z" fill="rgb(152,91,49)" transform="translate(0,0)"></path>
<path d="M 727.906 437.393 C 844.765 423.916 858.211 515.552 847.332 609.313 C 839.946 672.97 801.42 720.548 752.18 758.106 C 693.763 802.663 622.294 829.945 548.172 818.604 C 514.024 813.683 478.401 796.456 458.205 767.639 C 411.235 700.62 488.191 619.048 560.345 634.34 C 595.054 641.696 625.149 667.016 616.939 705.115 C 614.263 717.203 606.716 727.65 596.081 733.987 C 575.134 746.263 544.992 739.825 541.16 712.549 C 540.225 705.897 542.649 696.822 539.374 690.92 C 537.752 688.378 529.745 688.085 528.524 690.68 C 510.563 728.836 547.955 761.255 584.362 756.95 C 601.745 754.954 617.572 745.981 628.212 732.091 C 638.863 717.822 643.507 699.951 641.151 682.302 C 638.118 661.025 622.856 641.03 605.9 629.423 C 512.809 565.699 393.675 657.133 412.517 763.124 C 420.834 809.911 450.767 828.54 485.948 853.195 C 456.261 852.618 435.306 849.287 404.794 852.767 C 353.383 858.63 307.297 878.953 274.227 919.47 C 268.629 925.344 258.376 939.01 257.747 947.46 C 262.748 960.547 274.348 949.867 278.997 942.611 C 328.548 865.278 423.172 858.052 505.638 870.483 C 560.537 878.758 609.955 886.513 664.269 870.191 C 683.496 864.414 696.583 861.593 715.483 852.555 C 669.092 890.1 622.573 908.446 568.256 931.036 C 561.962 933.032 546.428 943.605 540.567 943.482 C 505.073 942.739 475.083 943.144 439.922 949.598 C 342.162 967.541 261.711 1029.66 208.425 1112.06 C 201.618 1122.58 195.885 1133.84 188.677 1144.02 L 187.78 1145.28 C 192.824 1121.36 196.167 1096.69 201.687 1072.72 C 237.327 917.208 289.32 759.569 385.051 630.028 C 461.881 526.063 600.539 453.608 727.906 437.393 z" fill="rgb(254,254,254)" transform="translate(0,0)"></path>
<path d="M 1291.68 437.394 C 1360.22 430.456 1487.28 485.802 1543.65 522.137 C 1683.04 611.988 1761.08 788.157 1811.43 940.349 C 1824.02 978.714 1834.27 1017.81 1842.12 1057.41 C 1846.92 1081.29 1853.74 1116.8 1854.51 1140.36 C 1831.05 1098.7 1801.45 1060.8 1766.71 1027.94 C 1697.6 962.268 1617.08 939.245 1523.52 945.305 C 1508.51 946.278 1489.52 936.461 1476.04 929.619 C 1438.24 910.434 1378.29 886.566 1347.39 857.144 C 1373.28 868.546 1413.15 880.899 1441.16 882.903 C 1462.85 884.454 1488.37 878.752 1509.9 875.858 C 1548.69 870.322 1591.07 864.324 1629.9 866.609 C 1691.61 870.241 1738.88 894.975 1773.64 945.939 C 1775.56 948.746 1780.16 950.471 1783.71 950.428 C 1793.39 944.711 1781.04 931.306 1776.74 925.512 C 1728.82 858.926 1641.45 841.375 1564.26 853.687 C 1608.45 820.13 1644.61 789.288 1634.8 728.161 C 1628.85 691.116 1608.04 654.023 1577.58 631.672 C 1553.95 614.335 1520.91 603.083 1491.59 608.326 C 1441.41 617.426 1397.07 649.669 1406.91 705.718 C 1409.67 721.424 1416.89 734.703 1430.31 744.048 C 1445.74 754.841 1464.86 758.956 1483.36 755.463 C 1507.74 750.958 1528.28 732.607 1525.09 705.965 C 1524.47 700.767 1521.9 694.421 1517 691.898 C 1513.75 690.221 1508.26 687.683 1504.67 688.797 C 1502.72 694.402 1509.85 705.271 1502.87 716.585 C 1491.03 735.784 1471.19 743.492 1451.21 731.21 C 1440.68 724.841 1433.26 714.385 1430.74 702.339 C 1423.49 666.578 1453.16 638.767 1486.61 635.374 C 1514.97 632.497 1537.23 634.316 1560.42 652.474 C 1580.09 667.882 1595.88 690.414 1599.16 715.296 C 1602.29 737.874 1596.27 760.769 1582.43 778.88 C 1520.22 859.501 1355.84 805.605 1288.68 754.368 C 1239.92 717.17 1209.39 664.344 1202.78 603.525 C 1194.16 524.185 1194.22 448.941 1291.68 437.394 z" fill="rgb(254,254,254)" transform="translate(0,0)"></path>
<path d="M 812.324 834.451 C 816.378 837.588 824.025 846.159 830.017 850.894 C 840.556 859.223 850.809 866.292 861.393 874.344 C 843.136 894.74 822.085 915.168 799.215 930.242 C 766.19 952.008 732.245 976.458 705.257 1005.68 C 653.152 1062.1 618.353 1136.91 602.832 1211.83 C 591.796 1266.25 579.856 1319.89 556.987 1370.9 C 539.281 1410.29 503.829 1461.66 462.269 1477.45 C 478.636 1441.42 481.279 1418.42 473.814 1378.01 C 462 1314.07 411.438 1279.12 348.522 1302.48 C 341.104 1305.23 297.265 1335.13 299.293 1307.95 C 304.323 1240.54 358.363 1172.31 406.788 1127.5 C 465.209 1076.32 525.684 1039.43 592.543 1000.92 C 605.293 993.58 631.458 977.768 644.354 973.689 C 629.047 990.445 612.041 1004.17 596.465 1020.45 C 547.698 1071.41 502.847 1129.68 487.056 1199.96 C 478.428 1238.35 475.428 1285.48 497.029 1320.56 C 500 1325.39 505.707 1330.82 511.554 1331.86 C 531.223 1327.68 505.427 1306.04 502.248 1298.44 C 490.419 1270.18 492.913 1239.08 499.301 1209.78 C 521.141 1109.59 603.18 1031.92 675.853 965.045 C 723.677 921.037 776.116 891.125 812.324 834.451 z" fill="rgb(254,254,254)" transform="translate(0,0)"></path>
<path d="M 1235.27 834.743 C 1240.99 838.805 1253.97 858.253 1259.85 865.063 C 1301.26 913.017 1354.31 947.163 1399.04 991.935 C 1473.05 1066 1552.92 1152.96 1550.68 1264.98 C 1550.42 1277.95 1548.38 1298.76 1538.51 1308.07 C 1534.21 1312.1 1523.81 1320.13 1528.17 1326.04 C 1536.24 1329.03 1541.6 1326.02 1547.24 1320.46 C 1562.74 1305.17 1566.26 1281.98 1565.89 1261.19 C 1563.78 1142.37 1485.5 1056.56 1405.61 978.02 C 1483.95 1016.85 1584.3 1078.02 1646.5 1139.89 C 1685.39 1178.1 1720.06 1213.95 1740.35 1266.23 C 1744.59 1277.14 1752.29 1298.63 1746.86 1309.76 C 1743.92 1315.79 1733.61 1317.65 1727.01 1319.64 C 1699.25 1295.4 1666.88 1285.92 1631.3 1299.99 C 1584.35 1318.56 1569.31 1376.79 1572.21 1422.49 C 1573.59 1444.27 1581.17 1458.83 1589.52 1478.74 C 1575.12 1474.03 1562.44 1465.37 1550.83 1455.5 C 1471.08 1387.75 1462.65 1263.92 1432.82 1170.12 C 1419.61 1128.57 1400.58 1083.46 1377.3 1047.38 C 1341.61 992.082 1288.8 960.507 1237.43 922.042 C 1219.65 908.729 1202.86 892.043 1187.06 876.343 C 1208.85 863.463 1218.86 854.44 1235.27 834.743 z" fill="rgb(254,254,254)" transform="translate(0,0)"></path>
<path d="M 449.809 1070.95 L 451.442 1071.33 C 450.667 1073.27 409.717 1107.25 403.635 1112.62 C 391.615 1123.4 379.858 1134.46 368.373 1145.81 C 328.74 1185.11 287.967 1246.75 285.482 1304.11 C 284.343 1330.4 301.417 1331.7 322.1 1330.81 C 309.854 1351.39 301.543 1363.67 308.103 1389.94 C 312.279 1406.66 348.393 1427.7 355.951 1409.45 C 353.576 1399.9 346.38 1401.63 338.257 1401.73 C 324.725 1394.12 320.451 1384.91 322.862 1369.15 C 327.661 1337.77 361.956 1313.2 393.195 1320.38 C 422.259 1327.07 441.464 1364.97 445.54 1392.35 C 448.129 1409.74 447.17 1423.13 443.329 1440.25 C 435.119 1467.23 420.312 1487.76 393.843 1499.32 C 362.269 1513.1 318.49 1512.57 286.84 1499.5 C 252.996 1485.53 223.194 1453.51 209.18 1420.03 C 189.392 1373.03 196.687 1334.16 214.795 1288.34 C 256.305 1183.32 347.985 1113.6 449.809 1070.95 z" fill="rgb(254,254,254)" transform="translate(0,0)"></path>
<path d="M 1537.83 960.387 C 1543.08 959.984 1546.43 960.128 1551.36 960.119 C 1640.97 959.961 1713.42 991.734 1774.96 1057.58 C 1805.47 1090.22 1832.37 1129.28 1851.09 1170.25 C 1854.5 1177.72 1860.22 1190.55 1860.06 1198.78 C 1857.16 1195.85 1847.88 1181.67 1844.88 1177.44 C 1838.4 1168.44 1831.51 1159.74 1824.24 1151.36 C 1794.74 1116.89 1738.91 1070.94 1700.7 1045.04 C 1664.74 1020.66 1613.19 996.043 1573 978.202 C 1566.94 975.516 1540.35 964.787 1537.83 960.387 z" fill="rgb(254,254,254)" transform="translate(0,0)"></path>
<path d="M 503.106 958.447 C 504.576 958.391 503.78 958.256 505.418 959.178 C 501.938 963.257 476.666 973.158 469.519 976.47 C 449.551 985.964 429.782 995.872 410.224 1006.19 C 335.508 1045.84 268.873 1092.28 216.037 1159.09 C 206.971 1170.56 199.665 1182.59 190.872 1194.21 C 190.129 1194.46 190.649 1194.35 189.284 1194.04 C 188.95 1187.77 193.623 1176.86 196.148 1171.04 C 220.947 1113.98 254.841 1068.44 303.735 1029.67 C 365.079 981.026 426.085 961.655 503.106 958.447 z" fill="rgb(254,254,254)" transform="translate(0,0)"></path>
<path d="M 1639.83 1785.43 C 1674 1768.81 1701.61 1749 1715.22 1711.9 C 1733.59 1661.83 1691.23 1610.5 1639.25 1638.35 C 1633.08 1641.65 1627.54 1645.84 1620.25 1645.6 C 1614.68 1642.52 1616.46 1634.18 1619.99 1631.51 C 1633.6 1621.26 1654.35 1615.18 1671.4 1615.17 C 1708.42 1616.25 1739.38 1653.57 1735.55 1690.32 C 1725.48 1787.05 1621.28 1846.58 1531.92 1815.96 C 1537.43 1816.26 1557.62 1820.19 1559.91 1818.82 L 1558.15 1814.8 L 1559.15 1813.37 L 1561.96 1813.17 C 1564.36 1816.19 1561.82 1814.75 1562.54 1819.93 C 1567.8 1819.45 1565.32 1817.07 1570.22 1816.95 C 1572.39 1819.34 1572.72 1819.86 1575.4 1821.78 C 1584.98 1821.68 1608.29 1822.2 1615.64 1817.04 L 1615.73 1815.38 C 1613.87 1815.21 1612.01 1815.02 1610.16 1814.8 C 1610.2 1812.41 1612.34 1811.29 1614.66 1808.98 L 1618 1810.48 C 1623.29 1806.97 1629.11 1803.38 1634.26 1801.18 C 1637.25 1799.9 1637.8 1790.06 1647.12 1785.09 C 1644.69 1785.23 1642.26 1785.34 1639.83 1785.43 z" fill="rgb(152,91,49)" transform="translate(0,0)"></path>
<path d="M 1348.73 1707.04 C 1350.88 1706.52 1351.66 1707.19 1353.42 1707.13 C 1356.83 1707 1363.36 1704.76 1366.3 1703.23 C 1365.49 1700.44 1366.12 1701.73 1363.84 1699.63 L 1365.64 1698.87 C 1374.22 1708.18 1401.99 1749.52 1393.9 1760.9 C 1389.22 1764.16 1384.09 1763.73 1382.27 1758.31 C 1374.22 1734.31 1367.77 1724.02 1348.73 1707.04 z" fill="rgb(152,91,49)" transform="translate(0,0)"></path>
<path d="M 1541.1 1644.3 C 1543.11 1642.17 1550.53 1636.64 1553.5 1634.08 C 1563.42 1640.42 1572.35 1644.85 1583.09 1649.65 C 1589.04 1652.31 1605.13 1657.33 1607.45 1663.1 C 1607.41 1666.61 1607.65 1666.5 1605.81 1669.42 C 1594.59 1676.55 1551.56 1651.96 1541.1 1644.3 z" fill="rgb(152,91,49)" transform="translate(0,0)"></path>
<metadata><recraft-signature>{"signed_by": "recraft", "signature_b64": "ufZSY0oF6ZAIbfOfKKrB0g3W5NZGZ2YI16h39fD8zr29aGv/ysvJrUWO3eTCFaXRoa3+7/5/96KWKePgl6WVCg==", "signing_algo": "Ed25519", "generation_timestamp": 1776385913, "identifier": "ef2a5cbb-7d14-4ddf-93dd-2517efaa48b4"}</recraft-signature></metadata></svg>