<svg xmlns="http://www.w3.org/2000/svg" height="1024" preserveAspectRatio="none" style="display: block;" version="1.1" viewBox="0 0 2048 2048" width="1024">
<path d="M 0 0 L 2048 0 L 2048 2048 L 0 2048 L 0 0 z" fill="rgb(29,22,21)" transform="translate(0,0)"></path>
<path d="M 1140.57 707.077 C 1149.1 727.999 1161.95 746.317 1171.57 763.657 C 1182.32 783.011 1177.09 876.091 1162.93 890.585 C 1158.45 891.392 1151.47 887.806 1147.95 884.925 C 1076.52 826.32 1085.42 681.333 1130.52 609.384 C 1139.65 594.82 1161.32 576.902 1178.66 575.43 C 1260.64 568.467 1332.82 662.839 1374.77 718.948 C 1473.02 850.37 1527.16 995.446 1551.51 1156.41 C 1558.55 1209.71 1565.04 1266.32 1562.92 1320.21 C 1559.99 1394.74 1549.21 1480.52 1506.82 1543.83 C 1485.55 1575.62 1453.04 1581.38 1419.27 1567.41 C 1380.02 1551.19 1347.19 1526.5 1310 1506.65 C 1261.98 1481.06 1207.36 1469.55 1163.79 1437.17 C 1116.65 1402.15 1094.08 1350.5 1086.61 1293.45 C 1079.99 1242.83 1084.52 1190.55 1086.96 1139.47 C 1090.47 1066.21 1084.8 1004.65 1064.9 933.977 C 1107.56 962.528 1156.35 995.367 1183.97 1038.97 C 1189.51 1047.7 1196.67 1057.39 1198.32 1067.82 C 1202.73 1095.73 1187.74 1129.96 1171.7 1151.88 C 1155.05 1174.65 1139.38 1189.27 1128.92 1216.27 C 1139.4 1202.52 1153.88 1184.28 1167.02 1172.9 C 1160.04 1206.51 1156.47 1243.09 1147.3 1274.68 L 1149.36 1275.48 C 1157.75 1255.86 1162.83 1233.34 1167.03 1212.42 C 1168.98 1202.69 1183.43 1153.27 1197.54 1159.92 C 1200.26 1164 1201.26 1169.15 1202.55 1173.96 C 1209.71 1200.56 1208.09 1225.64 1203.41 1252.32 L 1204.89 1255.2 C 1216.4 1227.27 1221.34 1203.18 1216.85 1172.96 C 1215.65 1164.89 1212.31 1151.26 1212.82 1143.93 C 1214.25 1123.22 1218.18 1104.32 1219.25 1083.19 C 1249.44 1101.97 1264.66 1142.32 1273.09 1175.25 C 1277.83 1193.74 1280.52 1219.11 1269.87 1235.75 C 1262.1 1247.87 1248.72 1258.97 1239.16 1270.64 C 1232.53 1278.74 1223.56 1298.81 1217.66 1304.15 C 1197.69 1322.23 1177.07 1328.78 1166.48 1356.73 L 1168.13 1357.29 C 1179.67 1338.97 1192.72 1327.79 1212.53 1319.06 C 1206.99 1339.4 1199.57 1358.56 1195.5 1379.3 L 1197.44 1380.48 C 1203.78 1360.87 1211.07 1346.02 1220.62 1327.86 C 1218.83 1355.54 1217.88 1373.4 1223.94 1401.41 L 1226.97 1400.17 C 1225.81 1354.44 1226.53 1310.2 1259.06 1274.22 C 1265.99 1266.56 1279.83 1254.43 1289.49 1264.84 C 1297.72 1273.69 1295.94 1292.76 1295.9 1304.03 C 1295.97 1333.28 1272.27 1375.42 1270.61 1401.73 L 1272.48 1402.3 C 1274.47 1394.07 1285.41 1364.38 1292.14 1360.36 C 1298.45 1363.91 1307.35 1415.95 1308.44 1424.87 C 1310.65 1421.36 1310.01 1419.87 1310.4 1415.65 C 1309.08 1384.59 1302.7 1354.49 1312.89 1325.99 C 1335.98 1345.68 1351.55 1364.81 1364.53 1392.73 C 1359.65 1349.92 1331.12 1332.7 1317.83 1297.37 C 1308.52 1272.65 1303.29 1217.86 1299.92 1189.65 C 1318.19 1202.25 1330.1 1215.42 1344.97 1231.39 C 1389.17 1278.88 1427.62 1357.15 1384.43 1417.27 C 1370.64 1436.46 1356.7 1448.26 1352.67 1472.79 L 1354.27 1473.05 C 1359.93 1457.05 1365.24 1447.41 1381.29 1439.53 C 1384.11 1449.97 1384.66 1460.68 1385.18 1471.46 C 1385.97 1475.47 1385.56 1477.31 1387.54 1480.79 C 1390.72 1457.94 1387.55 1420.05 1403.88 1401.68 C 1409.66 1395.17 1422.1 1410.49 1424.36 1416.69 C 1435.28 1446.59 1432.51 1475.34 1424.51 1505.54 L 1426.42 1506.29 C 1427.26 1502.4 1432.9 1489.1 1434.61 1483.57 C 1438.1 1472.27 1440.76 1462 1443.66 1450.55 C 1458.15 1462.63 1465.32 1469.87 1471.38 1487.96 L 1473.64 1486.23 C 1471.31 1465.23 1457.14 1453.66 1445.74 1437.64 C 1439.89 1429.34 1435.09 1420.35 1431.46 1410.86 C 1427.71 1400.91 1421.93 1376.74 1426.38 1366.86 L 1428.49 1366.24 C 1440.79 1368.74 1481.63 1397.93 1492.16 1407.76 C 1498.34 1413.52 1504 1420.18 1509 1427.07 L 1510.32 1427.02 C 1498.34 1398.67 1471.91 1385.18 1450.5 1365.21 C 1435.54 1351.28 1426.51 1339.16 1417.43 1320.96 C 1412.69 1311.46 1389.68 1255.87 1391.75 1249.46 C 1402.39 1242.07 1423.87 1250.25 1432.88 1257.62 C 1452.81 1273.93 1459.65 1299.79 1462.24 1324.26 C 1462.67 1324.74 1463.1 1325.22 1463.53 1325.7 C 1464.22 1324.97 1464.72 1321.05 1465.04 1319.76 C 1465.06 1306.12 1463.29 1292.4 1461.87 1278.81 C 1476.93 1288.61 1481.97 1302.68 1492.85 1316.54 C 1497.62 1322.62 1501.06 1326.07 1506.75 1331.31 L 1508.83 1330.43 C 1506.48 1328.04 1504.31 1325.49 1502.31 1322.81 C 1498.14 1317.31 1480.74 1295.26 1489.05 1290.07 C 1499.78 1289.4 1509.44 1294.86 1520.26 1297.77 L 1521.27 1298.04 C 1511.45 1292.09 1500.14 1287.42 1489.98 1281.86 C 1479.86 1277.11 1470.28 1270.39 1460.85 1264.9 C 1439.64 1252.54 1435.52 1236.42 1463.81 1230.24 C 1479.63 1226.78 1494.78 1235.64 1507.91 1244.14 L 1510.55 1243.35 C 1490.54 1228.08 1481.99 1220.36 1456.83 1218.36 C 1454.78 1197.08 1451.35 1190.99 1439.15 1173.4 C 1444.84 1174.53 1447.77 1174.81 1453.46 1175.22 C 1461.13 1174.91 1475.51 1176.65 1480.01 1173.39 C 1438.34 1169.64 1398.78 1141.77 1369.65 1113.07 C 1380.89 1110.48 1393.25 1110.12 1404.74 1109.92 C 1449.36 1109.15 1474.37 1117.83 1513.78 1135.35 C 1497.19 1124.04 1479.46 1114.48 1460.89 1106.83 C 1455.05 1104.36 1435.01 1097.62 1432.3 1094.76 C 1433.66 1092.16 1448.53 1085.72 1452.27 1083.68 C 1461.21 1078.78 1469.7 1073.57 1478.37 1068.23 L 1477.71 1066.4 C 1460.54 1074.22 1445.69 1080.99 1427.02 1085.05 C 1382.29 1094.79 1313.12 1089.32 1274.27 1064.7 C 1265.86 1059.35 1258.09 1053.04 1251.14 1045.89 C 1232.73 1027.31 1216.46 1002.71 1200.84 981.724 C 1194.61 973.352 1189.45 961.364 1197.37 952.665 C 1223.06 924.47 1276.64 954.94 1298.85 972.967 C 1322.65 992.292 1329.86 1023.8 1332.24 1052.27 C 1333.67 1050.98 1334.44 1050.64 1335.1 1048.97 C 1335.69 1040.02 1335.86 1031.47 1336.05 1022.51 C 1343.38 1027.95 1352.33 1035.64 1359.64 1041.54 L 1361.49 1040.61 C 1349.9 1028.83 1330.53 1006.09 1335.28 987.843 C 1343.06 979.384 1349.41 981.118 1358.79 986.136 C 1388.84 1002.21 1391.83 1033.39 1419.92 1052.07 C 1405.18 1034.88 1398.91 1025.85 1393.31 1003.61 C 1402.77 1009.36 1412.29 1015.02 1421.86 1020.58 C 1407.59 1006.83 1386.78 986.27 1368.03 980.251 C 1338.46 970.762 1287.34 956.29 1272.07 925.792 C 1288.06 920.962 1303.87 921.208 1320 922.166 C 1398.58 926.834 1390.04 984.009 1456.44 1004.61 C 1421.66 985.965 1414.88 976.822 1394.7 944.065 C 1408.45 941.532 1434.96 940.488 1449.29 940.005 C 1447.29 939.337 1445.37 938.696 1443.38 937.973 C 1431.86 938.433 1382.32 931.534 1373.68 925.736 C 1368.08 916.464 1384.77 909.471 1391.32 906.096 C 1403.53 899.803 1417.17 894.74 1428.78 887.448 C 1407.03 894.887 1341.8 916.707 1322.99 899.301 C 1322.81 895.705 1329.74 885.311 1332.1 882.044 C 1349.81 857.535 1374.5 846.498 1403.5 841.718 C 1394.69 840.312 1393.44 840.954 1384.64 840.874 C 1372.14 841.558 1361.37 846.437 1349.88 845.846 C 1348.46 845.773 1348.25 844.647 1347.32 843.146 C 1347.3 835.602 1360.62 814.491 1365.05 807.867 L 1362.36 806.874 C 1339.21 823.375 1333.44 862.313 1315.03 878.933 C 1288.28 903.089 1251.04 907.638 1216.51 905.868 C 1212.97 905.827 1206.8 905.038 1204.66 901.604 C 1188.39 875.572 1234.41 827.379 1249.28 813.217 C 1272.77 790.848 1315.57 773.653 1345.99 775.273 C 1346.33 774.45 1346.52 774.254 1346.57 773.448 C 1334.07 770.907 1324.48 768.9 1311.79 767.659 C 1317.83 761.608 1326.21 753.671 1331.49 747.233 C 1321.96 753.92 1289.04 778.727 1279.4 769.336 C 1275.32 755.418 1302.87 718.307 1312.42 707.639 C 1279.85 729.869 1280.32 742.155 1261.62 771.637 C 1248.21 792.752 1229.15 809.689 1206.61 820.527 C 1200.34 783.155 1209.32 747.826 1229.74 715.645 C 1234.95 707.444 1247.75 697.897 1254.96 690.928 C 1264.44 681.761 1270.49 673.062 1276.46 661.319 C 1263.27 674.238 1251.49 687.369 1233.92 693.971 C 1232.16 674.54 1230.23 656.669 1228.04 637.282 C 1226.51 649.223 1225.07 661.076 1224.15 673.081 C 1223.41 682.655 1222.18 701.806 1209.97 703.707 C 1195.87 700.252 1184.63 651.79 1181.2 637.555 C 1180.76 646.904 1180.36 659.723 1182.01 668.752 C 1185.11 685.698 1220.9 792.704 1169 743.6 C 1162.78 737.719 1156.21 729.509 1151.22 722.553 C 1147.56 717.474 1144 712.314 1140.57 707.077 z" fill="rgb(196,143,81)" transform="translate(0,0)"></path>
<path d="M 1480.01 1173.39 C 1484.99 1173.83 1488.49 1174.46 1493.33 1175.52 C 1483.96 1175.96 1462.3 1176.81 1453.46 1175.22 C 1461.13 1174.91 1475.51 1176.65 1480.01 1173.39 z" fill="rgb(113,80,48)" transform="translate(0,0)"></path>
<path d="M 1310.4 1415.65 C 1311.11 1423.31 1310.87 1428.82 1311.07 1436.34 L 1309.84 1436.13 C 1309.12 1432.05 1309.09 1428.59 1308.44 1424.87 C 1310.65 1421.36 1310.01 1419.87 1310.4 1415.65 z" fill="rgb(81,57,38)" transform="translate(0,0)"></path>
<path d="M 1335.1 1048.97 C 1335.12 1053.52 1333.6 1062.91 1332.93 1067.85 C 1332.46 1062.79 1331.79 1057.3 1332.24 1052.27 C 1333.67 1050.98 1334.44 1050.64 1335.1 1048.97 z" fill="rgb(81,57,38)" transform="translate(0,0)"></path>
<path d="M 1473.64 1486.23 C 1474.72 1491.59 1474.09 1498.19 1473.58 1503.6 C 1473.03 1498.36 1472.3 1493.15 1471.38 1487.96 L 1473.64 1486.23 z" fill="rgb(33,23,16)" transform="translate(0,0)"></path>
<path d="M 1385.18 1471.46 C 1385.97 1475.47 1385.56 1477.31 1387.54 1480.79 C 1387.01 1483.12 1386.87 1484.87 1386.61 1487.23 C 1386.04 1488.34 1386.09 1488.19 1385.84 1489.41 L 1385.36 1489.44 C 1384.72 1488.83 1385.16 1473.48 1385.18 1471.46 z" fill="rgb(33,23,16)" transform="translate(0,0)"></path>
<path d="M 1465.04 1319.76 C 1465.07 1328.5 1464.71 1329.05 1463.33 1337.67 C 1463.02 1334.1 1462.24 1327.61 1462.24 1324.26 C 1462.67 1324.74 1463.1 1325.22 1463.53 1325.7 C 1464.22 1324.97 1464.72 1321.05 1465.04 1319.76 z" fill="rgb(81,57,38)" transform="translate(0,0)"></path>
<path d="M 1384.64 840.874 C 1389.13 839.864 1402 838.765 1405.57 841.308 L 1405.55 841.474 C 1405.08 841.82 1403.97 841.714 1403.5 841.718 C 1394.69 840.312 1393.44 840.954 1384.64 840.874 z" fill="rgb(151,111,69)" transform="translate(0,0)"></path>
<path d="M 1142.65 1289.98 C 1144.03 1284.08 1144.9 1280.42 1147.3 1274.68 L 1149.36 1275.48 C 1147.2 1280.4 1144.92 1285.12 1142.65 1289.98 z" fill="rgb(33,23,16)" transform="translate(0,0)"></path>
<path d="M 1510.55 1243.35 C 1510.49 1243.3 1517.31 1248.38 1515.09 1248.86 C 1513.8 1249.15 1509.15 1245.21 1507.91 1244.14 L 1510.55 1243.35 z" fill="rgb(113,80,48)" transform="translate(0,0)"></path>
<path d="M 1272.48 1402.3 C 1272.04 1403.65 1270.42 1411.17 1269.5 1411.42 L 1269.32 1411.25 C 1268.68 1408.87 1269.81 1404.02 1270.61 1401.73 L 1272.48 1402.3 z" fill="rgb(81,57,38)" transform="translate(0,0)"></path>
<path d="M 1227.18 1405.34 C 1227.55 1406.98 1228.88 1413.13 1227.7 1414.37 C 1226.29 1414.26 1225.49 1407.88 1225.27 1406.8 L 1227.18 1405.34 z" fill="rgb(81,57,38)" transform="translate(0,0)"></path>
<path d="M 1362.36 806.874 C 1365.84 803.176 1368.61 800.947 1372.42 797.611 C 1369.87 801.075 1367.42 804.255 1365.05 807.867 L 1362.36 806.874 z" fill="rgb(33,23,16)" transform="translate(0,0)"></path>
<path d="M 1226.97 1400.17 C 1227 1401.9 1227.07 1403.62 1227.18 1405.34 L 1225.27 1406.8 C 1224.86 1405 1224.42 1403.2 1223.94 1401.41 L 1226.97 1400.17 z" fill="rgb(33,23,16)" transform="translate(0,0)"></path>
<path d="M 1508.83 1330.43 C 1511.9 1333.12 1513.92 1335.69 1516.52 1338.77 C 1513.46 1336.46 1509.59 1333.73 1506.75 1331.31 L 1508.83 1330.43 z" fill="rgb(81,57,38)" transform="translate(0,0)"></path>
<path d="M 1510.32 1427.02 C 1515.4 1431.42 1512.37 1436.69 1509 1427.07 L 1510.32 1427.02 z" fill="rgb(151,111,69)" transform="translate(0,0)"></path>
<path d="M 1477.71 1066.4 C 1478.45 1065.9 1482.51 1063.11 1483.29 1064.49 C 1482.96 1065.86 1479.46 1067.59 1478.37 1068.23 L 1477.71 1066.4 z" fill="rgb(81,57,38)" transform="translate(0,0)"></path>
<path d="M 1346.57 773.448 C 1354.35 774.713 1350.36 776.762 1345.99 775.273 C 1346.33 774.45 1346.52 774.254 1346.57 773.448 z" fill="rgb(113,80,48)" transform="translate(0,0)"></path>
<path d="M 1195.91 1384.08 C 1195.54 1385.28 1194.9 1389.93 1193.66 1390.12 C 1192.72 1389.07 1194.07 1384.71 1194.41 1383.49 L 1195.91 1384.08 z" fill="rgb(151,111,69)" transform="translate(0,0)"></path>
<path d="M 1443.38 937.973 C 1445.72 938.032 1450.47 937.912 1452.52 939.276 L 1452.59 939.447 C 1452.23 940.197 1449.75 939.985 1449.29 940.005 C 1447.29 939.337 1445.37 938.696 1443.38 937.973 z" fill="rgb(113,80,48)" transform="translate(0,0)"></path>
<path d="M 1311.07 1436.34 C 1313.01 1442.9 1309.84 1444.83 1309.84 1436.13 L 1311.07 1436.34 z" fill="rgb(151,111,69)" transform="translate(0,0)"></path>
<path d="M 1361.49 1040.61 C 1362.36 1041.19 1365.5 1043.11 1365.26 1044.39 C 1363.97 1045.05 1360.43 1042.13 1359.64 1041.54 L 1361.49 1040.61 z" fill="rgb(81,57,38)" transform="translate(0,0)"></path>
<path d="M 1166.48 1356.73 L 1168.13 1357.29 C 1164.63 1364.44 1163.78 1361.87 1166.48 1356.73 z" fill="rgb(81,57,38)" transform="translate(0,0)"></path>
<path d="M 1426.42 1506.29 C 1423.48 1511.72 1422.65 1510.58 1424.51 1505.54 L 1426.42 1506.29 z" fill="rgb(81,57,38)" transform="translate(0,0)"></path>
<path d="M 1195.5 1379.3 L 1197.44 1380.48 C 1196.92 1381.68 1196.41 1382.88 1195.91 1384.08 L 1194.41 1383.49 C 1194.76 1381.84 1194.88 1380.8 1195.5 1379.3 z" fill="rgb(33,23,16)" transform="translate(0,0)"></path>
<path d="M 1354.27 1473.05 C 1354.02 1473.66 1352.85 1477.14 1352.4 1477.41 L 1352.25 1477.28 C 1351.79 1475.95 1352.37 1474.1 1352.67 1472.79 L 1354.27 1473.05 z" fill="rgb(81,57,38)" transform="translate(0,0)"></path>
<path d="M 1203.41 1252.32 L 1204.89 1255.2 C 1204.52 1255.68 1204.1 1256.64 1203.37 1256.61 C 1202.38 1255.96 1203.13 1253.23 1203.41 1252.32 z" fill="rgb(81,57,38)" transform="translate(0,0)"></path>
<path d="M 983.016 933.763 C 968.937 990.013 960.547 1036.88 960.223 1095.14 C 959.792 1172.68 974.254 1250.64 954.871 1326.66 C 936.373 1399.2 892.531 1442.94 824.532 1470.95 C 799.644 1480.01 777.551 1489.65 752.739 1499.4 C 704.196 1518.48 634.269 1585.7 580.464 1572.98 C 535.002 1562.23 511.249 1488.94 501.039 1448.11 C 466.364 1309.43 489.91 1161.86 526.429 1026.05 C 539.219 978.375 555.864 930.848 575.828 885.696 C 590.412 852.976 610.388 821.882 629.564 791.178 C 673.574 720.714 727.536 635.563 800.47 592.444 C 820.163 580.801 853.702 569.434 876.37 576.762 C 899.849 584.351 915.204 604.622 926.428 625.742 C 953.498 676.684 959.013 761.923 942.478 817.137 C 933.193 848.138 916.86 877.462 887.384 892.816 C 872.003 873.63 864.689 791.132 873.249 767.177 C 879.353 750.095 900.638 729.677 906.495 706.955 C 905.264 709.086 903.998 711.197 902.697 713.286 C 897.222 722.048 865.534 766.55 855.546 754.006 C 846.809 743.035 858.406 697.852 861.7 684.48 C 864.167 674.466 865.291 665.502 866.457 656.126 C 866.345 654.647 866.165 646.719 865.301 645.919 C 864.934 646.08 864.791 646.366 864.495 646.717 C 863.037 657.737 852.292 693.054 842.944 700.486 C 840.21 702.66 838.462 702.295 835.554 701.769 C 821.354 691.793 824.097 656.356 820.798 639.773 C 817.677 660.053 816.097 674.217 814.57 694.619 C 798.016 685.65 787.335 676.33 773.348 663.562 C 778.463 671.586 787.84 685.975 795.094 691.906 C 815.242 708.38 821.353 717.095 830.978 741.247 C 841.51 767.678 852.431 791.399 841.359 820.228 C 779.203 793.132 784.23 741.59 737.295 708.173 C 748.6 721.15 768.651 751.61 770.329 768.885 C 762.36 781.631 725.825 753.02 717.398 747.204 C 723.256 753.505 730.468 760.636 735.976 766.942 C 722.968 769.51 705.489 772.656 692.418 774.199 C 747.972 779.54 782.419 789.449 819.725 835.243 C 830.255 848.17 860.02 886.164 841.883 903.738 C 832.611 908.016 802.447 905.89 793.639 905.021 C 772.292 902.913 739.208 890.753 727.055 871.976 C 709.184 844.365 705.119 820.46 677.39 797.744 C 687.709 813.513 697.471 827.343 701.059 846.224 C 686.194 844.697 673.258 840.846 658.111 839.875 C 654.684 842.129 654.854 842.481 650.949 842.488 C 685.576 849.034 710.638 867.48 726.4 899.23 C 705.989 910.319 673.761 904.029 652.444 897.694 C 644.702 895.34 636.992 892.881 629.317 890.318 L 628.697 892.229 C 647.007 902.474 671.149 907.937 678.962 924.91 C 665.484 930.539 618.496 938.101 603.986 937.861 C 603.138 938.712 602.277 939.548 601.401 940.37 C 614.343 939.556 641.011 942.068 653.443 944.479 C 637.63 971.561 628.598 983.421 600.572 999.927 L 602.162 1001.3 C 627.94 990.205 639.474 978.763 656.65 956.725 C 681.57 924.75 740.094 913.465 777.106 925.864 C 759.335 949.143 726.802 967.468 698.97 974.796 C 667.211 983.158 646.796 993.587 626.808 1021.62 C 637.287 1014.63 644.876 1008.83 656.878 1004.67 C 645.961 1031.03 644.867 1030.41 628.249 1052.62 C 636.27 1046.41 644.666 1039.03 650.525 1030.65 C 667.39 1006.54 671.121 990.151 702.449 982.48 C 706.955 983.828 710.171 984.353 713.772 987.331 C 721.664 1002.17 690.297 1037.12 680.986 1046.97 C 693.03 1039.57 701.395 1031.66 711.847 1022.32 C 712.796 1039.09 713.267 1049.64 716.554 1066.16 C 717.834 1038.12 718.559 1000.5 743.689 979.456 C 766.799 960.101 819.37 924.352 849.831 950.251 C 862.165 965.57 842.889 987.354 835.329 997.555 C 818.147 1020.74 799.638 1047.84 775.607 1063.62 C 719.793 1100.26 627.646 1096.08 570.695 1066.47 L 569.99 1068.03 C 588.134 1080.61 602.698 1084.42 618.392 1094.39 C 590.476 1107.27 573.408 1111.03 545.036 1128.12 L 547.119 1129.22 C 581.675 1114.65 614.721 1109.19 652.055 1109.78 C 658.46 1109.88 673.909 1108.11 676.794 1114.45 C 671.571 1120.11 663.285 1125.89 657.174 1131.05 C 632.873 1151.57 601.891 1170.7 569.197 1173.3 C 569.812 1176.41 590.257 1174.97 594.525 1175.16 C 599.427 1174.79 603.788 1174.54 608.657 1173.73 C 596.255 1190.91 593.448 1197.75 592.452 1218.99 C 571.847 1216.71 556.088 1228.95 540.47 1241.66 C 539.774 1242.23 539.087 1242.82 538.409 1243.41 L 540.568 1244.6 C 557.848 1231.33 590.182 1222.5 603.556 1240.55 C 615.913 1257.22 543.025 1288.24 533.437 1294.23 L 535.223 1295.26 C 545.672 1291.82 552.631 1290.25 563.679 1289.32 C 555.326 1313.18 547.705 1318.68 533.585 1337.82 C 543.323 1330.91 546.202 1327.55 553.905 1318.48 C 561.283 1309.8 574.977 1285.42 585.986 1282.13 L 587.451 1282.73 C 588.595 1286.91 584.313 1305.33 583.704 1312.19 C 584.764 1312.95 585.838 1313.69 586.925 1314.41 C 591.721 1288.52 598.479 1271.12 620.876 1255.26 C 634.323 1245.74 642.683 1245.37 658.066 1247.62 C 654.276 1262.24 649.333 1274.7 644.203 1288.57 C 630.868 1324.64 618.579 1349.54 587.837 1373.99 C 568.45 1389.41 552.068 1400.03 540.278 1422.65 L 542.232 1423.41 C 554.621 1407.03 601.76 1371.74 619.713 1366.07 L 621.586 1366.35 C 626.072 1373.85 621.35 1390.08 620.395 1398.05 C 616.664 1429.2 577.31 1458.74 574.381 1486.2 L 576.33 1489.73 C 580.295 1473.19 590.836 1459.08 606.077 1451.39 C 609.492 1470.06 614.338 1492.97 624.224 1509.52 L 624.581 1508.14 C 615.546 1481.96 613.046 1445.29 623.299 1419.35 C 635.2 1389.24 651.777 1398.56 656.706 1425.38 C 660.133 1444.02 658.2 1462.91 661.306 1481.74 L 661.481 1482.75 C 662.541 1481.54 662.423 1481.45 663.821 1481.2 C 664.071 1472.16 662.997 1448.71 669.896 1443.47 C 681.027 1442.62 688.752 1460.02 691.978 1468.82 L 695.169 1467.11 C 691.977 1449.96 679.669 1436.29 669.013 1422.9 C 606.94 1344.91 682.612 1236.4 749.239 1189.05 C 745.726 1218.15 739.518 1282.07 726.901 1306.14 C 707.458 1343.23 693.171 1348.21 683.093 1394.47 C 695.487 1370.01 712.249 1342.44 735.882 1327.34 C 747.587 1359.13 737.987 1381.69 736.856 1413.16 L 736.818 1414.49 C 736.915 1416.95 735.881 1426.89 737.286 1428.43 C 737.591 1428.77 738.368 1428.78 738.658 1428.83 C 740.379 1411.44 749.51 1375.03 755.899 1359.18 C 764.02 1371.74 770.754 1387.42 775.481 1401.59 L 777.638 1400.66 C 770.225 1363.63 750.794 1332.82 752.219 1293.5 C 752.549 1284.41 752.628 1270.59 759.843 1263.98 C 762.173 1261.82 765.285 1260.7 768.458 1260.89 C 776.401 1261.33 783.986 1268.6 789.035 1274.22 C 822.458 1311.45 823.647 1352.28 821.489 1399.57 C 822.16 1402.26 822.15 1402.36 823.397 1404.77 C 829.506 1375.99 830.201 1357.79 827.624 1328.96 C 834.201 1341.36 849.028 1370.46 851.447 1383.33 L 853.394 1382.75 C 849.447 1360.83 842.969 1339.45 834.091 1319.02 C 859.319 1327.65 870.831 1342.29 884.216 1364.02 C 875.07 1332.15 855.912 1325.53 832.84 1305.42 C 825.195 1298.17 819.684 1281.71 813.181 1274.69 C 784.43 1243.66 760.23 1227.5 773.985 1180.54 C 782.716 1150.73 799.537 1102.2 828.095 1084.53 C 828.858 1090.36 829.115 1096.83 829.672 1102.73 C 831.602 1123.16 837.855 1139.87 832.742 1160.44 C 824.724 1192.69 828.689 1221.32 842.65 1251.5 L 844.6 1250.25 C 839.524 1224.41 838.616 1197.97 846.183 1172.51 C 847.42 1168.35 848.53 1160.54 852.537 1158.35 C 858.989 1160.57 869.128 1176.41 872.041 1182.78 C 885.874 1213.05 882.815 1237.93 896.303 1270.16 L 898.441 1268.44 C 892.615 1245.34 891.227 1222.04 887.058 1198.63 C 885.704 1191.03 884.696 1183.25 883.679 1175.6 C 898.434 1191.11 906.908 1199.58 919.724 1217.28 C 906.554 1182.38 887.321 1169.35 868.088 1140.04 C 806.682 1046.44 915.109 978.012 983.016 933.763 z" fill="rgb(216,161,94)" transform="translate(0,0)"></path>
<path d="M 583.704 1312.19 C 584.764 1312.95 585.838 1313.69 586.925 1314.41 C 586.619 1320.68 586.552 1326.79 586.457 1333.06 C 586.447 1333.72 585.654 1333.66 585.612 1333.42 C 584.434 1326.76 584.038 1319.04 583.704 1312.19 z" fill="rgb(81,57,38)" transform="translate(0,0)"></path>
<path d="M 555.78 1174.87 C 557.847 1174.53 559.917 1174.16 562.002 1173.95 C 564.396 1173.69 566.795 1173.48 569.197 1173.3 C 569.812 1176.41 590.257 1174.97 594.525 1175.16 C 582.654 1176.91 567.695 1176 555.78 1174.87 z" fill="rgb(151,111,69)" transform="translate(0,0)"></path>
<path d="M 738.658 1428.83 C 738.531 1430.53 737.78 1443.16 737.187 1443.51 C 734.742 1442.65 736.278 1417.97 736.818 1414.49 C 736.915 1416.95 735.881 1426.89 737.286 1428.43 C 737.591 1428.77 738.368 1428.78 738.658 1428.83 z" fill="rgb(81,57,38)" transform="translate(0,0)"></path>
<path d="M 864.495 646.717 C 864.18 644.636 864.037 642.642 864.138 640.533 L 864.924 639.652 L 864.324 639.545 C 864.505 639.074 864.347 639.261 864.822 639.007 C 867.726 639.763 866.859 653.433 866.457 656.126 C 866.345 654.647 866.165 646.719 865.301 645.919 C 864.934 646.08 864.791 646.366 864.495 646.717 z" fill="rgb(151,111,69)" transform="translate(0,0)"></path>
<path d="M 896.303 1270.16 L 898.441 1268.44 L 904.029 1284.45 C 900.782 1279.58 898.428 1275.69 896.303 1270.16 z" fill="rgb(33,23,16)" transform="translate(0,0)"></path>
<path d="M 777.638 1400.66 C 778.107 1402.53 780.604 1411.83 779.431 1413.13 C 778.288 1413.17 775.872 1403.15 775.481 1401.59 L 777.638 1400.66 z" fill="rgb(81,57,38)" transform="translate(0,0)"></path>
<path d="M 547.119 1129.22 L 546.808 1129.4 C 532.651 1137.88 530.809 1134.51 545.036 1128.12 L 547.119 1129.22 z" fill="rgb(113,80,48)" transform="translate(0,0)"></path>
<path d="M 661.481 1482.75 C 662.541 1481.54 662.423 1481.45 663.821 1481.2 C 664.234 1486.24 664.119 1491.15 664.108 1496.2 C 662.38 1489.33 662.185 1489.95 661.481 1482.75 z" fill="rgb(33,23,16)" transform="translate(0,0)"></path>
<path d="M 576.013 1492.78 C 575.828 1494.11 575.897 1504.07 573.989 1502.73 C 572.907 1500.28 572.886 1496.28 573.629 1493.62 L 576.013 1492.78 z" fill="rgb(113,80,48)" transform="translate(0,0)"></path>
<path d="M 648.433 839.848 C 651.81 839.951 654.746 839.934 658.111 839.875 C 654.684 842.129 654.854 842.481 650.949 842.488 L 645.834 842.429 C 646.703 841.549 647.532 840.696 648.433 839.848 z" fill="rgb(33,23,16)" transform="translate(0,0)"></path>
<path d="M 821.489 1399.57 C 822.16 1402.26 822.15 1402.36 823.397 1404.77 L 823.128 1406.25 C 822.789 1408.32 822.329 1410.35 822 1412.42 L 820.639 1410.78 C 821.017 1406.93 820.986 1403.39 821.489 1399.57 z" fill="rgb(33,23,16)" transform="translate(0,0)"></path>
<path d="M 853.394 1382.75 C 854.113 1384.45 855.005 1388.5 854.64 1390.28 C 853.055 1391.39 851.792 1384.41 851.447 1383.33 L 853.394 1382.75 z" fill="rgb(113,80,48)" transform="translate(0,0)"></path>
<path d="M 695.286 1472.32 C 696.985 1475.95 695.301 1484.53 693.497 1473.64 C 694.554 1473.4 694.785 1473.27 695.286 1472.32 z" fill="rgb(81,57,38)" transform="translate(0,0)"></path>
<path d="M 695.169 1467.11 C 695.135 1468.88 695.218 1470.56 695.286 1472.32 C 694.785 1473.27 694.554 1473.4 693.497 1473.64 C 693.005 1471.93 692.619 1470.49 691.978 1468.82 L 695.169 1467.11 z" fill="rgb(33,23,16)" transform="translate(0,0)"></path>
<path d="M 542.232 1423.41 C 541.735 1424.18 538.439 1429.56 537.381 1429.48 C 536.273 1428.48 539.575 1423.57 540.278 1422.65 L 542.232 1423.41 z" fill="rgb(33,23,16)" transform="translate(0,0)"></path>
<path d="M 538.409 1243.41 L 540.568 1244.6 C 539.919 1245.03 533.906 1249.49 533.498 1248.31 L 534.161 1248.2 L 533.509 1248.17 L 534.517 1247.99 L 534.343 1246.82 C 535.644 1245.64 537.013 1244.49 538.409 1243.41 z" fill="rgb(81,57,38)" transform="translate(0,0)"></path>
<path d="M 602.162 1001.3 C 600.951 1001.75 595.837 1004.17 594.637 1003.43 L 594.681 1003.17 L 595.919 1002.23 L 595.415 1002.53 C 597.026 1001.47 598.821 1000.72 600.572 999.927 L 602.162 1001.3 z" fill="rgb(81,57,38)" transform="translate(0,0)"></path>
<path d="M 574.381 1486.2 L 576.33 1489.73 C 576.224 1490.75 576.118 1491.76 576.013 1492.78 L 573.629 1493.62 C 573.851 1491.15 574.102 1488.67 574.381 1486.2 z" fill="rgb(33,23,16)" transform="translate(0,0)"></path>
<path d="M 535.223 1295.26 C 534.546 1295.64 529.456 1298.9 528.827 1297.46 C 529.607 1295.88 531.891 1294.88 533.437 1294.23 L 535.223 1295.26 z" fill="rgb(113,80,48)" transform="translate(0,0)"></path>
<path d="M 844.6 1250.25 C 844.998 1251.44 845.941 1254.47 845.363 1255.55 C 844.529 1255.81 842.835 1251.85 842.65 1251.5 L 844.6 1250.25 z" fill="rgb(33,23,16)" transform="translate(0,0)"></path>
<path d="M 628.697 892.229 C 621.598 888.455 622.513 887.018 629.317 890.318 L 628.697 892.229 z" fill="rgb(81,57,38)" transform="translate(0,0)"></path>
<path d="M 601.401 940.37 C 600.696 940.256 597.818 940.153 597.441 939.385 C 598.416 938.278 602.615 937.996 603.986 937.861 C 603.138 938.712 602.277 939.548 601.401 940.37 z" fill="rgb(151,111,69)" transform="translate(0,0)"></path>
<path d="M 569.99 1068.03 C 569.338 1067.57 565.593 1065.39 565.754 1064.33 C 567.162 1063.53 569.633 1065.69 570.695 1066.47 L 569.99 1068.03 z" fill="rgb(113,80,48)" transform="translate(0,0)"></path>
<path d="M 645.834 842.429 L 645.166 842.306 C 644.544 842.198 642.723 842.178 642.619 841.222 C 643.623 840.088 647.063 839.994 648.433 839.848 C 647.532 840.696 646.703 841.549 645.834 842.429 z" fill="rgb(113,80,48)" transform="translate(0,0)"></path>
<path d="M 822 1412.42 C 821.792 1413.48 821.713 1414.86 820.788 1415.5 C 819.286 1415.04 820.393 1411.73 820.639 1410.78 L 822 1412.42 z" fill="rgb(151,111,69)" transform="translate(0,0)"></path>
<path d="M 1303.92 1112.33 C 1312.91 1112.01 1321.9 1112.81 1330.69 1114.7 C 1366.82 1122.65 1394.13 1144.37 1420.94 1168.54 C 1436.31 1182.4 1463.83 1211.52 1434.39 1226.51 C 1379.76 1243.6 1352.25 1209.57 1327.44 1167.49 C 1321.12 1156.77 1294.4 1127.02 1295.68 1114.97 C 1299.02 1112.27 1298.93 1113.07 1303.92 1112.33 z" fill="rgb(196,143,81)" transform="translate(0,0)"></path>
<path d="M 740.767 1113.44 C 745.033 1113.61 752.425 1112.87 753.736 1117.47 C 746.356 1138.63 709.469 1180.3 696.386 1202.15 C 681.247 1227.42 644.252 1235.42 616.484 1228.35 C 593.149 1218.72 598.594 1198.06 613.476 1182.93 C 649.603 1146.2 687.64 1116.06 740.767 1113.44 z" fill="rgb(216,161,94)" transform="translate(0,0)"></path>
<path d="M 1026.05 498.85 L 1024.75 498.83 C 1015.06 498.609 996.132 497.243 989.161 490.209 C 986.302 482.858 984.63 458.179 995.057 455.981 C 1004.48 453.995 1061.04 448.806 1063.14 463.049 C 1065.1 476.239 1063.9 501.558 1064.2 515.7 C 1063.65 537.873 1065.07 563.608 1063.95 585.167 C 1043.68 587.535 1010.08 584.836 988.035 584.849 L 988.035 560.144 C 1002.02 559.744 1039.19 559.382 1051.21 556.589 C 1047.28 556.166 1045.49 555.96 1041.59 555.076 C 1025.78 554.998 1004.82 553.08 987.983 552.547 C 987.97 544.104 988.216 536.801 988.695 528.367 C 1010.36 526.632 1029.75 527.579 1052.33 524.835 C 1034.61 521.456 1006.45 519.56 988.26 518.849 L 988.432 502.084 C 1001.61 503.113 1007.31 501.261 1019.43 501.158 C 1021.87 500.194 1023.52 499.559 1026.05 498.85 z" fill="rgb(196,143,81)" transform="translate(0,0)"></path>
<path d="M 1026.05 498.85 C 1027.74 498.85 1028.78 498.722 1030.36 499.269 L 1030.47 499.452 C 1029.86 500.406 1020.87 501.09 1019.43 501.158 C 1021.87 500.194 1023.52 499.559 1026.05 498.85 z" fill="rgb(151,111,69)" transform="translate(0,0)"></path>
<path d="M 1041.59 555.076 C 1043.09 555.016 1052.98 553.604 1051.21 556.589 C 1047.28 556.166 1045.49 555.96 1041.59 555.076 z" fill="rgb(151,111,69)" transform="translate(0,0)"></path>
<path d="M 1070.78 823.271 L 1072.46 823.736 C 1075.9 829.566 1079.07 835.547 1082.28 841.503 C 1063.47 854.777 1043.12 866.446 1024.59 880.463 C 1015.98 875.058 1005.71 867.681 997.193 861.865 C 987.367 854.432 977.185 847.482 966.684 841.039 L 974.423 825.803 C 1007.23 825.629 1039.33 830.555 1070.78 823.271 z" fill="rgb(216,161,94)" transform="translate(0,0)"></path>
<path d="M 1126.7 492.361 C 1152.14 498.423 1177.28 505.656 1202.05 514.037 C 1364.72 570.038 1488.38 677.18 1563.9 831.986 C 1632.27 971.53 1650.35 1130.4 1615.09 1281.74 C 1605.98 1321.2 1595.88 1347.5 1583 1385 L 1582.85 1385.15 C 1581.7 1382.23 1589.04 1366.07 1590.58 1361.58 C 1599.45 1336.17 1607.06 1310.33 1613.4 1284.18 C 1631.06 1207.29 1635.36 1127.95 1626.11 1049.61 C 1598.97 824.025 1464.2 629.882 1254.6 537.785 C 1232.31 527.75 1209.48 518.961 1186.22 511.461 C 1177.42 508.683 1129.99 496.373 1126.7 492.361 z" fill="rgb(196,143,81)" transform="translate(0,0)"></path>
<path d="M 435.972 1293.29 C 434.781 1283.87 430.099 1266.26 428.067 1255.88 C 423.137 1231.1 419.588 1206.06 417.434 1180.89 C 405.449 1039.79 444.063 889.66 518.758 769.606 C 606.413 628.722 750.229 533.438 910.477 495.12 C 912.961 494.526 913.655 494.085 916.258 494.558 C 914.003 496.223 871.805 508.131 865.359 510.222 C 851.215 514.826 837.203 519.827 823.339 525.218 C 696.757 573.156 589.461 661.407 518 776.361 C 422.829 930.253 393.658 1115.99 437.074 1291.65 L 435.972 1293.29 z" fill="rgb(196,143,81)" transform="translate(0,0)"></path>
<path d="M 986.354 790.336 C 1009.75 791.312 1041.59 792.452 1064.6 791.008 C 1065.64 798.089 1067.24 805.058 1068.67 812.06 C 1068.95 813.446 1067 814.011 1066.03 814.243 L 1064.65 814.563 L 1062.78 815.022 C 1039.24 819.211 1004.95 815.126 979.691 814.964 C 981.119 810.152 982.451 805.311 983.685 800.445 C 984.517 797.049 985.255 793.658 986.354 790.336 z" fill="rgb(216,161,94)" transform="translate(0,0)"></path>
<path d="M 1057.29 593.421 C 1066.06 591.533 1063.75 594.393 1063.97 601.864 C 1064.13 606.944 1063.91 612.251 1063.78 617.334 C 1042.34 619.396 1016.52 617.384 994.75 617.033 C 993.498 617.025 989.101 617.238 988.847 616.354 C 987.847 612.868 988.411 597.226 988.435 593.807 C 1011.64 593.905 1034.48 596.167 1057.29 593.421 z" fill="rgb(196,143,81)" transform="translate(0,0)"></path>
<path d="M 988.225 756.96 C 1013.38 757.096 1038.99 760.8 1063.22 756.851 C 1063.4 764.88 1063.51 772.911 1063.54 780.942 C 1043.89 783.036 1008.57 780.972 986.852 780.703 C 987.826 771.471 987.968 766.182 988.225 756.96 z" fill="rgb(196,143,81)" transform="translate(0,0)"></path>
<path d="M 988.573 723.937 C 1010.5 724.157 1042.85 727.616 1063.78 723.884 C 1063.45 731.8 1063.22 739.719 1063.09 747.641 C 1040.77 750.36 1011.71 747.844 988.394 747.132 C 988.382 739.4 988.441 731.668 988.573 723.937 z" fill="rgb(196,143,81)" transform="translate(0,0)"></path>
<path d="M 1059.29 626.498 C 1059.65 626.386 1063.26 625.126 1063.38 626.267 C 1064.14 633.467 1063.64 642.967 1063.23 650.191 C 1041.47 652.373 1016.99 649.631 994.751 649.138 C 986.199 649.204 988.172 649.141 987.946 640.413 C 987.832 635.981 987.994 631.454 988.056 627.019 C 1007.48 626.828 1041.82 628.427 1059.29 626.498 z" fill="rgb(196,143,81)" transform="translate(0,0)"></path>
<path d="M 988.645 659.103 C 1016.72 658.945 1035.47 661.624 1063.85 658.745 C 1063.87 666.76 1063.96 674.002 1063.25 682.012 C 1049.44 684.892 1005.19 682.05 988.319 681.646 L 988.645 659.103 z" fill="rgb(196,143,81)" transform="translate(0,0)"></path>
<path d="M 988.565 691.885 C 1013.35 691.869 1039.47 695.039 1063.76 691.487 C 1063.69 699.283 1063.48 707.077 1063.14 714.866 C 1038.47 716.247 1013.13 714.911 988.373 714.141 L 988.565 691.885 z" fill="rgb(216,161,94)" transform="translate(0,0)"></path>
<path d="M 1024.09 1469.25 C 1088.29 1534.74 1153.14 1570.06 1243.86 1587.49 L 1244.15 1589.6 C 1226.49 1585.54 1211.31 1583.07 1193.64 1577.5 C 1124.97 1555.83 1074.16 1523.95 1024.18 1473.18 C 932.534 1567.31 809.198 1608.83 678.921 1589.72 C 675.49 1589.22 673.634 1588.72 669.953 1588.55 L 668.768 1588.5 L 668.83 1587.49 C 676.54 1587.21 684.61 1590.26 692.465 1590.6 C 710.48 1591.39 728.046 1592.31 746.091 1592.02 C 856.191 1590.24 947.87 1547.56 1024.09 1469.25 z" fill="rgb(151,111,69)" transform="translate(0,0)"></path>
<path d="M 460.326 1157.3 C 460.035 1117.98 460.546 1083.58 467.516 1044.53 C 489.39 921.995 544.977 797.724 631.587 707.241 C 644.169 694.097 669.812 668.745 684.416 658.464 C 683.14 663.174 660.137 681.775 654.067 687.529 C 541.902 793.836 464.311 971.758 461.564 1126.39 C 461.879 1129.95 462.205 1131.25 461.635 1134.71 L 461.669 1160.66 C 461.39 1158.85 461.589 1158.58 460.326 1157.3 z" fill="rgb(151,111,69)" transform="translate(0,0)"></path>
<path d="M 461.635 1134.71 C 459.381 1132.18 460.773 1129.47 461.564 1126.39 C 461.879 1129.95 462.205 1131.25 461.635 1134.71 z" fill="rgb(81,57,38)" transform="translate(0,0)"></path>
<path d="M 960.755 849.591 C 975.396 858.728 1001.54 876.677 1015.23 887.358 C 1010.23 891.182 1005.86 894.413 1000.51 897.801 C 998.654 899.293 996.685 900.651 994.8 902.112 C 978.169 887.345 967.333 876.773 951.59 861.201 C 956.376 856.062 956.797 855.526 960.755 849.591 z" fill="rgb(216,161,94)" transform="translate(0,0)"></path>
<path d="M 1087.32 848.953 C 1091.13 854.41 1093.31 857.463 1097.58 862.658 C 1082.53 875.484 1066.36 888.963 1050.52 900.891 C 1049.79 901.441 1047.98 899.935 1047.44 899.559 C 1042.53 895.496 1037.76 891.655 1032.89 887.488 C 1050.77 874.344 1069.66 862.244 1087.32 848.953 z" fill="rgb(196,143,81)" transform="translate(0,0)"></path>
<path d="M 1586.18 1153.41 C 1587.25 1138.94 1586.07 1109.41 1584.98 1094.71 C 1575.52 967.439 1523.14 840.538 1443.27 741.526 C 1428.92 723.414 1413.35 706.311 1396.65 690.339 C 1391.86 685.744 1366.93 664.138 1364.65 660.93 C 1367.96 661.281 1378.26 670.981 1381.27 673.622 C 1495.36 773.597 1566.56 921.613 1584.95 1071.27 C 1588.06 1096.6 1587.65 1123 1587.79 1148.38 C 1587.26 1150.06 1586.73 1151.74 1586.18 1153.41 z" fill="rgb(151,111,69)" transform="translate(0,0)"></path>
<path d="M 1104.05 871.763 C 1106.18 872.484 1116.53 882.365 1119.4 884.866 C 1106.05 896.126 1090.37 909.155 1077.51 920.861 C 1071.69 916.725 1066.04 912.365 1060.56 907.791 C 1070.43 898.517 1092.75 880.263 1104.05 871.763 z" fill="rgb(216,161,94)" transform="translate(0,0)"></path>
<path d="M 1031.33 1264.77 C 1032.12 1274.58 1032.99 1285.98 1034.21 1295.63 C 1038.02 1325.24 1046.3 1354.1 1058.77 1381.23 C 1106.18 1484.31 1201.45 1537.33 1310.93 1545.05 C 1314.46 1545.3 1324.61 1544.97 1327.07 1546.51 C 1301.76 1546.81 1276.52 1544.06 1251.87 1538.34 C 1179.67 1521.78 1113.36 1479.84 1073.91 1416.22 C 1051.02 1379.09 1036.66 1337.34 1031.86 1293.99 C 1030.93 1286.16 1029.56 1272.32 1031.33 1264.77 z" fill="rgb(196,143,81)" transform="translate(0,0)"></path>
<path d="M 1016.49 1263.79 C 1018.01 1266.69 1017.81 1271.28 1017.67 1274.66 C 1014.82 1347.66 986.913 1414.18 934.678 1465.14 C 881.541 1516.98 799.173 1547.66 725.447 1546.64 L 724.706 1545.83 C 737.534 1543.88 751.613 1544.22 767.155 1541.62 C 834.976 1530.24 889.917 1506.29 939.073 1456.76 C 986.525 1408.95 1017.29 1330.97 1016.49 1263.79 z" fill="rgb(196,143,81)" transform="translate(0,0)"></path>
<path d="M 944.096 870.104 C 953.447 875.823 975.459 898.892 986.091 908.075 C 981.095 911.867 976.007 915.537 970.833 919.083 C 970.537 919.278 969.593 919.901 969.479 919.807 C 961.468 913.196 936.72 888.598 930.386 882.976 C 934.744 878.791 939.56 873.97 944.096 870.104 z" fill="rgb(216,161,94)" transform="translate(0,0)"></path>
<path d="M 924.435 889.917 C 934.651 898.72 951.331 916.382 960.468 926.272 C 955.897 930.23 951.179 933.55 946.608 937.606 C 946.263 937.747 944.807 938.405 944.52 938.175 C 935.929 931.292 918.318 909.695 911.701 902.238 C 915.889 898.073 920.134 893.965 924.435 889.917 z" fill="rgb(216,161,94)" transform="translate(0,0)"></path>
<path d="M 1125.97 891.795 C 1130.46 895.023 1134.51 898.904 1138.56 902.659 C 1133.85 907.555 1105.71 937.409 1101.84 938.218 C 1097.23 934.667 1092.9 930.77 1088.05 927.536 L 1086.78 926.658 C 1098.91 915.135 1113.23 903.184 1125.97 891.795 z" fill="rgb(216,161,94)" transform="translate(0,0)"></path>
<path d="M 904.146 906.991 C 912.938 915.93 928.247 934.221 936.578 944.304 C 932.762 947.216 930.786 949.078 926.267 950.526 C 916.78 941.445 901.654 925.458 892.221 915.566 C 896.602 912.081 899.76 910.156 904.146 906.991 z" fill="rgb(216,161,94)" transform="translate(0,0)"></path>
<path d="M 1022.02 989.655 C 1026.19 1000.69 1023.69 1220.96 1022.45 1240.74 C 1020.61 1237.75 1021.04 1095.68 1021.03 1078.77 L 1021.02 1024.55 C 1021.03 1014.45 1020.71 999.348 1022.02 989.655 z" fill="rgb(196,143,81)" transform="translate(0,0)"></path>
<path d="M 1146.09 908.578 C 1149.36 910.048 1153.35 913.778 1156.06 916.178 C 1147.79 925.463 1130.99 942.452 1121.79 951.483 C 1118.01 950.043 1114.96 946.432 1111.87 943.577 C 1123.42 932.008 1134.4 919.766 1146.09 908.578 z" fill="rgb(196,143,81)" transform="translate(0,0)"></path>
<path d="M 1243.86 1587.49 C 1255.54 1588.59 1267.74 1590.71 1279.21 1591.55 C 1295.84 1592.76 1314.76 1591.65 1331.39 1591.9 C 1345.37 1592.1 1368.24 1587.63 1379.89 1588.22 C 1348.62 1595.88 1276.21 1596.09 1244.15 1589.6 L 1243.86 1587.49 z" fill="rgb(81,57,38)" transform="translate(0,0)"></path>
<path d="M 437.074 1291.65 C 445.45 1312.34 448.414 1340.64 458.478 1361.65 C 459.633 1364.07 466.955 1384.95 466.485 1387.12 L 466.365 1387.24 C 462.828 1383.3 444.384 1324.75 442.073 1316.47 L 441.1 1312.97 L 438.06 1301.97 C 437.269 1299.09 436.635 1296.19 435.972 1293.29 L 437.074 1291.65 z" fill="rgb(81,57,38)" transform="translate(0,0)"></path>
<path d="M 1586.18 1153.41 C 1586.73 1151.74 1587.26 1150.06 1587.79 1148.38 C 1588.04 1152.42 1586.97 1185.61 1585.36 1187.9 C 1584.83 1188.11 1585.06 1188.13 1584.68 1188.01 C 1583.82 1187.11 1585.85 1156.08 1586.18 1153.41 z" fill="rgb(81,57,38)" transform="translate(0,0)"></path>
<path d="M 460.326 1157.3 C 461.589 1158.58 461.39 1158.85 461.669 1160.66 C 462.507 1164.49 464.79 1186.88 463.216 1189.53 C 463.088 1189.49 462.959 1189.45 462.83 1189.4 C 461.883 1187.66 459.821 1160.06 460.326 1157.3 z" fill="rgb(81,57,38)" transform="translate(0,0)"></path>
<metadata><recraft-signature>{"signed_by": "recraft", "signature_b64": "uGN9OB7lIcqc52/jN3Kvh19BTX9pdVh50d5A+K4TWxqTAHEhMWZR0wfsr/7lfHelK7RKcmdmoLP7EivYaMCGAQ==", "signing_algo": "Ed25519", "generation_timestamp": 1776386620, "identifier": "b869b68b-4fc1-45c0-8b38-fc7b10769f5f"}</recraft-signature></metadata></svg>