<svg xmlns="http://www.w3.org/2000/svg" height="1024" preserveAspectRatio="none" style="display: block;" version="1.1" viewBox="0 0 2048 2048" width="1024">
<path d="M 0 0 L 2048 0 L 2048 2048 L 0 2048 L 0 0 z" fill="rgb(18,18,18)" transform="translate(0,0)"></path>
<path d="M 541.61 1586.07 C 399.611 1444.06 311.406 1279.85 294.551 1077.45 C 279.515 887.664 340.233 699.648 463.429 554.506 C 536.24 467.384 629.021 399.141 733.875 355.583 C 774.445 338.59 818.917 325.533 862.912 321.131 C 895.402 317.881 925.253 327.142 950.224 348.536 C 996.019 387.772 1008.4 462.055 1012.46 519.897 C 969.44 439.78 883.851 436.606 804.684 457.097 C 715.01 480.307 636.04 529.939 569.043 593.122 C 430.862 723.435 358.871 899.383 354.345 1088 C 351.581 1223.38 387.931 1356.69 459.035 1471.92 C 484.834 1514.48 509.555 1548.72 544.185 1585.08 L 541.61 1586.07 z" fill="rgb(217,159,94)" transform="translate(0,0)"></path>
<path d="M 1036.05 513.163 C 1037.17 463.739 1056.79 387.786 1093.22 352.653 C 1140.02 307.517 1197.64 319.442 1255.07 335.192 C 1374.38 367.911 1485.1 444.824 1568.3 535.248 C 1696.76 675.18 1764.12 860.561 1755.45 1050.32 C 1747.9 1224.2 1679.94 1384.68 1569.82 1517.92 C 1549.27 1542.79 1526.73 1564.67 1504.98 1588.41 C 1502.39 1589.65 1502.04 1589.94 1499.21 1590.49 C 1538.41 1550.27 1568.2 1508.53 1596.79 1460.14 C 1692.87 1296.61 1719.78 1101.52 1671.56 918.091 C 1627.54 745.329 1516.56 597.195 1363.13 506.398 C 1296.6 467.403 1195.53 432.307 1119.01 452.347 C 1080.94 462.317 1058.49 479.056 1039.01 512.856 L 1036.05 513.163 z" fill="rgb(217,159,94)" transform="translate(0,0)"></path>
<path d="M 1093.69 1737.7 C 1099.68 1735.92 1109.37 1731.44 1115.28 1728.67 C 1246.26 1667.34 1370.02 1502.66 1309.25 1353.82 C 1291.1 1309.36 1248.72 1272.82 1213.4 1241.3 C 1195.09 1224.9 1177.2 1208.03 1159.76 1190.71 C 1090.47 1121.33 1034.25 1021.01 1056.55 919.751 C 1062.87 891.025 1077.49 860.15 1098.74 839.422 C 1124.39 814.623 1158.88 801.092 1194.55 801.833 C 1292.05 803.201 1382.3 907.219 1424.36 987.605 C 1462.59 1060.67 1485.23 1155.94 1483.79 1238.42 C 1480.35 1383.36 1419.53 1521.01 1314.68 1621.15 C 1311.56 1624.93 1310.24 1626.11 1306.32 1629.04 C 1303.59 1631.77 1301.15 1634.33 1298.14 1636.76 C 1297.6 1637.7 1297.63 1637.58 1296.59 1638.11 C 1290.51 1643.53 1284.81 1648.55 1278.48 1653.68 L 1277.05 1651.91 C 1486.43 1475.98 1554.44 1182.16 1370.63 960.896 C 1331.89 914.258 1278.27 870.302 1216.26 862.938 C 1156.15 855.383 1111.8 905.578 1109.59 962.762 C 1107.28 1022.57 1138.71 1084.06 1178.01 1127.96 C 1241.54 1198.94 1335.88 1249.73 1362.9 1346.99 C 1394.48 1460.68 1330.38 1574.58 1246.9 1648.83 C 1212.48 1679.68 1173.64 1705.2 1131.66 1724.55 C 1119.46 1730.21 1104.45 1735.02 1093.37 1740.38 L 1093.69 1737.7 z" fill="rgb(217,159,94)" transform="translate(0,0)"></path>
<path d="M 1306.32 1629.04 C 1309.37 1624.74 1310.16 1623.85 1314.68 1621.15 C 1311.56 1624.93 1310.24 1626.11 1306.32 1629.04 z" fill="rgb(149,106,72)" transform="translate(0,0)"></path>
<path d="M 1296.59 1638.11 C 1296.95 1637.15 1297.15 1637.04 1298.14 1636.76 C 1297.6 1637.7 1297.63 1637.58 1296.59 1638.11 z" fill="rgb(149,106,72)" transform="translate(0,0)"></path>
<path d="M 748.86 1636.69 C 641.137 1541.07 575.744 1406.63 567.028 1262.85 C 559.189 1131.16 599.182 997.609 686.802 897.044 C 749.201 825.426 856.516 760.252 944.003 833.893 C 978.4 862.845 993.985 913.23 996.753 956.757 C 999.941 1039.17 957.535 1112.73 904.671 1172.33 C 827.521 1259.31 717.328 1308.47 723.347 1441.5 C 727.425 1531.63 775.315 1607.89 840.32 1667.32 C 867.792 1692.44 909.769 1721.52 944.827 1734.26 L 943.663 1736.39 C 940.241 1734.4 933.183 1731.79 929.125 1730.17 C 746.398 1657.83 577.909 1420.97 745.585 1245.57 C 825.878 1164.7 943.336 1090.05 937.909 961.026 C 935.433 902.166 890.137 855.626 829.508 862.998 C 768.317 870.437 716.062 915.922 677.762 961.723 C 612.504 1039.76 573.823 1140.24 571.218 1242.05 C 569.649 1366.69 622.702 1497.39 705.643 1589.79 C 721.623 1607.59 738.796 1625.82 757.206 1640.84 L 755.702 1642.82 L 750.399 1638.03 C 749.367 1637.4 749.493 1637.59 748.86 1636.69 z" fill="rgb(217,159,94)" transform="translate(0,0)"></path>
<path d="M 1045.44 663.613 C 1048.66 650.579 1050.69 638.194 1054.3 625.038 C 1063.47 591.584 1082.42 558.56 1112.54 540.094 C 1150.26 516.964 1201.61 519.758 1242.98 531.017 C 1371.08 565.875 1480.09 665.388 1546.53 776.723 C 1639.44 932.43 1666.03 1114.59 1618.59 1289.3 C 1606.83 1332.62 1599.36 1352.02 1580.37 1393.58 C 1523.32 1521.41 1427.68 1628.17 1306.87 1698.89 L 1304.43 1700.32 L 1302.12 1698.9 C 1447.28 1609.82 1552.59 1468.27 1596.18 1303.63 C 1643.09 1136.44 1621.17 957.433 1535.32 806.496 C 1475.22 701.349 1368.4 600.747 1249.45 567.405 C 1160.82 542.562 1072.83 566.033 1047.54 663.385 L 1045.44 663.613 z" fill="rgb(217,159,94)" transform="translate(0,0)"></path>
<path d="M 732.774 1694.03 C 571.631 1602.32 452.944 1421.76 419.263 1240.99 C 386.435 1069.88 422.921 892.736 520.695 748.526 C 582.596 658.357 673.646 576.281 778.331 539.753 C 831.149 521.323 893.16 510.533 942.474 544.885 C 982.166 572.535 995.493 623.444 1003.58 668.583 L 1001.3 668.91 C 981.936 577.556 899.972 542.534 813.955 562.771 C 695.293 590.687 593.091 681.906 528.738 782.466 C 437.069 926.984 406.617 1102.02 444.092 1269.01 C 448.838 1290.51 453.898 1312.9 460.797 1333.9 C 507.453 1475.92 600.729 1606.13 727.033 1687.67 C 729.282 1689.13 731.261 1690.31 733.599 1691.59 L 732.774 1694.03 z" fill="rgb(217,159,94)" transform="translate(0,0)"></path>
<path d="M 1066.3 772.015 C 1080.22 726.552 1106.89 684.653 1154.93 671.469 C 1249.65 645.474 1354.89 723.344 1414.12 789.495 C 1548.18 939.228 1590.42 1159.48 1530.59 1349.97 C 1482.73 1502.57 1383.82 1619.98 1245.88 1699.14 L 1245.01 1696.95 C 1264.92 1686.24 1289.1 1669.5 1307.26 1656.13 C 1407.49 1583.36 1482.67 1481.29 1522.47 1364 C 1571.64 1217.98 1562.02 1058.55 1495.64 919.514 C 1445.54 816.771 1361.51 720.741 1251.4 681.724 C 1163.77 650.673 1096.15 686.411 1067.61 773.576 L 1066.3 772.015 z" fill="rgb(217,159,94)" transform="translate(0,0)"></path>
<path d="M 759.769 1673.15 C 749.487 1666.96 733.849 1655.05 724.373 1647.64 C 671.139 1606.22 625.123 1556.28 588.19 1499.84 C 501.19 1365.17 471.803 1201.24 506.603 1044.74 C 535.356 910.334 613.042 786.026 728.54 709.634 C 843.142 633.834 967.948 652.504 988.329 802.88 C 988.868 806.856 990.964 814.896 990.153 818.529 C 988.742 816.363 986.019 793.742 984.745 788.62 C 974.821 748.725 958.069 712.881 922.661 689.748 C 892.651 670.141 857.697 667.18 823.685 674.25 C 729.224 693.887 641.933 776.302 590.652 855.144 C 505.386 986.306 476.061 1146.1 509.199 1298.99 C 534.929 1419.31 592.157 1521.11 681.268 1606.18 C 703.439 1627.34 733.635 1653.18 759.433 1669.71 L 760.512 1670.4 L 759.769 1673.15 z" fill="rgb(217,159,94)" transform="translate(0,0)"></path>
<path d="M 757.206 1640.84 C 785.677 1664.7 806.435 1680.38 838.665 1699.98 C 847.252 1705.15 855.955 1710.13 864.768 1714.91 C 871.453 1718.47 872.919 1717.37 880.013 1722.92 L 879.742 1723.66 C 877.579 1723.53 870.632 1719.09 867.432 1717.56 C 827.382 1698.38 789.407 1671.73 755.702 1642.82 L 757.206 1640.84 z" fill="rgb(91,69,53)" transform="translate(0,0)"></path>
<path d="M 760.512 1670.4 C 783.856 1686.08 808.547 1700.64 833.654 1713.35 C 846.579 1719.89 860.298 1724.9 873.267 1730.97 L 871.476 1732.19 C 868.736 1730.07 838.061 1718.45 831.726 1715.19 C 806.961 1702.46 782.595 1689.16 759.769 1673.15 L 760.512 1670.4 z" fill="rgb(149,106,72)" transform="translate(0,0)"></path>
<path d="M 1173.62 1731.53 C 1192.41 1724.77 1210.85 1714.33 1228.88 1705.66 C 1234.23 1703.09 1239.71 1699.19 1245.01 1696.95 L 1245.88 1699.14 C 1232.6 1708.28 1207.49 1718.45 1192.45 1725.84 C 1188.07 1728 1177.53 1731.39 1174.39 1733.31 L 1173.62 1731.53 z" fill="rgb(127,95,69)" transform="translate(0,0)"></path>
<path d="M 733.599 1691.59 L 734.96 1692.3 C 740.362 1694.94 764.767 1710.73 768.827 1710.74 C 768.939 1710.67 769.162 1710.58 769.23 1710.76 C 769.899 1712.53 775.34 1714.92 776.846 1714.79 L 776.928 1714.69 C 777.206 1714.73 789.03 1721.84 789.569 1722.46 L 789.544 1722.22 L 789.371 1722.54 C 787.149 1722.57 785.332 1721.28 783.4 1720.32 L 781.959 1719.57 C 767.04 1711.99 745.92 1704.11 732.774 1694.03 L 733.599 1691.59 z" fill="rgb(91,69,53)" transform="translate(0,0)"></path>
<path d="M 1277.05 1651.91 L 1278.48 1653.68 C 1272.2 1660.7 1249.83 1675.14 1241.24 1681.36 L 1238.21 1680.69 C 1252.39 1670.68 1263.37 1662.21 1277.05 1651.91 z" fill="rgb(149,106,72)" transform="translate(0,0)"></path>
<path d="M 944.827 1734.26 C 945.493 1734.44 994.196 1751.95 993.438 1751.32 L 993.477 1751.46 C 986.112 1751.69 951.427 1739.81 943.663 1736.39 L 944.827 1734.26 z" fill="rgb(91,69,53)" transform="translate(0,0)"></path>
<path d="M 1241.24 1681.36 C 1237.74 1684.61 1207.33 1704.61 1205.19 1702.99 C 1204.52 1701.36 1220.02 1692.52 1222.04 1691.29 C 1225.91 1688.92 1229.7 1686.41 1233.39 1683.77 C 1235.57 1682.19 1235.89 1681.94 1238.21 1680.69 L 1241.24 1681.36 z" fill="rgb(91,69,53)" transform="translate(0,0)"></path>
<path d="M 1060.01 1749.51 C 1070.68 1746.26 1081.3 1741.69 1091.87 1738.31 L 1093.69 1737.7 L 1093.37 1740.38 C 1082.86 1744.44 1069.97 1749.04 1058.76 1749.5 L 1060.01 1749.51 z" fill="rgb(91,69,53)" transform="translate(0,0)"></path>
<path d="M 1499.21 1590.49 C 1502.04 1589.94 1502.39 1589.65 1504.98 1588.41 C 1500.13 1593.83 1486.86 1606.05 1481.05 1610.4 L 1480.76 1610.35 C 1479.57 1607.75 1496.36 1592.47 1499.21 1590.49 z" fill="rgb(91,69,53)" transform="translate(0,0)"></path>
<path d="M 1067.61 773.576 C 1067.44 774.977 1067.3 776.614 1066.97 777.975 L 1065.96 781.976 C 1064.38 788.084 1062.95 798.931 1061.06 804.227 L 1060.68 804.53 L 1060.68 804.601 C 1058.78 802.761 1064.97 775.321 1066.3 772.015 L 1067.61 773.576 z" fill="rgb(91,69,53)" transform="translate(0,0)"></path>
<path d="M 544.185 1585.08 C 549.028 1589.78 555.165 1596.41 559.567 1601.36 L 556.674 1601.27 C 552.279 1596.24 546.355 1591.17 541.61 1586.07 L 544.185 1585.08 z" fill="rgb(149,106,72)" transform="translate(0,0)"></path>
<path d="M 1283.38 1709.41 C 1289.84 1706.49 1295.89 1701.76 1302.12 1698.9 L 1304.43 1700.32 C 1298.1 1704.2 1291.47 1707.56 1284.96 1711.11 L 1283.38 1709.41 z" fill="rgb(149,106,72)" transform="translate(0,0)"></path>
<path d="M 1284.96 1711.11 C 1281.86 1712.89 1266.31 1721.04 1263.53 1720.55 C 1263.53 1720.49 1263.54 1720.42 1263.54 1720.36 C 1264.64 1719.27 1281.26 1710.28 1283.38 1709.41 L 1284.96 1711.11 z" fill="rgb(66,55,50)" transform="translate(0,0)"></path>
<path d="M 559.567 1601.36 C 561.979 1602.9 571.107 1610.49 570.66 1613.75 L 570.381 1613.86 C 568.756 1613.2 558.464 1603.24 556.674 1601.27 L 559.567 1601.36 z" fill="rgb(42,38,39)" transform="translate(0,0)"></path>
<path d="M 1001.3 668.91 L 1003.58 668.583 C 1005.27 677.236 1004.83 680.853 1004.32 689.465 C 1003.42 682.894 1001.96 675.362 1001.3 668.91 z" fill="rgb(91,69,53)" transform="translate(0,0)"></path>
<path d="M 873.267 1730.97 C 874.379 1731.24 888.246 1736.43 888.994 1737.2 L 888.893 1737.54 C 886.252 1738.79 874.228 1733.36 871.476 1732.19 L 873.267 1730.97 z" fill="rgb(42,38,39)" transform="translate(0,0)"></path>
<path d="M 1174.39 1733.31 L 1173.16 1733.8 C 1171.15 1734.63 1160.07 1739.25 1158.9 1738.35 C 1159.77 1735.9 1171.15 1732 1173.62 1731.53 L 1174.39 1733.31 z" fill="rgb(66,55,50)" transform="translate(0,0)"></path>
<path d="M 1045.44 663.613 L 1047.54 663.385 C 1047.47 667.289 1046.05 673.702 1045.19 677.691 L 1043.49 675.603 C 1044.35 671.357 1044.71 667.736 1045.44 663.613 z" fill="rgb(127,95,69)" transform="translate(0,0)"></path>
<path d="M 1043.49 675.603 L 1045.19 677.691 C 1045.17 680.675 1044.23 686.011 1043.21 688.82 L 1043.26 688.635 C 1043.13 688.705 1042.99 688.776 1042.85 688.846 C 1041.77 687.984 1043.17 677.326 1043.49 675.603 z" fill="rgb(66,55,50)" transform="translate(0,0)"></path>
<path d="M 890.038 1726.89 C 891.67 1726.22 893.339 1725.28 893.699 1727.6 C 892.035 1728.95 891.29 1728.39 890.038 1726.89 z" fill="rgb(42,38,39)" transform="translate(0,0)"></path>
<path d="M 1036.05 513.163 L 1039.01 512.856 C 1038.61 513.759 1037.39 516.789 1036.38 517.415 C 1036.29 517.469 1036.1 517.45 1036.01 517.354 C 1035.64 517 1035.68 516.06 1035.7 515.603 C 1035.72 515.431 1035.75 515.259 1035.78 515.086 L 1036.05 513.163 z" fill="rgb(201,146,87)" transform="translate(0,0)"></path>
<path d="M 1063.79 758.298 C 1064.08 758.303 1064.38 758.308 1064.68 758.313 C 1064.66 758.799 1064.64 759.284 1064.62 759.769 C 1063.8 759.971 1064.14 759.966 1063.61 759.926 C 1063.48 759.142 1063.57 759.215 1063.79 758.298 z" fill="rgb(42,38,39)" transform="translate(0,0)"></path>
<path d="M 1352.79 1569.33 C 1352.97 1569.31 1353.16 1569.29 1353.34 1569.28 C 1353.5 1569.54 1353.42 1569.34 1353.45 1570.08 C 1353.29 1570.02 1353.13 1569.96 1352.97 1569.9 C 1352.79 1569.63 1352.86 1569.81 1352.79 1569.33 z" fill="rgb(42,38,39)" transform="translate(0,0)"></path>
<path d="M 748.694 1605.17 C 748.842 1605.17 748.991 1605.17 749.139 1605.17 C 749.386 1605.48 749.249 1605.24 749.492 1606.05 C 749.307 1606.01 749.121 1605.97 748.936 1605.93 C 748.679 1605.56 748.796 1605.79 748.694 1605.17 z" fill="rgb(42,38,39)" transform="translate(0,0)"></path>
<path d="M 558.51 1557.92 C 558.669 1557.85 558.827 1557.79 558.986 1557.73 C 559.207 1557.88 559.073 1557.75 559.363 1558.27 C 559.18 1558.31 558.998 1558.35 558.815 1558.39 C 558.571 1558.22 558.687 1558.35 558.51 1557.92 z" fill="rgb(42,38,39)" transform="translate(0,0)"></path>
<metadata><recraft-signature>{"signed_by": "recraft", "signature_b64": "qVg6y3d6/BrauGZ/lULKWEVMZ0Kqzc9k4q6vsOYFVuRcCQzir1DKwScyUShKJihlGqqVef5ztNOHfwTdlU+vBw==", "signing_algo": "Ed25519", "generation_timestamp": 1776377866, "identifier": "21e9e64d-26bb-4276-998c-8dc5bcb069f8"}</recraft-signature></metadata></svg>