<svg xmlns="http://www.w3.org/2000/svg" height="1024" preserveAspectRatio="none" style="display: block;" version="1.1" viewBox="0 0 2048 2048" width="1024">
<defs>
	<linearGradient gradientUnits="userSpaceOnUse" id="Gradient1" x1="1363.61" x2="1009.12" y1="1010.18" y2="1339.1">
		<stop class="stop0" offset="0" stop-color="rgb(213,161,70)" stop-opacity="1"></stop>
		<stop class="stop1" offset="1" stop-color="rgb(238,200,107)" stop-opacity="1"></stop>
	</linearGradient>
	<linearGradient gradientUnits="userSpaceOnUse" id="Gradient2" x1="1569.97" x2="436.007" y1="1021.42" y2="1025.81">
		<stop class="stop0" offset="0" stop-color="rgb(195,136,45)" stop-opacity="1"></stop>
		<stop class="stop1" offset="1" stop-color="rgb(225,178,87)" stop-opacity="1"></stop>
	</linearGradient>
</defs>
<path d="M 0 0 L 2048 0 L 2048 2048 L 0 2048 L 0 0 z" fill="rgb(16,21,38)" transform="translate(0,0)"></path>
<path d="M 893.745 554.403 C 951.647 533.804 1109.88 532.765 1167.52 550.731 C 1187.69 553.338 1237.57 568.923 1256.04 577.528 C 1305.52 592.008 1376.16 646.471 1432.92 617.542 C 1449.18 609.252 1461.15 589.679 1465.94 572.5 C 1467.82 565.771 1469.07 545.125 1470.58 541.55 C 1474.8 540.045 1472.82 540.013 1476.7 540.99 C 1481.13 545.484 1479.42 571.242 1479.42 578.503 L 1479.62 647.695 L 1479.93 883.534 C 1479.9 888.05 1480.42 898.394 1477.86 901.319 C 1472.87 898.665 1460.66 852.318 1456.72 842.781 C 1426.77 770.173 1376.1 701.138 1316.24 650.554 C 1304.46 640.613 1292.29 631.159 1279.74 622.218 C 1274.17 618.302 1253.72 605.851 1250.61 602.438 C 1227.58 589.848 1210.86 581.172 1186.53 571.817 C 1119.29 546.587 1038.4 533.69 966.886 545.948 C 943.528 549.952 921.722 557.947 899.874 566.796 C 832.337 598.762 784.665 644.906 749.674 711.556 C 736.953 735.785 729.738 756.152 719.624 781.152 C 716.238 794.721 709.879 809.57 706.177 823.26 C 688.921 887.07 679.9 925.227 634.017 975.375 C 609.294 999.86 592.586 1011.98 559.403 1021.54 C 553.439 1022.4 544.812 1023.9 539.008 1024.11 L 544.188 1026.02 C 563.699 1026.79 586.865 1034.92 602.505 1046.51 C 611.625 1051.45 619.682 1059 627.389 1065.65 C 664.402 1097.58 687.639 1147.27 701.124 1193.69 C 709.322 1221.91 715.207 1250.37 724.32 1278.9 C 750.576 1361.1 802.763 1429.47 879.454 1470.75 C 910.503 1487.46 972.939 1507.31 1008.3 1507.29 C 1020.38 1506.86 1032.39 1507.49 1044.47 1506.98 C 1063.73 1506.05 1082.86 1503.42 1101.65 1499.11 C 1174.79 1482.83 1240.85 1443.69 1290.25 1387.35 C 1302.8 1372.75 1311.85 1359.17 1322.11 1343.11 C 1357.61 1277.2 1376.97 1217.71 1353.9 1142.29 C 1369.98 1127.43 1362.99 1053.41 1366.87 1032.23 C 1367.29 1029.91 1380.5 1032.38 1382.43 1030.42 L 1247.02 1029.95 C 1226.23 1029.91 1204.32 1030.45 1183.65 1029.89 C 1192.72 1028.65 1217.17 1029.18 1227.6 1029.17 L 1313.38 1029.2 C 1397.02 1029.16 1486.44 1027.5 1569.75 1029.24 C 1579.79 1029.06 1604.33 1027.61 1612.22 1030.87 L 1613.3 1032.63 C 1610.42 1037.06 1594.42 1038.81 1587.08 1041.81 C 1571.78 1048.05 1560.78 1054.39 1547.18 1063.68 C 1540.98 1068.93 1527 1081.18 1521.99 1087.12 C 1493.82 1120.51 1482.71 1160.49 1479.24 1202.91 C 1479.05 1205.12 1478.91 1207.34 1478.82 1209.56 C 1479.59 1226.49 1479.04 1246.33 1479.04 1263.49 L 1479.09 1360.77 L 1479.15 1427.79 C 1479.17 1438.11 1479.68 1455.23 1478.65 1465.14 C 1476.22 1466.52 1473.61 1466.03 1470.69 1465.93 C 1467.83 1463.08 1468.28 1448.65 1467.05 1443.91 C 1457.05 1405.35 1441.34 1383.55 1399.17 1383.81 C 1350.57 1384.11 1326.74 1413.89 1288.19 1434.19 C 1268.37 1446.97 1247.07 1460.41 1225.66 1470.46 C 1164.45 1499.18 1090.92 1511.95 1023.65 1509.85 C 983.604 1510.64 943.639 1505.96 904.861 1495.94 C 868.371 1486.79 832.952 1473.81 799.199 1457.2 C 688.109 1402.17 603.705 1304.92 564.857 1187.19 C 562.093 1181.54 557.942 1168.46 555.418 1162.04 C 539.004 1120.31 527.339 1071.56 487.898 1045.47 C 478.76 1039.5 468.908 1034.7 458.574 1031.18 C 452.136 1028.99 439.548 1027.4 436.178 1024.95 L 436.178 1023.09 C 435.467 1023.66 470.818 1012.46 476.008 1009.93 C 521.078 987.978 537.373 933.232 552.99 889.668 C 574.015 831.016 586.827 798.832 622.485 745.767 C 639.639 715.519 697.268 657.684 726.085 637.356 C 728.227 635.095 742.966 624.451 746.086 622.249 C 790.885 591.042 840.886 568.068 893.745 554.403 z" fill="url(#Gradient2)" transform="translate(0,0)"></path>
<path d="M 1569.75 1029.24 C 1579.79 1029.06 1604.33 1027.61 1612.22 1030.87 L 1613.3 1032.63 C 1610.42 1037.06 1594.42 1038.81 1587.08 1041.81 C 1571.78 1048.05 1560.78 1054.39 1547.18 1063.68 C 1540.98 1068.93 1527 1081.18 1521.99 1087.12 C 1493.82 1120.51 1482.71 1160.49 1479.24 1202.91 C 1479.05 1205.12 1478.91 1207.34 1478.82 1209.56 C 1474.91 1190.43 1483.61 1170.7 1485.13 1152.32 C 1485.38 1149.3 1480.15 1132.61 1479.94 1127.86 C 1478.79 1101.67 1476.3 1055.71 1480.33 1031 C 1467.63 1031.16 1454.93 1031.05 1442.23 1030.65 C 1450.35 1029.68 1471.12 1030.17 1480.09 1030.16 L 1548.92 1030.03 C 1553.47 1029.93 1566.73 1031.01 1569.75 1029.24 z" fill="rgb(227,182,92)" transform="translate(0,0)"></path>
<path d="M 904.861 1495.94 C 910.55 1494.12 927.809 1499.44 934.877 1500.44 C 958.248 1503.76 986.038 1509.45 1009.51 1508.51 C 1015.05 1508.46 1018.39 1508.04 1023.65 1509.85 C 983.604 1510.64 943.639 1505.96 904.861 1495.94 z" fill="rgb(150,110,49)" transform="translate(0,0)"></path>
<path d="M 544.188 1026.02 C 542.758 1026.04 529.2 1026.69 529.58 1024.65 L 529.766 1024.82 C 531.834 1023.46 536.415 1023.99 539.008 1024.11 L 544.188 1026.02 z" fill="rgb(150,110,49)" transform="translate(0,0)"></path>
<path d="M 629.668 841.082 C 632.023 843.509 631.809 858.804 630.163 860.736 C 628.992 856.757 629.509 845.671 629.668 841.082 z" fill="rgb(193,134,43)" transform="translate(0,0)"></path>
<path d="M 1233.26 724.839 C 1250.97 708.81 1257.33 699.542 1259.33 674.407 C 1259.35 674.084 1266.18 671.352 1265.68 676.452 C 1264.52 688.531 1266.41 702.841 1265.06 714.712 C 1266.71 780.975 1263.9 848.118 1265.56 914.472 C 1265.69 919.374 1266.52 931.786 1263.87 935.684 C 1256.6 935.389 1257.8 921.786 1256.09 915.029 C 1253.02 902.977 1248.22 889.245 1244.25 877.449 C 1242.72 872.931 1233.56 851.357 1233.4 849.302 C 1197.32 783.862 1153.01 730.275 1077.59 708.361 C 1036.95 696.21 993.124 700.906 955.976 721.392 C 872.877 767.486 842.396 886.828 889.567 967.421 C 899.061 983.641 912.26 996.839 926.892 1008.34 C 945.84 1019.15 960.994 1027.25 983.494 1029.15 C 991.199 1029.8 1001.58 1029.55 1008.71 1031.11 C 1008.38 1031.03 1010.08 1033.1 1004.01 1032.52 C 967.833 1029.09 954.44 1035.84 925.069 1053.68 C 891.561 1082.98 868.928 1121.7 867.857 1166.49 C 865.707 1256.49 912.375 1339.68 1000.07 1364.05 C 1002.34 1364.06 1005.69 1364.69 1007.99 1365.18 C 1016.81 1367.03 1025.18 1366.11 1033.83 1366.29 L 1038.08 1368.98 C 1013.76 1368.83 1000.9 1368.54 976.489 1364.28 C 972.308 1363.57 968.149 1362.73 964.016 1361.78 C 961.185 1361.13 957.055 1360.19 954.419 1359.28 L 950.444 1357.91 C 900.671 1346.75 834.737 1304.17 806.626 1261.88 C 806.063 1261.31 805.568 1260.84 805.066 1260.17 C 779.519 1226.22 762.624 1180.29 768.515 1137.65 C 772.925 1105.72 788.48 1077.5 813.812 1058.25 C 825.407 1044.86 857.759 1034.8 874.3 1029.72 C 871.939 1027.98 871.47 1027.66 868.893 1026.35 C 846.418 1021.6 828.677 1014.54 810.878 999.725 C 809.188 998.564 807.812 997.296 806.343 995.952 C 755.442 949.386 757.963 876.435 793.785 821.517 C 798.769 813.876 803.424 806.425 809.592 799.806 C 816.216 786.119 850.193 759.119 863.495 749.078 C 926.126 701.802 1013.62 690.498 1089.39 705.727 C 1128.84 713.656 1171.33 737.066 1212.18 732.637 C 1217.04 732.11 1228.27 727.041 1233.26 724.839 z" fill="rgb(227,182,92)" transform="translate(0,0)"></path>
<path d="M 806.626 1261.88 C 806.063 1261.31 805.568 1260.84 805.066 1260.17 C 779.519 1226.22 762.624 1180.29 768.515 1137.65 C 772.925 1105.72 788.48 1077.5 813.812 1058.25 C 809.132 1067.3 789.627 1081.6 789.251 1089.35 C 788.587 1103.03 790.6 1126.81 791.092 1140.99 C 791.556 1157.49 791.68 1173.99 791.463 1190.49 C 791.312 1202.2 788.057 1222.85 789.665 1232.11 C 790.76 1238.41 804.858 1252.9 806.626 1261.88 z" fill="rgb(193,134,43)" transform="translate(0,0)"></path>
<path d="M 810.878 999.725 C 809.188 998.564 807.812 997.296 806.343 995.952 C 755.442 949.386 757.963 876.435 793.785 821.517 C 798.769 813.876 803.424 806.425 809.592 799.806 C 808.465 803.875 792.389 828.095 788.337 835.083 C 788.455 865.444 791.777 897.522 791.612 928.324 C 791.524 944.765 793.411 956.559 791.429 973.768 L 791.305 974.761 C 796.306 982.898 809.05 994.735 810.878 999.725 z" fill="rgb(193,134,43)" transform="translate(0,0)"></path>
<path d="M 1233.4 849.302 C 1239.48 851.399 1254.4 901.656 1256.83 910.511 C 1258.5 916.604 1258.62 925.405 1262.01 932.269 L 1262.97 931.721 C 1265.6 916.363 1263.77 876.115 1261.39 859.281 C 1256.84 827.021 1249.75 734.945 1263.47 708.589 L 1263.62 709.995 C 1263.76 712.066 1263.64 713.114 1265.06 714.712 C 1266.71 780.975 1263.9 848.118 1265.56 914.472 C 1265.69 919.374 1266.52 931.786 1263.87 935.684 C 1256.6 935.389 1257.8 921.786 1256.09 915.029 C 1253.02 902.977 1248.22 889.245 1244.25 877.449 C 1242.72 872.931 1233.56 851.357 1233.4 849.302 z" fill="rgb(193,134,43)" transform="translate(0,0)"></path>
<path d="M 926.892 1008.34 C 945.84 1019.15 960.994 1027.25 983.494 1029.15 C 991.199 1029.8 1001.58 1029.55 1008.71 1031.11 C 1008.38 1031.03 1010.08 1033.1 1004.01 1032.52 C 967.833 1029.09 954.44 1035.84 925.069 1053.68 C 928.355 1046.55 936.709 1044.23 942.936 1040.14 C 943.741 1039.62 942.513 1021.66 942.508 1019.7 C 936.148 1016.19 930.347 1014.58 926.892 1008.34 z" fill="rgb(193,134,43)" transform="translate(0,0)"></path>
<path d="M 950.444 1357.91 C 953.737 1358.27 957.585 1358.38 960.488 1358.76 C 968.145 1359.76 993.693 1367.76 1000.07 1364.05 C 1002.34 1364.06 1005.69 1364.69 1007.99 1365.18 C 1016.81 1367.03 1025.18 1366.11 1033.83 1366.29 L 1038.08 1368.98 C 1013.76 1368.83 1000.9 1368.54 976.489 1364.28 C 972.308 1363.57 968.149 1362.73 964.016 1361.78 C 961.185 1361.13 957.055 1360.19 954.419 1359.28 L 950.444 1357.91 z" fill="rgb(193,134,43)" transform="translate(0,0)"></path>
<path d="M 1233.26 724.839 C 1250.97 708.81 1257.33 699.542 1259.33 674.407 C 1259.35 674.084 1266.18 671.352 1265.68 676.452 C 1264.52 688.531 1266.41 702.841 1265.06 714.712 C 1263.64 713.114 1263.76 712.066 1263.62 709.995 L 1263.47 708.589 C 1263.67 698.86 1264.14 686.112 1263.53 676.51 L 1263.41 676.516 L 1263.5 676.411 C 1262.93 677.478 1263.03 677.609 1262 677.998 C 1261.2 677.774 1261.33 677.204 1261.14 676.456 C 1260.42 676.574 1258.95 689.797 1258.19 692.471 C 1255.07 703.512 1245.4 722.716 1233.26 724.839 z" fill="rgb(193,134,43)" transform="translate(0,0)"></path>
<path d="M 868.893 1026.35 C 870.528 1026.52 880.538 1027.17 881.288 1027.52 L 881.037 1027.38 L 880.862 1028.04 C 879.007 1028.67 876.192 1029.42 874.3 1029.72 C 871.939 1027.98 871.47 1027.66 868.893 1026.35 z" fill="rgb(44,36,26)" transform="translate(0,0)"></path>
<path d="M 1044.99 1029.65 C 1061.67 1028.08 1089.05 1029.25 1106.32 1029.21 C 1120.1 1029.17 1144.51 1028.64 1157.14 1029.85 L 1169.91 1029.92 L 1183.65 1029.89 C 1204.32 1030.45 1226.23 1029.91 1247.02 1029.95 L 1382.43 1030.42 C 1380.5 1032.38 1367.29 1029.91 1366.87 1032.23 C 1362.99 1053.41 1369.98 1127.43 1353.9 1142.29 C 1327.91 1058.95 1262 1032.2 1180.62 1032.85 L 1180.78 1035.97 L 1193 1039.33 C 1223.37 1050.97 1246.89 1068.37 1260.43 1098.76 C 1266.35 1112.06 1269.18 1125.87 1270.39 1140.33 C 1271.91 1158.69 1272.07 1352.83 1270.57 1356.98 C 1270.44 1357.32 1270.26 1357.64 1270.1 1357.97 L 1268.16 1357.86 C 1266.35 1354.7 1264.11 1345.95 1262.97 1342.01 C 1257.65 1323.62 1249.19 1309.85 1229.6 1304.26 C 1218.96 1301.22 1208.34 1302.55 1197.69 1304.67 C 1195.98 1305.01 1190.46 1306.54 1189.42 1306.61 C 1129.46 1333.73 1107.94 1361.51 1038.08 1368.98 L 1033.83 1366.29 C 1103.99 1358.77 1144.31 1307.55 1160.45 1242 C 1182.29 1153.34 1158.74 1056.16 1060.76 1031.8 C 1057.74 1031.67 1048.4 1030.13 1044.99 1029.65 z" fill="url(#Gradient1)" transform="translate(0,0)"></path>
<path d="M 1044.99 1029.65 C 1061.67 1028.08 1089.05 1029.25 1106.32 1029.21 C 1120.1 1029.17 1144.51 1028.64 1157.14 1029.85 C 1142.83 1030.69 1067 1028.65 1060.76 1031.8 C 1057.74 1031.67 1048.4 1030.13 1044.99 1029.65 z" fill="rgb(150,110,49)" transform="translate(0,0)"></path>
<path d="M 1165.78 1032.15 C 1169.23 1031.85 1172.37 1031.36 1175.71 1032.48 C 1174.74 1033.63 1174.77 1033.47 1174.17 1034.73 C 1173.43 1034.66 1164.05 1033.95 1164.27 1032.48 C 1164.68 1032.25 1165.34 1032.22 1165.78 1032.15 z" fill="rgb(150,110,49)" transform="translate(0,0)"></path>
<path d="M 1175.71 1032.48 C 1177.35 1032.59 1178.98 1032.71 1180.62 1032.85 L 1180.78 1035.97 C 1178.58 1035.54 1176.38 1035.12 1174.17 1034.73 C 1174.77 1033.47 1174.74 1033.63 1175.71 1032.48 z" fill="rgb(44,36,26)" transform="translate(0,0)"></path>
<metadata><recraft-signature>{"signed_by": "recraft", "signature_b64": "x4Nn2QL+UWfZR6U4Zc2OXE79Di5jdofraGSdcOferx6IMZzrZBII/Lg1y536mz7YJE2VszGn91iAvOWKhs1ACw==", "signing_algo": "Ed25519", "generation_timestamp": 1776377881, "identifier": "202a5cf1-2fd4-4612-bedb-3e47ac9a8c8a"}</recraft-signature></metadata></svg>