<svg xmlns="http://www.w3.org/2000/svg" height="1024" preserveAspectRatio="none" style="display: block;" version="1.1" viewBox="0 0 2048 2048" width="1024">
<defs>
	<linearGradient gradientUnits="userSpaceOnUse" id="Gradient1" x1="945.857" x2="956.788" y1="430.042" y2="553.93">
		<stop class="stop0" offset="0" stop-color="rgb(215,168,93)" stop-opacity="1"></stop>
		<stop class="stop1" offset="1" stop-color="rgb(249,221,145)" stop-opacity="1"></stop>
	</linearGradient>
</defs>
<path d="M 0 0 L 2048 0 L 2048 2048 L 0 2048 L 0 0 z" fill="rgb(4,7,15)" transform="translate(0,0)"></path>
<path d="M 828.575 546.883 C 874.763 496.584 956.189 463.703 1023.97 460.861 C 1115.17 456.846 1204.23 489.239 1271.53 550.908 C 1314.9 591.041 1347.5 635.058 1366.85 691.512 C 1406.33 806.68 1370.33 931.825 1288.82 1019.32 C 1222.23 1089.63 1130.43 1130.58 1033.63 1133.17 C 953.739 1135.84 890.332 1117.19 820.265 1080.21 L 821.083 1077.92 C 867.266 1101.92 926.781 1116.4 978.234 1119.38 C 1173.26 1130.68 1354.58 976.968 1362.33 778.928 C 1368.82 613.091 1239.41 480.885 1076.62 471.239 C 988.575 466.023 909.149 502.194 845.322 560.387 C 834.47 572.081 823.675 583.368 814.101 596.653 C 745.438 691.88 751.008 823.938 837.745 905.974 C 848.05 915.72 860.357 924.275 873.597 929.817 C 988.628 977.967 1129.79 966.896 1186.49 838.992 C 1238.1 722.582 1135.87 598.905 1014.08 609.328 C 885.363 619.154 836.071 766.169 934.456 849.194 C 955.878 867.293 982.239 878.548 1010.13 881.499 L 1010.98 878.969 C 1134 888.366 1173.87 724.904 1062.87 675.321 C 1049.52 669.357 1019.1 663.297 1005.64 668.651 L 1007.46 670.353 L 1007.62 671.252 C 1014.64 671.878 1027.23 671.461 1033.02 674.193 L 1027.3 674.788 L 1027.19 675.525 C 1030.08 676.417 1032.19 677.075 1035.03 678.243 C 1046.05 676.743 1073.78 691.612 1081.49 699.347 L 1080.62 701.293 C 1093.69 709.423 1113.13 739.119 1113.07 754.799 L 1110.01 755.262 C 1107.05 738.893 1098.96 724.035 1087.76 711.605 L 1087.24 712.854 L 1086.18 713.963 C 1093.21 726.629 1097.41 728.76 1099.91 744.603 C 1106.54 762.804 1104.6 769.732 1100.65 788.255 C 1092.46 835.155 1051.91 861.08 1006.58 848.935 C 1005.38 848.615 1004.55 848.439 1003.35 847.959 C 997.65 848.23 983.432 841.697 977.81 839.317 L 979.749 838.141 L 984.399 839.339 L 985.13 838.627 C 980.545 835.073 975.691 834.388 971.703 832.01 C 962.828 826.718 950.877 814.669 944.621 806.595 L 939.528 800.991 L 937.902 801.097 C 943.22 807.829 950.184 817.204 956.515 822.591 L 953.879 823.163 C 947.479 816.338 938.354 804.602 932.227 797.109 C 932.592 799.578 932.408 800.235 933.498 802.272 C 937.906 806.749 941.179 812.664 945.273 817.724 C 962.578 839.108 993.241 851.231 1020.02 853.249 L 1021.56 853.352 C 1023.5 853.495 1023.61 853.607 1025.03 854.646 L 1028.93 856.802 C 989.346 860.918 957.628 842.458 934.512 811.521 C 911.049 766.964 907.041 722.986 943.612 682.655 C 964.298 661.135 993.804 651.791 1022.69 650.917 C 1088.03 648.94 1147.42 705.798 1147.95 771.332 C 1148.45 805.526 1135.36 838.519 1111.54 863.062 C 1053.69 921.834 960.167 906.374 905.486 851.15 C 797.821 742.416 879.342 576.842 1028.86 577.421 C 1086.4 577.877 1141.45 601.015 1182.04 641.81 C 1218.71 678.828 1239.21 728.882 1239.03 780.992 C 1238.48 835.439 1214.11 893.471 1174.21 931.214 C 1046 1052.48 848.593 979.828 773.733 837.304 C 756.058 803.653 747.897 763.62 749.067 725.885 C 750.896 658.06 779.478 593.712 828.575 546.883 z" fill="rgb(221,176,100)" transform="translate(0,0)"></path>
<path d="M 1015.04 685.099 C 1017.09 686.079 1021.04 686.461 1023.94 687.463 L 1025.44 687.115 L 1022.92 683.834 C 1030.84 681.772 1049.02 691.887 1055.48 694.079 L 1052.76 690.095 L 1053.63 689.568 C 1066.87 694.173 1077.88 701.587 1087.76 711.605 L 1087.24 712.854 L 1086.18 713.963 C 1093.21 726.629 1097.41 728.76 1099.91 744.603 C 1106.54 762.804 1104.6 769.732 1100.65 788.255 C 1092.46 835.155 1051.91 861.08 1006.58 848.935 C 1005.38 848.615 1004.55 848.439 1003.35 847.959 C 997.65 848.23 983.432 841.697 977.81 839.317 L 979.749 838.141 L 984.399 839.339 L 985.13 838.627 C 980.545 835.073 975.691 834.388 971.703 832.01 C 962.828 826.718 950.877 814.669 944.621 806.595 L 945.591 805.905 C 949.358 809.516 961.369 821.772 964.996 824.31 L 966.179 824.059 C 963.696 820.254 963.895 822.11 964.521 818.464 C 963.798 817.827 963.075 817.191 962.352 816.554 C 965.304 815.201 971.073 820.83 976.711 819.767 C 975.487 817.931 975.539 818.034 974.548 815.963 L 978.182 815.036 C 981.763 817.769 982.145 818.282 986.327 819.601 C 992.173 815.486 989.27 821.68 995.16 820.401 C 994.102 819.367 987.052 815.822 985.62 815.588 C 977.97 814.336 971.993 800.078 965.385 800.728 L 963.683 804.125 C 968.823 805.683 967.519 803.236 970.664 806.416 C 970.319 809.758 968.868 810.639 966.467 813.119 L 965.53 814.069 C 960.183 808.292 954.431 802.323 949.648 796.121 C 948.856 794.874 945.41 783.557 944.955 781.882 C 942.239 777.105 941.773 771.296 940.926 765.827 L 941.575 765.837 L 943.193 767.624 C 945.444 759.523 942.973 748.384 947.476 738.562 L 949.219 739.377 L 950.156 740.761 C 951.678 739.774 955.381 727.11 960.12 720.625 L 961.018 721.028 L 959.572 727.03 C 960.972 725.966 960.921 726.001 961.813 724.522 L 962.654 723.102 C 974.266 703.809 985.915 692.705 1008.48 688.224 L 1008.77 687.01 C 1006.2 685.985 1002.02 687.51 999.475 688.532 L 1001.83 685.635 L 1002.21 684.971 C 1005.22 684.591 1008.09 684.344 1011.09 684.084 L 1015.04 685.099 z" fill="rgb(114,86,62)" transform="translate(0,0)"></path>
<path d="M 988.695 795.857 C 975.802 778.976 968.967 764.061 978.8 743.438 C 1001.86 695.078 1069.47 713.089 1071.11 765.001 C 1071.5 777.09 1069.55 780.381 1064.35 790.895 C 1062.42 792.213 1060.76 794.935 1058.64 796.638 C 1047.5 805.611 1033.5 811.406 1019 810.035 C 1005.64 808.8 998.41 803.821 988.695 795.857 z" fill="rgb(4,7,15)" transform="translate(0,0)"></path>
<path d="M 1018.11 731.15 C 1035.49 728.449 1051.8 740.253 1054.67 757.605 C 1057.54 774.957 1045.89 791.38 1028.56 794.411 C 1011 797.484 994.311 785.644 991.405 768.056 C 988.5 750.468 1000.5 733.888 1018.11 731.15 z" fill="rgb(221,176,100)" transform="translate(0,0)"></path>
<path d="M 1075.07 798.613 C 1075.85 796.887 1077.21 794.931 1078.24 793.285 C 1077.97 791.905 1078.13 792.519 1077.62 791.025 L 1077.23 789.905 L 1078 789.364 L 1079.67 790.56 L 1080.76 790.261 C 1080.2 788.149 1080.44 788.83 1079.77 787.028 L 1079.33 785.897 L 1080.72 785.504 C 1083.26 788.505 1083.97 789.858 1087.64 791.344 C 1092.91 790.2 1088.75 788.114 1094.83 786.571 C 1094.44 788.11 1094.29 789.205 1094.2 790.831 L 1095.57 791.223 C 1098.16 789.085 1097.7 788.923 1100.65 788.255 C 1092.46 835.155 1051.91 861.08 1006.58 848.935 C 1005.38 848.615 1004.55 848.439 1003.35 847.959 L 1004.09 846.851 C 999.4 845.695 989.793 842.531 986.336 839.319 C 987.034 839.024 999.208 843.255 1002.59 843.946 C 1001.57 842.918 1002.16 843.437 1000.5 842.308 L 999.118 841.38 L 999.479 840.262 C 1013.54 846.678 1019.33 847.347 1035.1 846.587 L 1033.31 844.789 C 1028.24 843.003 1017.68 847.205 1010.19 841.633 L 1010.59 840.865 C 1020.84 843.356 1044.83 841.95 1052.16 833.916 L 1050.27 833.334 C 1040.52 841.384 1024.89 838.396 1014.9 839.789 C 1015.58 837.531 1018.62 837.981 1020.73 838.039 C 1033.94 838.403 1067.41 828.929 1071.26 815.15 C 1072.94 814.161 1073.61 813.787 1074.04 811.854 C 1075.93 807.459 1077.02 806.494 1080.36 802.97 C 1077.41 801.154 1077.16 800.967 1073.75 800.619 L 1075.07 798.613 z" fill="rgb(134,107,68)" transform="translate(0,0)"></path>
<path d="M 1033.31 844.789 C 1036.36 844.231 1048.71 840.134 1049.24 840.899 C 1048.41 842.617 1037.41 845.816 1035.1 846.587 L 1033.31 844.789 z" fill="rgb(47,39,27)" transform="translate(0,0)"></path>
<path d="M 1074.04 811.854 C 1075.93 807.459 1077.02 806.494 1080.36 802.97 C 1078.41 808.079 1078.21 808.12 1074.04 811.854 z" fill="rgb(122,98,62)" transform="translate(0,0)"></path>
<path d="M 1052.16 833.916 C 1053.7 832.756 1054.11 832.156 1055.82 831.908 C 1055.53 834.161 1054.35 833.63 1052.16 833.916 z" fill="rgb(85,64,48)" transform="translate(0,0)"></path>
<path d="M 1063.51 832.119 C 1063.51 834.186 1062.9 834.305 1061.05 835.159 C 1060.67 834.918 1060.28 834.677 1059.89 834.436 C 1060.41 833.699 1062.73 832.597 1063.51 832.119 z" fill="rgb(47,39,27)" transform="translate(0,0)"></path>
<path d="M 1092.16 800.366 C 1092.61 800.702 1092.46 800.535 1092.66 800.852 C 1092.67 801.272 1092.7 800.982 1092.39 801.839 C 1091.78 801.662 1091.98 801.764 1091.69 801.567 C 1091.75 800.963 1091.78 801.037 1092.16 800.366 z" fill="rgb(47,39,27)" transform="translate(0,0)"></path>
<path d="M 968.837 765.84 C 966.069 747.266 974.896 722.697 992.581 714.148 C 1011.14 705.176 1027.44 706.912 1046.6 711.966 C 1050.37 712.962 1056.13 717.043 1060.2 718.985 L 1059.61 719.655 L 1060.34 720.226 C 1071.7 735.932 1081.93 750.356 1078.85 770.924 C 1077.56 779.545 1072.41 787.322 1064.35 790.895 C 1069.55 780.381 1071.5 777.09 1071.11 765.001 C 1069.47 713.089 1001.86 695.078 978.8 743.438 C 968.967 764.061 975.802 778.976 988.695 795.857 C 973.408 788.405 974.759 771.451 968.837 765.84 z" fill="rgb(85,64,48)" transform="translate(0,0)"></path>
<path d="M 1060.34 720.226 C 1071.37 722.627 1079.61 749.208 1086.18 753.349 L 1088 752.878 C 1089.75 759.746 1092.6 760.892 1091.64 769.535 L 1090.82 770.12 L 1088.62 769.085 C 1085.51 771.472 1082.49 779.97 1083.28 783.743 L 1080.72 785.504 L 1079.33 785.897 L 1079.77 787.028 C 1080.44 788.83 1080.2 788.149 1080.76 790.261 L 1079.67 790.56 L 1078 789.364 L 1077.23 789.905 L 1077.62 791.025 C 1078.13 792.519 1077.97 791.905 1078.24 793.285 C 1077.21 794.931 1075.85 796.887 1075.07 798.613 L 1066.76 795.201 C 1043.95 819.366 1042.06 812.437 1014.24 811.521 L 1016.3 814.047 C 992.343 808.262 972.451 791.055 968.837 765.84 C 974.759 771.451 973.408 788.405 988.695 795.857 C 998.41 803.821 1005.64 808.8 1019 810.035 C 1033.5 811.406 1047.5 805.611 1058.64 796.638 C 1060.76 794.935 1062.42 792.213 1064.35 790.895 C 1072.41 787.322 1077.56 779.545 1078.85 770.924 C 1081.93 750.356 1071.7 735.932 1060.34 720.226 z" fill="rgb(100,75,54)" transform="translate(0,0)"></path>
<path d="M 1072.44 704.411 C 1080.02 707.103 1078.35 709.143 1082.89 711.491 C 1083.77 712.175 1085.23 713.284 1086.18 713.963 C 1093.21 726.629 1097.41 728.76 1099.91 744.603 C 1099.35 746.983 1099.84 752.676 1098.52 753.216 C 1096.75 747.513 1095.54 741.515 1092.02 736.56 C 1091.29 735.535 1090.5 734.566 1090.08 733.371 L 1090.24 733.073 C 1091.69 733.26 1092.45 734.835 1093.9 735.1 L 1094.22 734.632 C 1092.05 728.46 1084.44 722.074 1083.81 716.647 C 1083.48 716.452 1072.92 705.167 1072.44 704.411 z" fill="rgb(134,107,68)" transform="translate(0,0)"></path>
<path d="M 944.955 781.882 C 948.535 779.785 948.241 782.653 951.195 781.222 C 955.016 779.37 952.731 777.734 956.62 778.327 C 959.772 778.808 959.679 777.593 962.429 780.332 C 962.268 782.105 951.765 793.76 949.648 796.121 C 948.856 794.874 945.41 783.557 944.955 781.882 z" fill="rgb(134,107,68)" transform="translate(0,0)"></path>
<path d="M 1088 752.878 C 1078.83 744.623 1092.57 733.005 1089.89 743.484 C 1092.25 742.088 1091.27 741.745 1092.28 740.838 C 1092.69 741.121 1093.07 742.874 1093.13 742.993 C 1096.88 750.529 1093.02 747.92 1091.7 749.496 C 1091.76 750.634 1091.95 751.821 1091.68 752.941 C 1090.32 753.98 1090.29 751.285 1089.37 751.273 L 1088.85 751.611 L 1089.48 751.391 L 1088.47 752.092 C 1088.31 752.354 1088.16 752.616 1088 752.878 z" fill="rgb(134,107,68)" transform="translate(0,0)"></path>
<path d="M 953.674 741.676 C 954.311 738.186 955.958 728.2 959.572 727.03 C 959.728 730.169 955.771 739.188 953.674 741.676 z" fill="rgb(122,98,62)" transform="translate(0,0)"></path>
<path d="M 1072.44 704.411 C 1070.35 703.892 1066.98 702.657 1068.63 700.192 C 1071.18 702.303 1074.29 702.422 1072.44 704.411 z" fill="rgb(185,150,94)" transform="translate(0,0)"></path>
<path d="M 966.179 824.059 C 968.297 825.025 970.359 825.292 970.688 827.656 C 967.953 828.204 967.612 826.2 966.179 824.059 z" fill="rgb(185,150,94)" transform="translate(0,0)"></path>
<path d="M 1071.26 815.15 C 1069.82 813.23 1072.29 812.954 1074.04 811.854 C 1073.61 813.787 1072.94 814.161 1071.26 815.15 z" fill="rgb(122,98,62)" transform="translate(0,0)"></path>
<path d="M 1038.34 822.868 L 1041.51 822.525 C 1043.55 822.3 1050.07 819.437 1051.03 819.743 C 1050.07 821.193 1045.49 822.341 1044.73 823.481 C 1045.77 826.923 1049.07 821.027 1050.25 824.618 C 1049.06 826.432 1043.97 826.662 1044.44 827.913 C 1045.36 830.324 1048.21 826.657 1050.5 828.025 L 1050.52 828.921 C 1048.9 830.491 1041.8 833.266 1039.44 832.354 L 1039.23 832.416 C 1038.43 835.289 1021.33 836.504 1019.65 835.307 L 1019.49 834.869 C 1020.68 832.906 1028.28 834.988 1029.97 833.143 C 1030.03 831.186 1026.6 831.99 1026.11 830.692 C 1025.69 829.586 1030.43 830.489 1029.57 828.771 C 1028.87 827.52 1026.46 827.642 1024.88 827.067 C 1027.98 825.965 1035.59 823.528 1038.34 822.868 z" fill="rgb(122,98,62)" transform="translate(0,0)"></path>
<path d="M 1038.14 828.271 C 1038.54 828.472 1040.59 829.181 1040.37 830.081 C 1039.85 830.399 1039.34 830.313 1038.77 830.193 L 1037.49 829.973 C 1037.1 830.247 1036.02 831.197 1035.32 831.102 C 1035.3 831.025 1035.28 830.949 1035.27 830.873 C 1035.65 830.159 1036.25 829.657 1036.9 829.198 L 1038.14 828.271 z" fill="rgb(100,75,54)" transform="translate(0,0)"></path>
<path d="M 1024.88 827.067 C 1024.03 825.628 1022.88 824.076 1020.99 824.698 C 1019.46 825.205 1019.69 827.234 1018.45 828.014 C 1016.91 828.984 1015.76 826.247 1014.5 827.896 C 1013.98 828.571 1012.8 830.039 1011.75 829.602 L 1011.71 829.511 C 1006.8 829.166 1003.85 820.187 1014.5 821.06 C 1026.08 822.009 1028.01 817.847 1038.34 822.868 C 1035.59 823.528 1027.98 825.965 1024.88 827.067 z" fill="rgb(134,107,68)" transform="translate(0,0)"></path>
<path d="M 1055.17 696.744 C 1057.01 697.186 1061.12 697.648 1061.13 700.142 C 1060.6 701.033 1059.67 701.059 1058.95 701.711 L 1058.98 701.956 C 1060.9 703.916 1065.99 705.37 1064.52 708.497 C 1062.02 707.117 1059.72 705.551 1057.43 703.857 C 1055.28 703.519 1049.51 701.881 1049.22 699.541 C 1049.39 699.139 1049.25 699.302 1049.67 699.079 C 1052.16 699.236 1056.39 704.781 1056.47 700.941 C 1055.71 699.888 1051.04 699.434 1054.24 697.391 L 1055.17 696.744 z" fill="rgb(134,107,68)" transform="translate(0,0)"></path>
<path d="M 1075.75 712.748 C 1081.63 717.453 1079.15 713.189 1083.44 721.113 C 1079.21 717.868 1078.45 717.163 1075.75 712.748 z" fill="rgb(122,98,62)" transform="translate(0,0)"></path>
<path d="M 982.907 833.794 C 984.797 834.157 986.679 834.565 988.55 835.015 C 990.328 835.43 990.637 835.843 991.783 837.094 C 985.439 834.948 988.539 838.369 982.907 833.794 z" fill="rgb(185,150,94)" transform="translate(0,0)"></path>
<path d="M 1099.59 755.391 C 1102.04 757.784 1101.69 757.953 1101.81 761.586 L 1101.95 763.536 C 1099.01 764.384 1100.01 758.515 1099.59 755.391 z" fill="rgb(122,98,62)" transform="translate(0,0)"></path>
<path d="M 1005.47 690.779 C 1005.86 690.825 1008.13 690.747 1007.94 691.786 C 1006.99 692.823 1003.47 693.542 1002.07 693.983 C 1001.81 693.967 1000.66 693.998 1000.25 693.743 C 1000.07 693.629 1000.09 693.603 1000.06 693.466 C 1000.4 692.924 1004.64 691.182 1005.47 690.779 z" fill="rgb(185,150,94)" transform="translate(0,0)"></path>
<path d="M 992.786 834.066 C 994.962 833.237 996.527 833.338 997.753 835.594 C 996.103 836.587 994.497 834.991 992.786 834.066 z" fill="rgb(185,150,94)" transform="translate(0,0)"></path>
<path d="M 979.06 832.536 C 980.96 830.91 981.726 831.742 982.907 833.794 C 981.072 835.137 981.417 833.272 979.06 832.536 z" fill="rgb(185,150,94)" transform="translate(0,0)"></path>
<path d="M 1039.95 689.841 C 1041.53 689.769 1041.96 690.086 1043.15 691.022 C 1041.17 691.596 1041.18 691.553 1039.95 689.841 z" fill="rgb(185,150,94)" transform="translate(0,0)"></path>
<path d="M 1100.13 765.818 C 1101.1 767.278 1101.71 767.842 1101.48 769.594 L 1101.34 770.807 C 1099.21 771.167 1100.16 767.732 1100.13 765.818 z" fill="rgb(122,98,62)" transform="translate(0,0)"></path>
<path d="M 1003.87 834.005 C 1005.55 834.524 1006.43 834.326 1006.54 835.984 C 1005.02 835.96 1004.8 835.126 1003.87 834.005 z" fill="rgb(185,150,94)" transform="translate(0,0)"></path>
<path d="M 1031.65 688.131 C 1032.02 688.098 1032.4 688.065 1032.78 688.033 C 1032.72 688.35 1032.17 688.708 1032.02 688.836 C 1031.7 688.945 1031.37 689.055 1031.05 689.164 C 1031.25 688.82 1031.45 688.475 1031.65 688.131 z" fill="rgb(185,150,94)" transform="translate(0,0)"></path>
<path d="M 1003.68 839.193 C 1005.19 838.913 1004.56 838.714 1005.3 840.106 C 1004.36 839.855 1004.44 839.844 1003.68 839.193 z" fill="rgb(185,150,94)" transform="translate(0,0)"></path>
<path d="M 1056.56 824.99 C 1057.08 824.979 1056.89 824.934 1057.16 825.058 L 1057.23 825.356 C 1056.97 825.396 1056.71 825.435 1056.45 825.475 L 1056.4 825.368 L 1056.56 824.99 z" fill="rgb(185,150,94)" transform="translate(0,0)"></path>
<path d="M 948.806 743.11 C 948.933 743.117 949.061 743.124 949.188 743.131 C 949.431 743.486 949.297 743.221 949.539 744.089 C 948.997 744.111 949.167 744.161 948.934 744.037 C 948.787 743.682 948.856 743.942 948.806 743.11 z" fill="rgb(122,98,62)" transform="translate(0,0)"></path>
<path d="M 1061.72 822.047 C 1061.86 822.059 1062.01 822.071 1062.16 822.083 L 1062.24 822.354 C 1062.01 822.407 1061.77 822.461 1061.53 822.515 C 1061.6 822.359 1061.66 822.203 1061.72 822.047 z" fill="rgb(185,150,94)" transform="translate(0,0)"></path>
<path d="M 989.579 698.149 C 989.725 698.142 989.872 698.135 990.018 698.128 L 989.837 698.364 C 989.696 698.433 989.555 698.502 989.415 698.571 C 989.469 698.431 989.524 698.29 989.579 698.149 z" fill="rgb(185,150,94)" transform="translate(0,0)"></path>
<path d="M 1060.52 695.303 C 1061.33 695.329 1061.09 695.297 1061.5 696.092 C 1060.78 695.852 1060.87 695.91 1060.52 695.303 z" fill="rgb(185,150,94)" transform="translate(0,0)"></path>
<path d="M 1098.55 781.127 C 1098.69 781.094 1098.82 781.061 1098.95 781.027 L 1098.8 781.335 L 1098.72 781.78 C 1098.66 781.562 1098.61 781.345 1098.55 781.127 z" fill="rgb(122,98,62)" transform="translate(0,0)"></path>
<path d="M 1036.03 657.905 C 1094.33 660.823 1143.16 720.107 1140.15 777.99 C 1138.42 810.453 1123.99 840.935 1099.99 862.856 C 1050.55 907.421 974.176 897.475 925.494 855.977 C 804.053 752.457 889.112 579.218 1045.2 591.727 C 1098.33 595.832 1147.56 621.215 1181.71 662.121 C 1211.61 697.888 1226.13 744.031 1222.11 790.471 C 1217.21 843.694 1189.12 895.227 1148.42 928.837 C 1079.01 986.144 976.359 996.188 897.304 953.434 C 892.162 950.653 885.796 948.306 881.407 944.449 C 882.926 944.013 931.623 958.551 937.017 959.861 C 1033.33 983.258 1137.55 960.09 1188.46 867.653 C 1211.53 825.757 1220.58 777.283 1206.77 730.926 C 1192.25 682.214 1157.58 642.424 1113.04 618.394 C 1072.91 596.743 1024.01 589.802 980.021 603.126 C 939.941 615.265 907.839 640.826 888.002 677.905 C 870.664 710.31 869.176 747.745 880.066 782.488 C 892.248 821.348 920.952 854.231 957.01 872.936 C 988.352 889.195 1025.94 893.902 1059.77 882.774 C 1088.76 873.242 1111.38 851.909 1124.88 824.779 C 1137.83 798.75 1141.45 766.406 1132.05 738.62 C 1122.31 709.86 1099.17 683.596 1071.76 670.476 C 1058.55 664.154 1045.19 660.887 1030.63 659.796 L 1026.86 658.617 C 1029.92 658.357 1032.97 658.12 1036.03 657.905 z" fill="rgb(4,7,15)" transform="translate(0,0)"></path>
<path d="M 939.528 800.991 C 933.569 789.071 926.733 770.724 927.176 757.109 C 929.33 690.895 993.809 648.215 1055.95 669.741 C 1084.8 679.818 1108.44 700.967 1121.65 728.513 C 1133.56 753.558 1133.85 784.956 1124.58 810.844 C 1114.93 837.531 1095.12 859.324 1069.48 871.478 C 1057.33 877.201 1022.41 886.567 1010.13 881.499 L 1010.98 878.969 C 1134 888.366 1173.87 724.904 1062.87 675.321 C 1049.52 669.357 1019.1 663.297 1005.64 668.651 L 1007.46 670.353 L 1007.62 671.252 C 1014.64 671.878 1027.23 671.461 1033.02 674.193 L 1027.3 674.788 L 1027.19 675.525 C 1030.08 676.417 1032.19 677.075 1035.03 678.243 C 1046.05 676.743 1073.78 691.612 1081.49 699.347 L 1080.62 701.293 C 1093.69 709.423 1113.13 739.119 1113.07 754.799 L 1110.01 755.262 C 1107.05 738.893 1098.96 724.035 1087.76 711.605 C 1077.88 701.587 1066.87 694.173 1053.63 689.568 L 1052.76 690.095 L 1055.48 694.079 C 1049.02 691.887 1030.84 681.772 1022.92 683.834 L 1025.44 687.115 L 1023.94 687.463 C 1021.04 686.461 1017.09 686.079 1015.04 685.099 L 1011.09 684.084 C 1008.09 684.344 1005.22 684.591 1002.21 684.971 L 1001.83 685.635 L 999.475 688.532 C 1002.02 687.51 1006.2 685.985 1008.77 687.01 L 1008.48 688.224 C 985.915 692.705 974.266 703.809 962.654 723.102 L 961.813 724.522 C 960.921 726.001 960.972 725.966 959.572 727.03 L 961.018 721.028 L 960.12 720.625 C 955.381 727.11 951.678 739.774 950.156 740.761 L 949.219 739.377 L 947.476 738.562 C 942.973 748.384 945.444 759.523 943.193 767.624 L 941.575 765.837 L 940.926 765.827 C 941.773 771.296 942.239 777.105 944.955 781.882 C 945.41 783.557 948.856 794.874 949.648 796.121 C 954.431 802.323 960.183 808.292 965.53 814.069 L 966.467 813.119 C 968.868 810.639 970.319 809.758 970.664 806.416 C 967.519 803.236 968.823 805.683 963.683 804.125 L 965.385 800.728 C 971.993 800.078 977.97 814.336 985.62 815.588 C 987.052 815.822 994.102 819.367 995.16 820.401 C 989.27 821.68 992.173 815.486 986.327 819.601 C 982.145 818.282 981.763 817.769 978.182 815.036 L 974.548 815.963 C 975.539 818.034 975.487 817.931 976.711 819.767 C 971.073 820.83 965.304 815.201 962.352 816.554 C 963.075 817.191 963.798 817.827 964.521 818.464 C 963.895 822.11 963.696 820.254 966.179 824.059 L 964.996 824.31 C 961.369 821.772 949.358 809.516 945.591 805.905 L 944.621 806.595 L 939.528 800.991 z" fill="rgb(122,98,62)" transform="translate(0,0)"></path>
<path d="M 940.926 765.827 C 937.655 750.23 944.974 726.848 953.174 713.571 C 958.709 704.85 966.175 697.517 974.994 692.139 C 980.722 688.559 1011.05 675.748 1016.88 679.499 C 1016.59 679.678 1011.36 680.807 1011.01 680.858 C 979.452 685.456 955.686 702.162 945.9 733.311 C 941.383 747.69 941.659 750.941 941.575 765.837 L 940.926 765.827 z" fill="rgb(47,39,27)" transform="translate(0,0)"></path>
<path d="M 1035.03 678.243 C 1046.05 676.743 1073.78 691.612 1081.49 699.347 L 1080.62 701.293 C 1074.2 695.883 1067.01 690.945 1058.98 687.996 C 1056.7 687.159 1057.71 687.895 1056.97 687.326 C 1056.96 687.166 1057.29 685.625 1057.31 685.536 C 1053.23 681.88 1035.93 681.22 1035.03 678.243 z" fill="rgb(85,64,48)" transform="translate(0,0)"></path>
<path d="M 960.12 720.625 C 964.597 710.195 979.006 694.18 990.439 690.19 C 990.821 690.057 991.004 690.391 991.202 690.629 C 990.452 691.946 984.961 693.633 982.163 696.222 C 971.34 706.238 968.384 709.181 961.018 721.028 L 960.12 720.625 z" fill="rgb(47,39,27)" transform="translate(0,0)"></path>
<path d="M 959.462 713.153 C 956.77 722.724 951.082 728.964 949.219 739.377 L 947.476 738.562 C 949.022 733.813 956.351 716.839 959.462 713.153 z" fill="rgb(85,64,48)" transform="translate(0,0)"></path>
<path d="M 961.255 710.907 C 964.608 705.66 969.689 700.186 975.019 696.96 C 970.279 701.989 966.408 706.298 961.255 710.907 z" fill="rgb(85,64,48)" transform="translate(0,0)"></path>
<path d="M 1011.09 684.084 C 1013.63 683.448 1017.42 681.941 1019.77 682.727 L 1020.01 683.051 C 1019.85 683.876 1017 683.281 1015.04 685.099 L 1011.09 684.084 z" fill="rgb(100,75,54)" transform="translate(0,0)"></path>
<path d="M 1001.83 685.635 L 999.475 688.532 C 998.506 688.534 997.404 688.722 996.591 688.087 C 996.5 687.238 1000.87 686.048 1001.83 685.635 z" fill="rgb(47,39,27)" transform="translate(0,0)"></path>
<path d="M 959.462 713.153 C 960.102 711.674 959.976 711.615 961.255 710.907 C 960.851 712.364 960.805 712.484 959.462 713.153 z" fill="rgb(85,64,48)" transform="translate(0,0)"></path>
<path d="M 932.227 797.109 C 931.934 795.474 928.575 787.989 927.736 785.886 C 900.154 716.755 963.598 647.178 1036.03 657.905 C 1032.97 658.12 1029.92 658.357 1026.86 658.617 L 1030.63 659.796 C 999.372 659.69 973.638 665.597 950.731 688.538 C 933.271 705.746 923.558 729.312 923.821 753.825 C 923.84 768.982 928.679 788.916 937.902 801.097 C 943.22 807.829 950.184 817.204 956.515 822.591 L 953.879 823.163 C 947.479 816.338 938.354 804.602 932.227 797.109 z" fill="rgb(4,7,15)" transform="translate(0,0)"></path>
<path d="M 933.498 802.272 C 937.906 806.749 941.179 812.664 945.273 817.724 C 962.578 839.108 993.241 851.231 1020.02 853.249 L 1021.56 853.352 C 1023.5 853.495 1023.61 853.607 1025.03 854.646 C 1000.5 856.398 970.195 843.786 952.099 827.571 C 951.598 826.927 951.712 826.981 951.032 826.601 C 943.206 818.899 937.787 812.449 933.498 802.272 z" fill="rgb(47,39,27)" transform="translate(0,0)"></path>
<path d="M 1020.31 871.264 C 1002.46 871.189 984.883 866.857 969.041 858.629 C 870.951 808.718 874.244 667.324 985.012 633.439 C 1020.7 622.386 1059.34 626.214 1092.16 644.055 C 1127.65 663.315 1156.84 695.417 1168.34 734.546 C 1179.34 771.961 1174.93 812.217 1156.1 846.367 C 1135.4 884.047 1100.47 911.858 1059.11 923.578 C 958.941 951.525 842.824 881.735 816.352 781.792 C 803.245 732.585 810.532 680.171 836.566 636.406 C 866.385 585.582 915.292 548.793 972.391 534.235 C 1106.81 499.67 1258.66 585.596 1293.35 721.454 C 1310.19 788.577 1299.63 859.644 1264 918.97 C 1226.59 981.775 1159.62 1029.5 1089.02 1047.33 C 1003.8 1068.17 913.789 1054 839.092 1008 C 762.977 962.125 696.04 880.452 675.762 793.526 C 656.583 710.26 672.859 624.744 717.607 552.493 C 819.493 387.986 1028.35 338.361 1199.33 421.052 C 1215.96 429.098 1230.35 437.921 1246.01 447.544 L 1244.69 450.068 C 1158.6 399.793 1056.17 385.469 959.596 410.202 C 865.836 434.383 781.041 499.682 732.077 583.097 C 690.199 655.75 678.431 741.912 699.29 823.134 C 742.928 988.38 930.143 1087.5 1090.38 1029.4 C 1158.05 1004.86 1215.02 959.801 1250.61 896.927 C 1282.62 840.359 1291.08 773.46 1274.13 710.709 C 1238.55 583.706 1098.64 516.114 974.982 551.679 C 920.662 567.569 874.758 604.162 847.158 653.572 C 825.508 692.862 820.326 739.136 832.748 782.242 C 860.284 876.013 966.102 940.342 1061.56 911.294 C 1098.88 899.631 1130.11 873.73 1148.47 839.203 C 1156.51 823.889 1161.61 807.202 1163.5 790.008 C 1160.46 783.042 1162.03 782.646 1160.17 776.336 C 1156.82 733.527 1145.77 701.992 1111.79 672.66 C 1085.29 649.77 1050.8 638.304 1015.87 640.769 C 950.983 645.759 903.361 692.054 909.094 758.916 C 911.956 790.134 927.088 818.941 951.168 839.012 C 968.415 853.163 995.851 863.808 1018.26 864.326 C 1021.73 863.815 1022.4 864.063 1025.98 864.452 C 1030.53 863.987 1034.63 863.209 1039.12 862.626 C 1087.78 856.297 1122.64 802.848 1113.07 754.799 C 1113.13 739.119 1093.69 709.423 1080.62 701.293 L 1081.49 699.347 C 1073.78 691.612 1046.05 676.743 1035.03 678.243 C 1032.19 677.075 1030.08 676.417 1027.19 675.525 L 1027.3 674.788 L 1033.02 674.193 C 1048.22 676.219 1057.11 679.26 1070.86 686.612 C 1071.62 686.893 1071.53 686.899 1072.15 687.504 C 1077.01 691.1 1082.42 694.874 1086.76 699.02 C 1087.66 699.474 1087.6 699.463 1088.2 700.324 C 1089.79 701.92 1092.24 704.222 1093.65 705.848 C 1094.91 706.759 1094.8 706.593 1095.48 707.886 C 1106.15 720.414 1112.88 729.865 1117.45 745.821 C 1132.29 797.604 1099.08 856.961 1045.94 868.506 C 1037.67 870.307 1033.25 871.066 1024.69 871.275 C 1022.99 873.036 1021.97 873.006 1020.31 871.264 z" fill="rgb(221,176,100)" transform="translate(0,0)"></path>
<path d="M 1081.49 699.347 C 1158.21 762.795 1099.68 881.351 1004.99 865.088 C 953.681 855.683 912.729 815.382 906.603 762.744 C 898.242 690.896 950.947 640.54 1020.57 636.871 C 1100.72 632.648 1175.29 709.507 1163.5 790.008 C 1160.46 783.042 1162.03 782.646 1160.17 776.336 C 1156.82 733.527 1145.77 701.992 1111.79 672.66 C 1085.29 649.77 1050.8 638.304 1015.87 640.769 C 950.983 645.759 903.361 692.054 909.094 758.916 C 911.956 790.134 927.088 818.941 951.168 839.012 C 968.415 853.163 995.851 863.808 1018.26 864.326 C 1021.73 863.815 1022.4 864.063 1025.98 864.452 C 1030.53 863.987 1034.63 863.209 1039.12 862.626 C 1087.78 856.297 1122.64 802.848 1113.07 754.799 C 1113.13 739.119 1093.69 709.423 1080.62 701.293 L 1081.49 699.347 z" fill="rgb(4,7,15)" transform="translate(0,0)"></path>
<path d="M 1018.26 864.326 C 1021.73 863.815 1022.4 864.063 1025.98 864.452 C 1023.11 865.15 1020.7 866.229 1018.26 864.326 z" fill="rgb(100,75,54)" transform="translate(0,0)"></path>
<path d="M 1020.31 871.264 C 1022.58 871.029 1022.52 871.027 1024.69 871.275 C 1022.99 873.036 1021.97 873.006 1020.31 871.264 z" fill="rgb(85,64,48)" transform="translate(0,0)"></path>
<path d="M 1086.76 699.02 C 1087.66 699.474 1087.6 699.463 1088.2 700.324 C 1087.11 700.072 1086.93 700.148 1086.76 699.02 z" fill="rgb(122,98,62)" transform="translate(0,0)"></path>
<path d="M 1010.98 878.969 C 980.07 878.886 944.557 857.179 924.711 835.841 C 838.028 742.644 908.621 606.952 1033.17 613.125 C 1124.26 617.639 1196.14 696.936 1191.83 786.988 C 1184.67 888.311 1090.81 956.474 992.544 947.34 C 933.656 942.697 870.76 922.376 831.425 875.911 C 796.38 834.514 777.308 771.029 781.823 716.91 C 793.787 573.516 926.006 484.361 1063.91 496.107 C 1144.84 502.99 1219.8 541.488 1272.55 603.26 C 1322.21 661.973 1346.44 738.054 1339.87 814.674 C 1332.61 895.551 1291.98 967.256 1229.77 1018.51 C 1159.79 1076.17 1071.56 1101.53 981.595 1092.78 C 933.698 1088.12 897.356 1075.89 854.046 1056.09 L 855.022 1054.14 C 916.721 1079.91 974.78 1089.26 1041.6 1080.05 C 1205.07 1057.54 1344.47 904.464 1320.15 734.77 C 1310.77 666.429 1274.35 604.711 1219.07 563.457 C 1159.16 518.418 1083.65 499.37 1009.55 510.603 C 940.77 521.111 879.069 558.737 838.237 615.071 C 805.028 661.169 790.979 715.419 800.372 771.493 C 808.672 817.956 834.701 865.568 874.006 892.645 C 960.359 952.134 1087.11 956.568 1152.04 863.175 C 1175.93 829.494 1185.17 787.572 1177.65 746.966 C 1154.77 626.086 986.488 574.37 912.904 682.527 C 875.349 737.725 900.095 820.983 956.072 853.976 C 984.458 870.707 1011.98 878.044 1045.22 870.823 L 1045.94 868.506 C 1099.08 856.961 1132.29 797.604 1117.45 745.821 C 1112.88 729.865 1106.15 720.414 1095.48 707.886 C 1094.8 706.593 1094.91 706.759 1093.65 705.848 C 1092.24 704.222 1089.79 701.92 1088.2 700.324 C 1087.6 699.463 1087.66 699.474 1086.76 699.02 C 1082.42 694.874 1077.01 691.1 1072.15 687.504 C 1071.53 686.899 1071.62 686.893 1070.86 686.612 C 1057.11 679.26 1048.22 676.219 1033.02 674.193 C 1027.23 671.461 1014.64 671.878 1007.62 671.252 L 1007.46 670.353 L 1005.64 668.651 C 1019.1 663.297 1049.52 669.357 1062.87 675.321 C 1173.87 724.904 1134 888.366 1010.98 878.969 z" fill="rgb(221,176,100)" transform="translate(0,0)"></path>
<path d="M 1007.46 670.353 C 1101.28 663.415 1160.15 767.657 1097.1 840.625 C 1084.48 855.229 1064.35 867.466 1045.22 870.823 L 1045.94 868.506 C 1099.08 856.961 1132.29 797.604 1117.45 745.821 C 1112.88 729.865 1106.15 720.414 1095.48 707.886 C 1094.8 706.593 1094.91 706.759 1093.65 705.848 C 1092.24 704.222 1089.79 701.92 1088.2 700.324 C 1087.6 699.463 1087.66 699.474 1086.76 699.02 C 1082.42 694.874 1077.01 691.1 1072.15 687.504 C 1071.53 686.899 1071.62 686.893 1070.86 686.612 C 1057.11 679.26 1048.22 676.219 1033.02 674.193 C 1027.23 671.461 1014.64 671.878 1007.62 671.252 L 1007.46 670.353 z" fill="rgb(47,39,27)" transform="translate(0,0)"></path>
<path d="M 755.549 573.815 L 757.306 574.118 C 763.815 564.723 764.594 561.055 773.07 553.17 L 774.038 553.077 L 774.448 554.184 C 776.665 560.031 780.876 568.021 786.562 571.052 L 785.66 572.08 C 781.745 576.596 780.117 579.036 776.889 584.069 C 777.144 586.227 776.777 585.491 777.383 586.487 C 762.448 610.842 750.779 633.61 742.118 660.643 C 703.536 781.074 752.103 902.134 860.347 966.38 C 920.699 1002.2 996.737 1017.54 1065.49 1000.86 C 1129.25 986.017 1184.31 946.048 1218.18 890.026 C 1249.65 838.033 1260.03 783.054 1245.92 723.263 C 1219.82 612.735 1091.85 547.232 984.866 574.635 C 894.756 597.717 829.727 683.001 854.703 777.017 C 876.978 861.074 971.451 923.578 1057.2 898.925 C 1090.72 889.245 1119.02 866.642 1135.88 836.091 C 1169.89 773.848 1145.52 695.153 1082.99 662.286 C 1053.24 646.731 1018.52 643.7 986.522 653.867 C 960.313 662.13 938.583 678.477 925.906 703.101 C 913.062 727.724 910.626 756.469 919.144 782.903 C 922.111 792.003 927.696 804.083 932.723 812.285 L 934.512 811.521 C 957.628 842.458 989.346 860.918 1028.93 856.802 L 1025.03 854.646 C 1023.61 853.607 1023.5 853.495 1021.56 853.352 L 1020.02 853.249 C 993.241 851.231 962.578 839.108 945.273 817.724 C 941.179 812.664 937.906 806.749 933.498 802.272 C 932.408 800.235 932.592 799.578 932.227 797.109 C 938.354 804.602 947.479 816.338 953.879 823.163 L 956.515 822.591 C 950.184 817.204 943.22 807.829 937.902 801.097 L 939.528 800.991 L 944.621 806.595 C 950.877 814.669 962.828 826.718 971.703 832.01 C 975.691 834.388 980.545 835.073 985.13 838.627 L 984.399 839.339 L 979.749 838.141 L 977.81 839.317 C 983.432 841.697 997.65 848.23 1003.35 847.959 C 1004.55 848.439 1005.38 848.615 1006.58 848.935 C 1051.91 861.08 1092.46 835.155 1100.65 788.255 C 1104.6 769.732 1106.54 762.804 1099.91 744.603 C 1097.41 728.76 1093.21 726.629 1086.18 713.963 L 1087.24 712.854 L 1087.76 711.605 C 1098.96 724.035 1107.05 738.893 1110.01 755.262 L 1113.07 754.799 C 1122.64 802.848 1087.78 856.297 1039.12 862.626 C 1034.63 863.209 1030.53 863.987 1025.98 864.452 C 1022.4 864.063 1021.73 863.815 1018.26 864.326 C 995.851 863.808 968.415 853.163 951.168 839.012 C 927.088 818.941 911.956 790.134 909.094 758.916 C 903.361 692.054 950.983 645.759 1015.87 640.769 C 1050.8 638.304 1085.29 649.77 1111.79 672.66 C 1145.77 701.992 1156.82 733.527 1160.17 776.336 C 1153.13 904.889 1014.68 952.417 914.167 879.832 C 792.482 794.288 814.928 622.817 953.666 568.572 C 1086.22 516.744 1244.96 607.34 1265.84 747.992 C 1275.13 807.795 1259.89 868.815 1223.59 917.232 C 1181.9 972.975 1119.71 1009.79 1050.79 1019.52 C 898.328 1041.14 734.713 925.935 713.231 771.402 C 705.256 715.244 713.661 657.978 737.437 606.48 C 742.02 596.513 749.076 582.401 755.549 573.815 z" fill="rgb(221,176,100)" transform="translate(0,0)"></path>
<path d="M 1087.24 712.854 C 1105.37 737.127 1109.22 760.335 1102.69 789.533 C 1097.82 811.283 1091.78 828.054 1073.48 841.589 C 1062.15 849.965 1042.73 857.018 1028.93 856.802 L 1025.03 854.646 C 1023.61 853.607 1023.5 853.495 1021.56 853.352 L 1020.02 853.249 C 993.241 851.231 962.578 839.108 945.273 817.724 C 941.179 812.664 937.906 806.749 933.498 802.272 C 932.408 800.235 932.592 799.578 932.227 797.109 C 938.354 804.602 947.479 816.338 953.879 823.163 L 956.515 822.591 C 950.184 817.204 943.22 807.829 937.902 801.097 L 939.528 800.991 L 944.621 806.595 C 950.877 814.669 962.828 826.718 971.703 832.01 C 975.691 834.388 980.545 835.073 985.13 838.627 L 984.399 839.339 L 979.749 838.141 L 977.81 839.317 C 983.432 841.697 997.65 848.23 1003.35 847.959 C 1004.55 848.439 1005.38 848.615 1006.58 848.935 C 1051.91 861.08 1092.46 835.155 1100.65 788.255 C 1104.6 769.732 1106.54 762.804 1099.91 744.603 C 1097.41 728.76 1093.21 726.629 1086.18 713.963 L 1087.24 712.854 z" fill="rgb(185,150,94)" transform="translate(0,0)"></path>
<path d="M 977.81 839.317 C 976.515 838.792 972.033 837.386 971.69 836.365 C 970.894 833.998 979.82 838.17 979.749 838.141 L 977.81 839.317 z" fill="rgb(47,39,27)" transform="translate(0,0)"></path>
<path d="M 956.515 822.591 C 957.516 823.556 958.711 824.413 959.372 825.654 C 959.608 826.098 959.397 826.717 958.842 826.644 C 956.933 826.389 955.141 824.3 953.879 823.163 L 956.515 822.591 z" fill="rgb(85,64,48)" transform="translate(0,0)"></path>
<path d="M 963.881 830.126 C 965.559 830.172 965.633 830.526 967.043 831.784 C 966.659 831.965 966.275 832.147 965.892 832.328 C 965.555 832.418 965.195 832.359 964.905 832.166 C 964.273 831.74 964.08 830.787 963.881 830.126 z" fill="rgb(47,39,27)" transform="translate(0,0)"></path>
<path d="M 1087.76 711.605 C 1098.96 724.035 1107.05 738.893 1110.01 755.262 C 1114.8 768.281 1109.85 793.165 1103.91 806.472 C 1074.27 872.905 986.568 875.188 941.524 824.292 C 938.778 821.19 934.772 815.971 932.723 812.285 L 934.512 811.521 C 957.628 842.458 989.346 860.918 1028.93 856.802 C 1042.73 857.018 1062.15 849.965 1073.48 841.589 C 1091.78 828.054 1097.82 811.283 1102.69 789.533 C 1109.22 760.335 1105.37 737.127 1087.24 712.854 L 1087.76 711.605 z" fill="rgb(47,39,27)" transform="translate(0,0)"></path>
<path d="M 1101.11 736.398 C 1117.46 746.995 1107.65 799.539 1098.14 813.592 C 1096.49 812.436 1102.43 798.959 1103.13 794.582 C 1105.9 777.342 1111.65 761.363 1104.35 744.208 L 1101.11 736.398 z" fill="rgb(185,150,94)" transform="translate(0,0)"></path>
<path d="M 934.984 1306.98 L 1137.92 1306.88 C 1112.51 1339.32 1084.59 1371.83 1058.42 1403.8 C 1038.45 1428.21 1017.92 1454.15 997.366 1477.85 L 1074.93 1477.63 C 1089.03 1477.57 1103.03 1477.15 1117.09 1478.05 C 1135.08 1479.2 1132.9 1492.12 1132.6 1505.99 C 1112.25 1506.67 1088.21 1506.04 1067.55 1506.04 L 937.963 1506 C 983.767 1448.12 1030.41 1390.91 1077.89 1334.39 L 995.96 1334.36 C 981.489 1334.38 966.936 1334.8 952.503 1333.87 C 934.438 1332.7 934.881 1321.24 934.984 1306.98 z" fill="rgb(221,176,100)" transform="translate(0,0)"></path>
<path d="M 1591.64 1307.12 C 1602.72 1306.97 1618.87 1309.65 1620.06 1323.72 C 1621.82 1344.31 1620.93 1365.89 1620.91 1386.63 L 1620.92 1505.25 L 1605.9 1504.91 C 1585.91 1489.25 1591.79 1473.97 1591.48 1451.54 C 1591.35 1442.19 1591.76 1432.65 1591.9 1423.3 C 1554.45 1416.29 1499.33 1423.01 1461.94 1429.38 C 1460.13 1429.43 1460.65 1429.49 1458.83 1430.43 C 1456.98 1436.58 1458.06 1496.33 1458.12 1506.28 L 1428.82 1506.11 L 1428.75 1419.43 C 1430.84 1417.82 1432.96 1416.25 1435.11 1414.72 C 1469.9 1390.06 1550.68 1388.39 1592.06 1395.61 L 1591.64 1307.12 z" fill="rgb(221,176,100)" transform="translate(0,0)"></path>
<path d="M 690.032 1307.2 C 705.116 1307.3 711.012 1306.2 718.902 1320.21 C 719.661 1349.76 714.394 1416.72 724.835 1441.53 C 731.488 1457.35 744.027 1470.59 760.03 1477.06 C 778.612 1484.42 799.345 1484.16 817.74 1476.34 C 837.794 1467.69 846.68 1452.98 854.277 1433.69 C 864.548 1434.15 874.565 1434.76 884.853 1434.36 C 882.89 1443.06 881.636 1448.09 877.983 1456.16 C 847.054 1517.79 759.192 1527.03 712.752 1479.56 C 703.483 1470.11 696.821 1458.43 693.417 1445.64 C 688.288 1426.73 689.576 1395.56 689.651 1375.31 L 690.032 1307.2 z" fill="rgb(221,176,100)" transform="translate(0,0)"></path>
<path d="M 1275.55 1305.61 C 1277.69 1305.86 1277.84 1306.02 1279.93 1306.68 C 1286.92 1313.09 1328.26 1389.08 1334.03 1401.09 C 1322.21 1396.83 1311.32 1391.6 1298.89 1395.68 C 1295.43 1391.76 1280.44 1365.33 1277.05 1359.53 C 1257.78 1394.21 1237.93 1428.57 1217.51 1462.59 L 1192.56 1506.4 L 1158.38 1506.17 C 1169.61 1482.84 1188.44 1454.49 1201.62 1431.57 C 1217.22 1403.99 1233.02 1376.53 1249.01 1349.19 C 1255.2 1338.45 1268.08 1312.94 1275.55 1305.61 z" fill="rgb(221,176,100)" transform="translate(0,0)"></path>
<path d="M 755.549 573.815 C 759.113 567.086 764.672 559.558 769.308 553.381 C 853.104 441.72 998.748 398.49 1131.62 434.843 L 1129.84 437.515 C 1131.02 438.311 1132.98 439.535 1134 440.397 C 989.294 413.906 861.981 465.914 777.383 586.487 C 776.777 585.491 777.144 586.227 776.889 584.069 C 780.117 579.036 781.745 576.596 785.66 572.08 L 786.562 571.052 C 780.876 568.021 776.665 560.031 774.448 554.184 L 774.038 553.077 L 773.07 553.17 C 764.594 561.055 763.815 564.723 757.306 574.118 L 755.549 573.815 z" fill="url(#Gradient1)" transform="translate(0,0)"></path>
<path d="M 621.598 1307.05 C 634.983 1306.86 648.641 1306.97 662.052 1306.94 C 633.29 1334.7 603.824 1365.08 575.123 1393.37 L 564.971 1403.54 L 545.128 1384.8 C 569.979 1358.26 595.476 1332.34 621.598 1307.05 z" fill="rgb(221,176,100)" transform="translate(0,0)"></path>
<path d="M 868.916 1307.03 L 887.972 1307 L 888.277 1369.13 C 888.461 1392.39 893.434 1409.05 873.164 1424.5 C 866.84 1427.02 862.38 1426.96 855.808 1427.09 C 858.444 1413.44 857.75 1397.48 857.869 1383.58 C 858.052 1362.05 857.286 1340.12 858.072 1318.64 C 861.738 1312.85 863.551 1311.23 868.916 1307.03 z" fill="rgb(221,176,100)" transform="translate(0,0)"></path>
<path d="M 454.976 1306.49 C 458.378 1307.25 525.969 1375.91 533.864 1383.64 C 527.687 1390.08 520.73 1396.71 514.348 1403.02 L 506.421 1395.07 C 477.695 1368.4 445.246 1334.96 417.505 1306.91 C 430.344 1307.02 442.144 1307.12 454.976 1306.49 z" fill="rgb(221,176,100)" transform="translate(0,0)"></path>
<path d="M 682.189 1612.43 C 705.415 1611.94 738.306 1607.8 740.154 1642.01 C 740.676 1651.68 737.32 1657.8 730.794 1664.89 C 715.92 1675.84 700.738 1673.17 682.137 1672.71 C 681.967 1654.2 681.528 1630.65 682.189 1612.43 z" fill="rgb(221,176,100)" transform="translate(0,0)"></path>
<path d="M 690.515 1619.25 C 707.222 1619.07 727.818 1616.52 731.748 1638.51 C 733.248 1646.9 730.824 1652.81 725.684 1659.31 C 715.488 1667.57 704.007 1665.56 690.514 1665.39 C 690.12 1650.33 690.335 1634.34 690.515 1619.25 z" fill="rgb(4,7,15)" transform="translate(0,0)"></path>
<path d="M 1483.41 1611.5 C 1500.25 1608.6 1516.33 1619.67 1519.64 1636.44 C 1522.96 1653.21 1512.29 1669.56 1495.61 1673.28 C 1484.45 1675.77 1472.81 1672.02 1465.21 1663.47 C 1457.61 1654.92 1455.24 1642.93 1459.02 1632.13 C 1462.8 1621.34 1472.13 1613.44 1483.41 1611.5 z" fill="rgb(221,176,100)" transform="translate(0,0)"></path>
<path d="M 1482.7 1619.47 C 1490.99 1617.27 1499.83 1619.75 1505.77 1625.94 C 1511.71 1632.13 1513.82 1641.06 1511.29 1649.26 C 1508.75 1657.46 1501.97 1663.64 1493.57 1665.39 C 1481.04 1668.01 1468.71 1660.18 1465.77 1647.72 C 1462.82 1635.27 1470.33 1622.74 1482.7 1619.47 z" fill="rgb(4,7,15)" transform="translate(0,0)"></path>
<path d="M 538.633 1395.73 C 541.65 1397.79 550.584 1406.45 553.745 1409.39 C 554.274 1441.32 553.944 1474.17 554.007 1506.17 L 540.489 1506.13 L 523.832 1506.08 L 523.874 1409.83 C 528.437 1405.17 533.851 1400.26 538.633 1395.73 z" fill="rgb(221,176,100)" transform="translate(0,0)"></path>
<path d="M 1305.29 1407.21 C 1328.31 1409.63 1349.14 1422.28 1359.22 1443.22 C 1369.22 1464.03 1384.81 1484.69 1393.84 1506.1 C 1383.25 1506.15 1372.67 1506.08 1362.09 1505.88 C 1354.51 1493.42 1307.17 1415.01 1305.29 1407.21 z" fill="rgb(221,176,100)" transform="translate(0,0)"></path>
<path d="M 1428.44 1306.81 C 1437.58 1306.92 1455.72 1310.07 1456.74 1322.01 C 1458.63 1344.31 1457.73 1368.85 1457.57 1391.4 C 1453.13 1392.78 1450.21 1393.82 1445.93 1395.58 C 1438.4 1399.79 1434.94 1402.18 1428.31 1407.68 C 1428.86 1374.06 1428.9 1340.43 1428.44 1306.81 z" fill="rgb(221,176,100)" transform="translate(0,0)"></path>
<path d="M 430.158 1612.17 C 433 1612.26 437.141 1611.02 437.057 1614.44 C 436.589 1633.55 438.086 1653.51 436.435 1672.32 C 436.352 1673.27 430.555 1673.51 429.851 1672.14 C 428.41 1660.34 429.112 1640.22 429.013 1628.57 C 423.829 1637.7 411.278 1660.87 405.333 1667.49 C 400.065 1659.27 385.772 1637.84 382.518 1629.53 L 382.501 1629.54 C 381.901 1631.31 382.004 1631.85 381.949 1633.75 C 381.7 1646.45 382.063 1659.58 381.198 1672.08 C 381.115 1673.28 374.556 1672.97 374.489 1672.18 C 372.933 1653.81 374.378 1634.64 373.9 1615.93 C 373.821 1612.84 376.963 1612.32 380.078 1612.72 C 389.47 1624.9 397.607 1641.36 405.545 1654.84 C 412.302 1645.45 423.789 1623.41 430.158 1612.17 z" fill="rgb(221,176,100)" transform="translate(0,0)"></path>
<path d="M 1092.27 1611.72 C 1093.36 1611.71 1099.26 1611.31 1099.78 1612.37 C 1109.38 1631.81 1118.42 1652.08 1126.92 1671.94 C 1127.49 1673.26 1121.57 1673.18 1121 1672.9 C 1117.25 1671 1113.59 1660.96 1111.73 1657.48 L 1100.5 1657.39 C 1094.58 1657.34 1087.51 1657.55 1081.72 1656.85 L 1080.08 1656.68 C 1078.27 1660.63 1075.35 1669.76 1072 1672.5 C 1071.2 1673.15 1064.91 1673.05 1065.56 1671.64 C 1074.67 1651.83 1083.24 1631.6 1092.27 1611.72 z" fill="rgb(221,176,100)" transform="translate(0,0)"></path>
<path d="M 1095.83 1622.75 C 1098.58 1625.56 1106.78 1646.27 1108.58 1650.94 C 1105.18 1651.14 1101.84 1651.09 1098.43 1651.09 C 1093.34 1651.07 1088.25 1651.01 1083.16 1650.93 C 1087.59 1641.1 1090.96 1632.64 1095.83 1622.75 z" fill="rgb(4,7,15)" transform="translate(0,0)"></path>
<path d="M 1660.71 1657.47 C 1660.8 1642.95 1660.66 1628.43 1660.58 1613.92 C 1660.28 1610.52 1668.66 1611.25 1668.67 1613.06 C 1668.81 1631.69 1668.59 1650.38 1668.72 1669.03 C 1668.73 1670.63 1668.09 1671.58 1667.29 1672.87 C 1666.47 1672.63 1662.24 1671.58 1661.59 1670.81 C 1648.97 1655.93 1636.88 1640.89 1625.27 1625.2 C 1624.92 1640.66 1625.88 1657.55 1624.36 1672.63 C 1624.3 1673.23 1618.42 1673.31 1618.41 1672.31 C 1618.27 1653.07 1616.8 1630.47 1618.23 1611.33 C 1623.04 1611.88 1623.33 1611.35 1626.43 1615.21 C 1637.78 1629.35 1648.76 1643.83 1660.71 1657.47 z" fill="rgb(221,176,100)" transform="translate(0,0)"></path>
<path d="M 540.688 1611.87 C 554.194 1611.76 568.38 1611.54 581.76 1612.32 C 582.813 1612.38 582.434 1618.62 581.518 1618.69 C 571.044 1619.52 559.47 1619.04 548.837 1619.02 L 548.806 1638.08 C 551.469 1638.07 577.975 1637.48 578.293 1638.44 C 581.339 1647.62 573.976 1644.97 568.751 1645.24 C 561.874 1645.6 554.75 1644.81 548.498 1645.54 C 548.366 1652.22 548.346 1658.9 548.436 1665.58 C 559.501 1665.56 572.438 1664.49 583.202 1665.75 C 584.222 1665.87 584.085 1672.22 583.255 1672.28 C 569.375 1673.28 554.342 1672.92 540.275 1672.94 L 540.688 1611.87 z" fill="rgb(221,176,100)" transform="translate(0,0)"></path>
<path d="M 1206.53 1611.75 C 1223.17 1611.95 1240.11 1611.49 1256.63 1612.3 C 1257.61 1612.34 1257.61 1618.64 1256.75 1618.78 C 1251.07 1619.73 1242.42 1619.26 1236.49 1619.26 C 1236.89 1629.73 1236.65 1641.21 1236.66 1651.79 C 1236.67 1655.42 1237.75 1669.94 1235.01 1672.14 C 1234.89 1672.23 1229.18 1672.96 1229.13 1670.97 C 1228.73 1655.33 1228.96 1634.4 1228.81 1619.25 C 1225.04 1619.22 1211.46 1619.64 1207.66 1618.62 C 1206.98 1618.44 1206.68 1612.94 1206.53 1611.75 z" fill="rgb(221,176,100)" transform="translate(0,0)"></path>
<path d="M 937.974 1611.93 C 953.975 1611.91 970.551 1611.42 986.346 1612.42 C 987.13 1612.47 987.489 1617.94 986.305 1618.28 C 981.07 1619.75 972.691 1619.01 966.923 1619.02 L 966.934 1653.5 L 966.913 1669 C 966.957 1676.15 959.555 1672.14 959.572 1672.38 C 958.362 1655.23 958.938 1636.64 959.056 1619.15 C 952.697 1619.12 944.766 1619.65 938.648 1618.65 C 937.726 1618.5 937.988 1612.53 937.974 1611.93 z" fill="rgb(221,176,100)" transform="translate(0,0)"></path>
<path d="M 1351.16 1611.69 C 1352.87 1611.78 1357.34 1611.34 1358.7 1612.44 C 1360.28 1613.73 1359.55 1666.82 1359.44 1672.49 C 1357.66 1672.38 1353.18 1672.82 1351.67 1671.45 C 1350.66 1670.52 1351.11 1617.37 1351.16 1611.69 z" fill="rgb(221,176,100)" transform="translate(0,0)"></path>
<path d="M 837.66 1611.37 C 839.408 1611.49 845.208 1611.43 845.283 1612.57 C 846.157 1625.69 845.884 1661.13 845.776 1672.13 C 843.728 1672.15 838.097 1672.94 838.069 1670.53 C 837.853 1652.19 837.39 1629.36 837.66 1611.37 z" fill="rgb(221,176,100)" transform="translate(0,0)"></path>
<path d="M 1131.62 434.843 C 1168.62 443.182 1218.23 466.494 1248.38 488.617 C 1256.38 494.487 1262.52 496.857 1269.34 504.762 L 1269.01 505.843 C 1267.16 505.429 1256.18 495.857 1253.44 493.867 C 1222.83 471.666 1189.67 456.813 1153.67 445.783 C 1147.92 444.022 1138.88 442.738 1134 440.397 C 1132.98 439.535 1131.02 438.311 1129.84 437.515 L 1131.62 434.843 z" fill="rgb(134,107,68)" transform="translate(0,0)"></path>
<path d="M 849.696 1054.26 C 838.846 1049.83 828.034 1042.27 817.86 1036.42 C 814.484 1034.48 811.629 1033.41 808.241 1030.95 C 806.899 1029.98 805.995 1029.36 804.348 1027.94 C 802.212 1026.09 797.912 1024.1 796.552 1021.58 C 796.373 1019.05 799.037 1020.19 800.387 1021.22 C 811.136 1029.45 822.6 1036.94 834.427 1043.52 C 839.039 1046.11 845.004 1048.32 849.268 1051.16 L 849.696 1054.26 z" fill="rgb(85,64,48)" transform="translate(0,0)"></path>
<path d="M 1246.01 447.544 C 1251.02 450.748 1294.84 480.779 1295.64 484.062 C 1295.48 484.566 1295.59 484.404 1295.36 484.624 C 1292.96 484.748 1280.67 474.304 1277.99 472.151 C 1267.74 463.901 1254.97 457.777 1244.69 450.068 L 1246.01 447.544 z" fill="rgb(100,75,54)" transform="translate(0,0)"></path>
<path d="M 814.685 1077.1 C 811.253 1075.41 791.106 1062.82 789.904 1060.65 L 790.113 1060.27 C 790.958 1060.26 813.03 1073 814.24 1074.29 L 814.685 1077.1 z" fill="rgb(100,75,54)" transform="translate(0,0)"></path>
<path d="M 814.24 1074.29 C 816.552 1075.44 818.834 1076.65 821.083 1077.92 L 820.265 1080.21 C 818.34 1079.2 816.582 1078.15 814.685 1077.1 L 814.24 1074.29 z" fill="rgb(122,98,62)" transform="translate(0,0)"></path>
<path d="M 849.268 1051.16 C 851.247 1052.15 853.081 1053.07 855.022 1054.14 L 854.046 1056.09 L 849.696 1054.26 L 849.268 1051.16 z" fill="rgb(185,150,94)" transform="translate(0,0)"></path>
<metadata><recraft-signature>{"signed_by": "recraft", "signature_b64": "HppW7+pKsz+nix1A16fTf4rNq9xb2mK5cgIrhHFdHvgxd7j4H67u+qsLb8MPa7upPAj9W2tOxgzcWtYdRp7TAQ==", "signing_algo": "Ed25519", "generation_timestamp": 1776377913, "identifier": "ee0d7280-53a6-480e-98fe-0d039c9987eb"}</recraft-signature></metadata></svg>