<svg xmlns="http://www.w3.org/2000/svg" height="1024" preserveAspectRatio="none" style="display: block;" version="1.1" viewBox="0 0 2048 2048" width="1024">
<path d="M 0 0 L 2048 0 L 2048 2048 L 0 2048 L 0 0 z" fill="rgb(0,0,0)" transform="translate(0,0)"></path>
<path d="M 1009.37 984.329 C 1025.28 899.925 1015.72 822.478 966.372 750.018 C 922.191 685.144 860.592 653.803 835.99 572.572 C 828.09 546.044 826.545 518.029 831.479 490.793 C 838.897 450.989 860.5 414.406 891.392 388.242 C 967.549 323.739 1077.23 325.58 1170.13 343.517 C 1216.53 352.666 1261.82 366.699 1305.27 385.383 L 1303.88 387.378 C 1183.86 337.998 1034.79 393.31 985.448 516.097 C 962.508 573.093 963.428 636.915 988.001 693.226 C 998.331 716.928 1027.84 767.737 1043.06 788.396 C 1042.81 757.653 1042.67 731.278 1046.41 700.533 C 1055.86 622.734 1088.87 546.452 1143.45 489.771 C 1181.11 450.656 1232.11 419.769 1287.69 420.265 C 1366.5 420.969 1440.06 470.237 1497.41 519.7 L 1495.64 521.221 C 1460.51 494.155 1390.4 445.442 1346.31 446.272 C 1312.97 446.9 1281.63 550.008 1270.96 577.129 C 1425.18 486.658 1549.12 555.688 1630.47 697.149 C 1657.53 744.221 1671.24 782.068 1688.65 833.489 L 1686.77 835.136 C 1681.96 821.173 1673.66 805.113 1666.62 792.055 C 1637.57 738.188 1603.45 684.269 1558.02 642.617 C 1518.87 606.719 1523.63 628.122 1506.43 657.319 C 1501.73 665.308 1496.43 672.929 1490.57 680.115 C 1437.33 745.053 1360.62 750.162 1285.76 765.258 C 1181.58 786.268 1108.51 854.918 1084.59 959.233 C 1117.16 935.664 1153.5 917.799 1192.06 906.4 C 1219.67 898.015 1249.17 890.792 1275.6 879.208 C 1304.48 866.55 1332.61 846.457 1359.01 829.213 C 1410.26 795.734 1472.64 768.742 1534.94 778.725 C 1585.47 786.82 1634.71 817.62 1663.77 859.964 C 1719.61 941.338 1722.93 1044.61 1706.6 1138.84 C 1704.02 1153.72 1701.17 1166.01 1697.5 1180.48 L 1695.49 1178.44 C 1699.52 1156.46 1699.66 1133.44 1699.91 1111.01 C 1700.59 1048.23 1691.2 984.706 1663.1 927.979 C 1661.05 923.852 1657.56 917.114 1653.66 914.76 C 1645.89 915.287 1633.39 927.186 1626.45 931.906 C 1592.94 954.685 1551.76 966.48 1511.9 971.702 C 1482.81 975.484 1453.31 974.865 1424.41 969.866 C 1408.31 967.169 1389.26 963.089 1373.64 958.585 C 1272.03 929.292 1173.15 931.937 1106.23 1026.68 C 1119.27 1035.38 1131.95 1042.64 1146.7 1047.98 C 1197.48 1066.37 1266.57 1062.92 1319.28 1051.7 C 1410.43 1032.28 1492.76 1010.75 1578.19 1066.59 C 1619.29 1093.45 1656.21 1137.6 1665.45 1186.98 C 1680.04 1265.04 1642.01 1351.87 1600.08 1416.19 L 1598.79 1414.64 C 1630.29 1348.09 1642.85 1295.02 1634.77 1220.59 C 1629.73 1223.97 1623.32 1228.25 1617.44 1229.6 C 1584.17 1237.21 1534.93 1235.48 1501.6 1227.28 C 1539.9 1266.31 1568.61 1324.79 1567.71 1380.17 C 1566.56 1450.94 1522.1 1518.68 1469.59 1564.01 L 1467.65 1562.67 C 1512.04 1512.05 1542.8 1457.01 1537.89 1387.5 C 1533.51 1325.47 1504.58 1277.64 1458.1 1237.45 C 1393.8 1181.86 1311.75 1169.15 1233.44 1146.5 C 1274.48 1220.44 1325.75 1260.29 1387.36 1311.52 C 1440.54 1355.74 1472.91 1444.33 1451.26 1510.23 C 1432.25 1577.68 1377.27 1622.17 1318.52 1654.85 C 1277.45 1677.7 1200.91 1706.91 1153.92 1712.48 L 1153.13 1709.97 C 1158.25 1708.68 1163.34 1707.27 1168.39 1705.74 C 1212.8 1692.56 1284 1667.64 1307.67 1625.48 C 1322.16 1598.83 1308.23 1568.48 1296.91 1543.76 C 1283.09 1513.62 1268.6 1484.31 1259.8 1452.4 C 1250.99 1420.42 1247.47 1389.13 1246.25 1356.13 C 1245.05 1323.5 1247.77 1290.45 1238.05 1258.92 C 1220.52 1202.07 1174.65 1161.29 1130.32 1124.58 C 1115.94 1112.75 1092.97 1094.54 1076.75 1085.85 C 1046.06 1175.97 1061.21 1257.79 1112.96 1335.78 C 1165.95 1415.64 1233.3 1476.41 1200.84 1581.64 C 1186.35 1627.48 1154.21 1665.66 1111.51 1687.75 C 1026.49 1732.11 906.173 1722.61 817.235 1694.63 L 817.977 1693.04 C 842.029 1697.76 866.441 1700.41 890.946 1700.96 C 922.96 1702 1014.94 1700.24 1037.49 1679.07 C 1039.46 1673.14 1032.9 1648.73 1031.67 1640.76 C 1028.95 1623.1 1028.47 1611.2 1029.72 1593.43 C 1031.5 1570.8 1035.27 1548.37 1040.98 1526.4 C 1052.77 1479.68 1072.23 1426.53 1066.22 1378.44 C 1061.79 1343.05 1043.91 1308.56 1030.9 1275.67 C 1024.86 1260.37 1019.91 1244.67 1016.07 1228.68 C 1001.98 1268.97 989.624 1333.96 989.166 1376.03 C 988.168 1467.71 985.803 1554.15 908.51 1618.26 C 873.56 1647.78 821.776 1661.94 776.326 1655.64 C 650.233 1638.15 551.348 1540.69 475.875 1446.15 L 477.341 1443.96 C 517.46 1485.04 559.108 1524.05 607.383 1555.82 C 617.641 1562.57 659.245 1591.46 672.788 1580.94 C 679.589 1575.66 686.782 1551.29 692.022 1541.29 C 697.376 1531.12 704.046 1521.7 711.86 1513.27 C 749.197 1473.02 801.203 1460.86 848.158 1435.03 C 901.373 1405.76 936.893 1355.22 950.918 1296.56 C 955.271 1278.35 957.004 1254.09 960.622 1234.64 C 967.201 1200.5 975.324 1166.68 984.966 1133.28 C 911.631 1164.36 834.089 1206.23 790.718 1275.38 C 776.216 1297.51 767.351 1322.76 754.014 1345.57 C 699.898 1438.11 594.535 1471.55 500.771 1414.64 C 419.521 1365.32 379.041 1283.56 354.313 1194.95 C 348.656 1174.69 345.413 1154.76 340.401 1134.75 L 342.573 1134.97 C 352.513 1177.67 379.688 1254.48 416.701 1278.84 C 433.658 1290 452.866 1292.86 472.477 1288.28 C 539.53 1272.6 596.024 1223.76 658.81 1197.07 C 694.479 1181.9 729.315 1177.54 766.728 1169.54 C 844.071 1153.02 938.601 1107.73 984.23 1040.6 C 858.477 983.416 766.935 1011.2 665.68 1097.66 C 624.879 1132.5 586.382 1169.45 533.13 1183.5 C 496.844 1194.28 456.689 1191.34 423.524 1170.72 C 271.108 1075.97 349.681 815.601 417.808 696.953 L 419.305 697.533 C 403.107 734.606 388.19 774.265 385.188 815.021 C 383.395 839.347 385.354 893.662 415.452 900.364 C 421.988 901.819 446.648 890.918 454.734 889.917 C 488.294 883.556 518.498 888.447 551.191 895.389 C 472.038 840.512 416.851 745.42 462.073 651.271 C 498.658 575.103 545.174 523.268 609.292 469.518 L 610.326 471.362 L 604.172 476.747 C 603.514 477.652 603.68 477.572 602.732 478.037 C 566.821 511.804 517.49 564.048 528.475 617.205 C 534.125 644.547 550.826 676.236 566.727 699.383 C 600.3 748.029 648.261 784.942 703.881 804.941 C 725.738 813.023 749.237 819.12 771.414 827.12 C 800.605 837.651 820.303 848.868 845.318 865.826 C 831.927 828.663 820.72 800.037 794.338 768.675 C 737.256 700.818 644.119 690.116 617.966 594.958 C 608.51 560.549 614.848 522.767 632.834 492.431 C 682.636 408.436 779.963 369.519 868.976 344.988 L 869.923 346.966 C 822.278 361.093 766.055 386.513 725.281 415.206 C 672.197 454.525 728.607 522.093 752.932 560.026 C 789.421 616.926 824.357 675.269 844.451 739.835 C 873.94 834.59 917.5 933.607 1009.37 984.329 z" fill="rgb(207,163,86)" transform="translate(0,0)"></path>
<path d="M 602.732 478.037 C 602.981 476.854 602.898 476.919 604.172 476.747 C 603.514 477.652 603.68 477.572 602.732 478.037 z" fill="rgb(127,96,55)" transform="translate(0,0)"></path>
<path d="M 464.63 669.161 C 470.965 670.832 488.287 686.429 495.262 691.332 C 517.072 706.665 543.522 713.129 564.895 727.889 C 576.042 736.625 584.474 750.688 593.378 761.419 C 637.197 814.548 692.59 834.26 753.963 857.152 C 799.126 873.998 851.523 916.602 884.102 951.11 L 872.242 949.495 C 860.723 946.969 822.098 944.633 810.039 944.248 C 744.264 942.847 686.482 941.061 624.597 916.302 C 526.511 877.06 416.384 787.542 464.63 669.161 z" fill="rgb(0,0,0)" transform="translate(0,0)"></path>
<path d="M 1390.43 563.38 C 1428.48 559.518 1459.97 567.627 1491.99 587.95 C 1493.31 682.136 1395.01 714.159 1317.46 722.289 C 1302.65 723.841 1286.55 726.377 1271.96 729.342 C 1246.77 734.447 1222.24 742.402 1198.85 753.051 C 1174.61 764.203 1155.05 777.363 1133.53 792.76 C 1171.5 688.342 1276.13 576.906 1390.43 563.38 z" fill="rgb(0,0,0)" transform="translate(0,0)"></path>
<path d="M 774.687 1213.41 C 778.331 1212.99 777.16 1212.41 779.516 1213.8 C 779.036 1216.28 769.077 1228.93 766.939 1231.78 C 739.04 1268.96 729.538 1316.23 701.937 1353.34 C 679.106 1383.41 645.368 1403.3 608.003 1408.71 C 562.456 1415.28 523.605 1400.73 487.636 1373.74 C 473.938 1363.43 453.626 1345.25 446.436 1329.15 C 440.967 1315.41 458.128 1312.27 467.039 1310.17 C 538.733 1293.19 602.37 1251.83 672.855 1231.21 C 704.69 1221.9 741.878 1217.49 774.687 1213.41 z" fill="rgb(0,0,0)" transform="translate(0,0)"></path>
<path d="M 946.341 1398.67 C 948.003 1402.67 948.354 1418.12 948.594 1422.85 C 950.609 1462.25 946.528 1497.48 930.151 1533.77 C 890.712 1621.16 798.663 1650.39 712.56 1610.89 C 684.471 1597.62 685.905 1577.59 699.078 1552.57 C 719.967 1512.91 769.328 1490.22 810.527 1476.75 C 865.539 1458.77 908.527 1445.96 946.341 1398.67 z" fill="rgb(0,0,0)" transform="translate(0,0)"></path>
<path d="M 1279.5 429.41 C 1288.81 428.705 1319.09 428.603 1324.38 436.794 C 1324.3 442.794 1319.13 451.338 1316.12 456.762 C 1287.22 508.907 1268.53 569.53 1219.5 607.359 C 1207.6 616.538 1196.07 626.318 1184.82 635.871 C 1156.87 659.589 1132.87 686.305 1110.12 714.803 L 1091.33 739.684 C 1088.71 729.629 1086.88 719.384 1085.87 709.042 C 1079.15 641.771 1109.41 554.585 1152.75 502.864 C 1187.83 461.005 1224.25 434.398 1279.5 429.41 z" fill="rgb(0,0,0)" transform="translate(0,0)"></path>
<path d="M 1283.47 1282.36 C 1292.79 1286.33 1337.51 1320.92 1349.04 1329.42 C 1387.5 1357.76 1416.89 1401.09 1422.18 1449.47 C 1427.02 1493.72 1414.49 1530.64 1386.85 1565.31 C 1382.45 1570.5 1377.89 1575.54 1373.17 1580.43 C 1355.36 1599.01 1343.73 1602.73 1331.28 1577.26 C 1325.01 1564.45 1318.89 1552.21 1313.31 1538.97 C 1287.63 1479.63 1275.73 1415.25 1278.48 1350.66 C 1279.35 1327.86 1282.43 1305.25 1283.47 1282.36 z" fill="rgb(0,0,0)" transform="translate(0,0)"></path>
<path d="M 401.351 995.336 C 443.895 988.46 495.356 1022.77 533.496 1037.79 C 569.324 1051.91 612.987 1060.23 651.38 1054.72 C 626.114 1080.98 605.08 1103.35 576.264 1125.41 C 525.94 1160.88 466.614 1171.2 413.658 1133.37 C 384.319 1111.72 363.6 1078.14 357.432 1042.24 C 351.375 1006.99 372.245 999.677 401.351 995.336 z" fill="rgb(0,0,0)" transform="translate(0,0)"></path>
<path d="M 1032.93 343.381 C 1035.41 343.469 1035.6 343.727 1037.95 344.651 C 1039.91 346.886 1041.73 350.71 1040.83 353.751 C 1015.9 437.731 951.612 506.52 932.681 593.007 C 927.971 614.527 929.864 634.706 933.989 656.13 C 922.433 647.555 905.831 630.563 895.802 620.122 C 840.577 556.171 829.913 476.926 886.765 409.185 C 922.303 366.84 978.932 346.973 1032.93 343.381 z" fill="rgb(0,0,0)" transform="translate(0,0)"></path>
<path d="M 1502.37 813.419 C 1544.41 810.97 1587.13 830.219 1618.36 856.772 C 1659.36 891.624 1621.07 914.369 1587.37 927.803 C 1552.39 941.74 1516.55 947.527 1479.25 947.162 C 1465.29 947.043 1451.36 945.644 1437.66 942.983 C 1409.13 937.581 1372.83 925.858 1348.01 910.91 C 1325.71 897.48 1363.51 875.587 1373.42 868.276 C 1413.69 838.553 1451.21 817.028 1502.37 813.419 z" fill="rgb(0,0,0)" transform="translate(0,0)"></path>
<path d="M 1453.85 1071.42 C 1470.54 1070.57 1487.28 1071.97 1503.6 1075.59 C 1550.39 1086.35 1591.02 1115.16 1616.65 1155.76 C 1623.74 1167.1 1635.16 1187.7 1616.62 1194.6 C 1575.15 1210.04 1519.23 1199.96 1478.48 1187.06 C 1463.52 1182.53 1444.21 1174.5 1429.7 1168.64 C 1382.66 1149.61 1336.75 1126.94 1289.28 1108.94 C 1346.82 1093.62 1393.91 1075.66 1453.85 1071.42 z" fill="rgb(0,0,0)" transform="translate(0,0)"></path>
<path d="M 469.535 893.414 C 479.704 892.239 492.987 893.614 503.209 894.69 C 562.117 900.887 601.507 937.943 655.228 958.552 C 690.073 971.919 723.712 979.698 760.976 983.328 C 740.816 992.743 715.578 1000.86 694.51 1007.5 C 686.299 1009.72 678.037 1011.75 669.731 1013.59 C 581.875 1032.57 487.806 1013.22 428.05 941.798 C 396.144 903.666 439.541 895.936 469.535 893.414 z" fill="rgb(0,0,0)" transform="translate(0,0)"></path>
<path d="M 1108.4 1410.84 C 1109.09 1410.86 1111.56 1410.92 1112.04 1411.09 C 1121.26 1414.51 1139.89 1440.58 1145.1 1447.79 C 1167.81 1479.22 1179.25 1519.56 1171.44 1558.08 C 1162.27 1603.3 1139.23 1632.5 1101.93 1658 C 1091.58 1664.3 1076.42 1674.27 1065.1 1665.72 C 1056.5 1659.23 1051.5 1640.3 1050.29 1629.89 C 1043.28 1569.75 1068.52 1509.31 1090.18 1454.54 C 1094.34 1444.15 1102.43 1418.82 1108.4 1410.84 z" fill="rgb(0,0,0)" transform="translate(0,0)"></path>
<path d="M 687.853 440.606 C 690.358 440.636 690.218 440.732 692.478 441.901 C 694.676 445.748 694.959 462.234 696.217 467.872 C 697.613 474.508 699.196 481.895 701.795 488.161 C 734.197 566.282 777.769 636.696 798.399 719.424 C 787.025 709.075 773.774 701.763 760.351 694.525 C 722.385 675.065 676.634 657.669 650.557 622.818 C 604.007 560.605 628.892 484.441 687.853 440.606 z" fill="rgb(0,0,0)" transform="translate(0,0)"></path>
<path d="M 372.507 824.934 L 375.005 828.324 C 376.364 900.16 416.768 954.269 469.271 998.383 C 445.634 989.366 408.764 984.297 384.333 992.071 C 373.76 995.436 361.286 1000.67 350.464 1004.52 C 343.212 1001.4 344.54 984.376 344.546 977.401 C 344.588 925.25 357.584 874.531 372.507 824.934 z" fill="rgb(0,0,0)" transform="translate(0,0)"></path>
<path d="M 1048.01 343.093 C 1102.16 341.103 1145.9 347.742 1197.83 362.432 C 1164.34 364.738 1126 376.102 1095.66 389.609 C 1060.12 407.461 1037 425.862 1011.78 455.982 C 1013.18 450.437 1015.69 441.995 1017.97 436.774 C 1030.97 407.033 1037.21 372.968 1048.01 343.093 z" fill="rgb(0,0,0)" transform="translate(0,0)"></path>
<path d="M 525.587 565.767 C 526.325 568.456 524.539 575.736 523.881 578.718 C 515.861 615.09 530.837 651.259 544.305 684.392 C 546.924 690.835 550.764 699.691 551.616 706.828 C 544.848 715.513 524.305 702.425 517.214 697.979 C 509.618 693.019 502.27 687.69 495.195 682.011 C 469.372 661.426 467.118 657.412 482.918 627.73 C 495.204 604.649 508.744 585.688 525.587 565.767 z" fill="rgb(0,0,0)" transform="translate(0,0)"></path>
<path d="M 372.507 824.934 C 372.801 823.901 373.29 821.152 374.439 820.676 C 375.357 821.068 375.009 827.335 375.005 828.324 L 372.507 824.934 z" fill="rgb(28,21,14)" transform="translate(0,0)"></path>
<path d="M 891.972 338.651 L 893.383 340.064 C 885.477 342.099 877.875 344.874 869.923 346.966 L 868.976 344.988 C 875.925 342.682 884.791 340.388 891.972 338.651 z" fill="rgb(99,78,50)" transform="translate(0,0)"></path>
<path d="M 1497.41 519.7 C 1503.65 525.046 1507.86 528.728 1512.9 535.32 C 1507.35 531.115 1500.55 526.076 1495.64 521.221 L 1497.41 519.7 z" fill="rgb(127,96,55)" transform="translate(0,0)"></path>
<path d="M 621.772 458.512 L 622.03 461.186 C 618.275 463.961 614.017 468.188 610.326 471.362 L 609.292 469.518 C 611.952 466.4 618.01 462.405 621.772 458.512 z" fill="rgb(127,96,55)" transform="translate(0,0)"></path>
<path d="M 1305.27 385.383 C 1310.57 387.009 1317.15 390.425 1321.4 394.157 L 1305.38 387.941 C 1304.88 387.754 1304.38 387.566 1303.88 387.378 L 1305.27 385.383 z" fill="rgb(127,96,55)" transform="translate(0,0)"></path>
<path d="M 1469.59 1564.01 C 1467.28 1566.52 1460.75 1572.8 1457.88 1574.33 L 1457.74 1574.23 L 1457.68 1574.24 L 1457.6 1574.08 C 1458.07 1572.18 1465.9 1564.35 1467.65 1562.67 L 1469.59 1564.01 z" fill="rgb(152,120,74)" transform="translate(0,0)"></path>
<path d="M 1142.72 1712.47 C 1146.22 1711.82 1149.7 1710.92 1153.13 1709.97 L 1153.92 1712.48 C 1152.28 1713.1 1146.33 1714.12 1144.24 1714.57 L 1142.72 1712.47 z" fill="rgb(152,120,74)" transform="translate(0,0)"></path>
<path d="M 340.401 1134.75 C 339.878 1132.64 337.919 1122.92 338.76 1121.69 C 340.39 1121.11 342.36 1133.32 342.573 1134.97 L 340.401 1134.75 z" fill="rgb(70,53,37)" transform="translate(0,0)"></path>
<path d="M 1697.5 1180.48 C 1696.94 1183.64 1696.66 1184.68 1695.79 1187.84 L 1696.06 1187.12 C 1692.84 1196.45 1695.5 1178.4 1695.49 1178.44 L 1697.5 1180.48 z" fill="rgb(127,96,55)" transform="translate(0,0)"></path>
<path d="M 817.235 1694.63 C 805.09 1692.29 803.357 1688.12 817.977 1693.04 L 817.235 1694.63 z" fill="rgb(99,78,50)" transform="translate(0,0)"></path>
<path d="M 467.42 1434.97 C 471.167 1438.11 473.923 1440.41 477.341 1443.96 L 475.875 1446.15 C 472.881 1442.56 470.167 1438.75 467.42 1434.97 z" fill="rgb(127,96,55)" transform="translate(0,0)"></path>
<path d="M 417.808 696.953 C 418.695 695.035 420.277 690.973 422.235 689.639 C 422.751 689.287 422.796 690.5 422.716 690.801 C 422.052 693.29 420.838 695.484 419.305 697.533 L 417.808 696.953 z" fill="rgb(99,78,50)" transform="translate(0,0)"></path>
<path d="M 1688.65 833.489 C 1688.91 834.477 1690.89 840.447 1689.82 841.412 C 1688.87 841.398 1687.25 836.246 1686.77 835.136 L 1688.65 833.489 z" fill="rgb(127,96,55)" transform="translate(0,0)"></path>
<path d="M 1600.08 1416.19 C 1599.6 1417.21 1596.83 1422.79 1595.53 1422.43 C 1594.81 1420.93 1597.95 1416.03 1598.79 1414.64 L 1600.08 1416.19 z" fill="rgb(127,96,55)" transform="translate(0,0)"></path>
<path d="M 621.772 458.512 C 624.706 454.472 629.377 455.18 622.03 461.186 L 621.772 458.512 z" fill="rgb(70,53,37)" transform="translate(0,0)"></path>
<path d="M 1144.24 1714.57 C 1142.95 1714.77 1137.78 1715.72 1136.77 1714.61 L 1136.78 1714.51 C 1138.12 1713.21 1140.97 1712.8 1142.72 1712.47 L 1144.24 1714.57 z" fill="rgb(99,78,50)" transform="translate(0,0)"></path>
<path d="M 891.972 338.651 C 893.246 338.225 895.342 337.318 896.448 338.51 C 896.267 339.6 894.152 339.865 893.383 340.064 L 891.972 338.651 z" fill="rgb(28,21,14)" transform="translate(0,0)"></path>
<metadata><recraft-signature>{"signed_by": "recraft", "signature_b64": "sz3CIWLVuDRAW6d3Q0tPzIOBlcIv4hFQUj3T2SuKy6fVsND5u4iMEd8NXpYbBzF2Y0I88WgSREcOPUpenV1qDg==", "signing_algo": "Ed25519", "generation_timestamp": 1776377897, "identifier": "044c3e16-ba2b-4543-bbdd-c531fdc5f7ed"}</recraft-signature></metadata></svg>