<svg xmlns="http://www.w3.org/2000/svg" height="1024" preserveAspectRatio="none" style="display: block;" version="1.1" viewBox="0 0 2048 2048" width="1024">
<path d="M 0 0 L 2048 0 L 2048 2048 L 0 2048 L 0 0 z" fill="rgb(15,23,37)" transform="translate(0,0)"></path>
<path d="M 1155.85 359.443 C 1188.54 357.837 1229.26 359.118 1262.73 359.126 L 1458.09 358.859 C 1458.01 389.076 1458.26 426.579 1456.48 456.509 C 1453.06 514.33 1438.66 586.417 1420.35 641.746 C 1401.68 699.402 1376.51 754.747 1345.33 806.713 C 1250.74 961.121 1093.61 1081.54 914.083 1115.51 C 893.261 1119.37 872.231 1122.02 851.101 1123.43 C 835.821 1124.37 820.334 1124.49 805.094 1125.64 C 725.616 1131.6 621.61 1170.25 595.128 1253.22 C 583.025 1291.59 586.691 1333.19 605.317 1368.85 C 618.898 1394.66 640.816 1422.79 660.503 1444.18 C 722.791 1512.55 802.352 1562.88 890.819 1589.87 C 1006.48 1625.4 1139.87 1611.45 1246.83 1555 C 1378.66 1485.42 1466.69 1373.66 1510.28 1231.65 C 1432.79 1337.68 1291.8 1408.12 1162.7 1420.54 C 1123.73 1424.29 1093.5 1422.59 1055.52 1424.14 C 966.1 1427.79 898.049 1462.26 833.696 1522.05 C 815.43 1504.77 793.101 1487.35 773.747 1469.67 C 849.75 1392.4 938.819 1347.13 1047.91 1343.55 C 1101.9 1341.78 1144.85 1342.77 1198.75 1332.3 C 1272.59 1317.61 1341.21 1283.61 1397.64 1233.77 C 1459.78 1178.26 1503.02 1103.78 1509.66 1018.93 C 1511.23 998.84 1503.5 979.094 1497.02 960.169 C 1479.6 909.236 1443.5 840.237 1407.29 800.367 C 1427.83 782.675 1447.86 764.395 1467.35 745.55 C 1542.98 837.878 1598.74 964.684 1604.67 1084.71 C 1616.16 1317.38 1466.63 1543.87 1256.74 1639.53 C 1189.63 1670.11 1126.67 1685.54 1052.4 1689.35 C 904.385 1696.32 759.597 1644.64 649.454 1545.52 C 612.334 1512.28 579.008 1475.03 550.088 1434.46 C 484.111 1338.32 445.796 1225.92 439.319 1109.5 C 430.545 924.077 503.771 733.871 628.39 597.208 C 742.72 472.072 897.039 390.63 1064.86 366.858 C 1096.69 362.222 1123.98 360.883 1155.85 359.443 z" fill="rgb(226,176,90)" transform="translate(0,0)"></path>
<path d="M 536.11 940.772 C 544.578 905.022 552.021 878.478 565.642 844.263 C 616.755 717.365 706.816 609.958 822.86 537.503 C 912.023 482.876 1012.78 449.974 1117 441.453 C 1159.45 437.847 1206.01 437.462 1248.93 437.926 C 1290.17 438.372 1335.42 437.06 1376.32 438.858 C 1369.74 610.314 1296.66 779.595 1170.27 896.733 C 1093.94 968.585 998.807 1017.34 895.901 1037.36 C 853.594 1045.28 824.715 1043.94 783.325 1047.83 C 699.636 1055.7 615.682 1089.76 557.612 1152.01 C 571.388 1026.33 635.097 911.456 734.417 833.217 C 825.111 761.357 952.282 722.89 1067.49 736.281 C 1072.08 736.805 1076.66 737.463 1081.21 738.255 C 1089.61 713.551 1099.81 685.148 1106.85 660.101 C 1079.13 656.358 1052.1 653.257 1024.11 653.057 C 905.56 652.461 790.104 690.865 695.531 762.353 C 635.93 807.714 573.076 875.632 539.125 942.965 L 536.11 940.772 z" fill="rgb(15,23,37)" transform="translate(0,0)"></path>
<path d="M 536.11 940.772 L 539.125 942.965 C 537.348 946.655 535.196 950.47 533.151 954.022 C 534.069 949.59 535.055 945.173 536.11 940.772 z" fill="rgb(26,26,23)" transform="translate(0,0)"></path>
<metadata><recraft-signature>{"signed_by": "recraft", "signature_b64": "8Va+Q5zaGXmXRGms8jy+JBjp82PsaazRp7yqSZvTBDKdNOK+ndLW+jcP4fmD2S2YJZHM92ANkQATidp6Zu0DBw==", "signing_algo": "Ed25519", "generation_timestamp": 1776377928, "identifier": "9de22b38-a63c-4df6-823a-29eb78be4114"}</recraft-signature></metadata></svg>